<?xml version="1.0" encoding="utf-8"?>
<!-- Generator: Adobe Illustrator 13.0.2, SVG Export Plug-In . SVG Version: 6.00 Build 14948)  -->
<!DOCTYPE svg PUBLIC "-//W3C//DTD SVG 1.0//EN" "http://www.w3.org/TR/2001/REC-SVG-20010904/DTD/svg10.dtd">
<svg version="1.0" id="Ebene_1" xmlns="http://www.w3.org/2000/svg" xmlns:xlink="http://www.w3.org/1999/xlink" x="0px" y="0px"
	 width="393.726px" height="540.524px" viewBox="0 0 393.726 540.524" enable-background="new 0 0 393.726 540.524"
	 xml:space="preserve">
<path fill="#AE9962" d="M271.164,53.605c0,0-53.072-0.302-56.124-0.319C214.081,50.389,197.398,0,197.398,0
	s-16.684,50.389-17.643,53.286c-3.052,0.017-56.13,0.319-56.13,0.319s42.759,31.437,45.218,33.245
	c-0.926,2.908-17.038,53.48-17.038,53.48s43.113-30.957,45.592-32.737c2.479,1.78,45.592,32.737,45.592,32.737
	s-16.111-50.573-17.038-53.48C228.411,85.042,271.164,53.605,271.164,53.605z"/>
<circle fill="#AE9962" cx="196.863" cy="343.661" r="196.863"/>
<circle fill="#0055A0" cx="196.863" cy="343.661" r="180.779"/>
<circle fill="#AE9962" cx="196.863" cy="343.661" r="158.702"/>
<circle cx="196.863" cy="343.661" r="151.059"/>
<circle fill="#AE9962" cx="196.863" cy="343.661" r="130.244"/>
<path fill="#FFFFFF" d="M204.958,343.28c0.052,46.65,0.34,102.753,1.402,109.304c1.862,11.405,5.434,15.12,5.434,15.12H179.93
	c0,0,3.564-3.715,5.422-15.12c1.067-6.551,1.356-62.653,1.402-109.304H204.958z"/>
<path fill="#FFFFFF" d="M81.817,346.211c0-63.546,51.505-115.068,115.042-115.068c48.39,0,89.8,29.885,106.793,72.201h-16.71
	c-16.024-33.644-50.339-56.893-90.083-56.893c-55.093,0-99.745,44.661-99.745,99.766c0,50.027,36.819,91.459,84.822,98.663v1.843
	c-0.075,0.845-0.15,1.508-0.219,1.981c-0.704,4.303-1.76,8.037-2.919,11.173C123.845,451.207,81.817,403.622,81.817,346.211
	 M210,448.704c-0.122-0.739-0.22-1.933-0.341-3.533c42.271-5.411,76.263-37.289,84.846-78.495h15.585
	c-8.722,48.578-47.899,86.574-97.074,93.481C211.816,456.967,210.721,453.141,210,448.704"/>
<path fill="#FFFFFF" d="M148.891,264.962h34.536v17.804h-13.198v39.96h46.209v16.745h-41.231l-23.154-39.74v-28.429
	C152.052,267.982,148.891,264.962,148.891,264.962 M208.425,264.962h33.127v22.623c0,0-3.928-4.819-9.513-4.819h-23.615V264.962z"/>
<path fill="#FFFFFF" d="M140.247,322.235c0,0,42.014,65.988,42.014,67.364v-27.511c0,0-39.273-65.601-41.033-69.128
	c-1.419-2.83-5.218-13.482-6.676-17.615c-5.549,4.81-10.524,10.262-14.817,16.238c1.002,1.668,2.72,4.747,2.996,6.669
	c0.392,2.741-4.951,79.049-5.671,82.446c-0.802,3.753-2.646,7.683-3.763,9.848c5.12,9.524,11.836,18.063,19.794,25.257
	c0.177-3.14,0.55-9.885,0.688-13.469C133.969,397.556,140.247,322.235,140.247,322.235z"/>
<path fill="#FFFFFF" d="M166.977,374.432l-15.75-26.061c0,0-0.993,60.301-1.379,64.809c-0.319,3.562-3.178,9.665-4.373,12.086
	c7.782,4.981,16.349,8.84,25.472,11.36c-1.145-3.063-3.24-8.988-3.387-11.681C167.364,421.219,166.977,374.432,166.977,374.432z"/>
<path fill="#FFFFFF" d="M278.075,391.537c-0.938-1.721-3.339-6.403-4.287-10.837c-0.722-3.397-6.058-79.705-5.678-82.446
	c0.334-2.3,2.73-6.249,3.494-7.462c-4.373-5.959-9.432-11.381-15.062-16.151c-1.215,3.452-5.424,15.312-6.922,18.321
	c-1.766,3.527-41.021,69.128-41.021,69.128V389.6c0-1.376,42.002-67.364,42.002-67.364s6.276,75.32,6.462,80.1
	c0.164,3.988,0.604,11.889,0.746,14.381C265.931,409.582,272.807,401.067,278.075,391.537z"/>
<path fill="#FFFFFF" d="M204.918,249.794l-0.018,69.465h-18.314v-69.3c3.317-0.34,6.674-0.514,10.065-0.514
	C199.443,249.445,202.195,249.559,204.918,249.794"/>
<path fill="#FFFFFF" d="M215.809,218.738c0,0-5.393,5.032-8.82,9.526c-3.369-0.283-6.783-0.43-10.238-0.43
	c-3.975,0-7.897,0.192-11.756,0.565c-3.432-4.577-8.929-9.662-8.929-9.662H215.809z"/>
</svg>
