<?xml version="1.0" encoding="UTF-8" standalone="no"?>
<svg
   xmlns:dc="http://purl.org/dc/elements/1.1/"
   xmlns:cc="http://creativecommons.org/ns#"
   xmlns:rdf="http://www.w3.org/1999/02/22-rdf-syntax-ns#"
   xmlns:svg="http://www.w3.org/2000/svg"
   xmlns="http://www.w3.org/2000/svg"
   height="304"
   width="155.52919"
   xml:space="preserve"
   viewBox="0 0 155.52919 304"
   y="0px"
   x="0px"
   id="Layer_1"
   version="1.1"><metadata
     id="metadata13"><rdf:RDF><cc:Work
         rdf:about=""><dc:format>image/svg+xml</dc:format><dc:type
           rdf:resource="http://purl.org/dc/dcmitype/StillImage" /><dc:title></dc:title></cc:Work></rdf:RDF></metadata><defs
     id="defs11" /><style
     id="style2"
     type="text/css">
	.st0{fill:#FFFFFF;}
</style><g
     transform="matrix(2.7803522,0,0,2.7803522,-29.696015,-29.139945)"
     style="fill:#000000"
     id="g6"><path
       style="fill:#000000"
       id="path4"
       d="m 54.6,78.2 c 0,20.9 -8.8,26.2 -26.8,35 2.3,1.5 5.4,3.4 10.7,5.9 C 52.3,112.6 65.6,104 65.6,81.2 V 32.9 h -11 z M 44.1,32.9 H 11.4 v 9.6 h 21.7 v 30.7 c 0,14 -0.9,15.3 -19.1,23.5 1.3,3.2 3.1,6.3 5.5,9.2 C 40.1,96.7 44.1,92 44.1,76.1 Z M 15.7,11.2 v 8.5 c 0,2.2 -1.3,3.7 -3.9,3.7 h -0.4 v -1.8 h 0.3 c 1.2,0 1.9,-0.6 1.9,-1.9 V 13 h -1.9 v -1.8 z m 3.7,10.4 h 1.9 V 11.2 h 2 v 10.2 c 0,1.3 -0.7,1.9 -2,1.9 h -1.9 c -1.3,0 -2,-0.7 -2,-1.9 V 11.2 h 2 z m 9.4,-2.9 v -7.4 h 2 v 7.5 c 0,3.4 -1.8,4.6 -4.9,4.6 h -1 V 11.2 h 2 V 21.3 H 27 c 1.3,0.1 1.8,-1.1 1.8,-2.6 z m 5.7,-5.6 v 3.2 h 2.3 L 36.4,18 h -2 v 3.5 h 3 l -0.3,1.8 H 32.5 V 11.2 H 37 l 0.3,1.8 h -2.8 z m 8.1,-1.9 h 1.9 V 23.3 H 42.6 V 19.2 L 40.7,15 h -0.1 v 8.3 H 38.7 V 11.2 h 1.9 l 1.9,4.6 h 0.1 z m 8.9,1.9 h -1.9 v 10.3 h -2 V 13.1 H 45.7 L 46,11.3 h 5.2 z m 3,8.5 h 1.9 V 11.3 h 2 v 10.2 c 0,1.3 -0.7,1.9 -2,1.9 h -1.9 c -1.3,0 -2,-0.7 -2,-1.9 V 11.3 h 2 z m 5.4,-2.2 h 2 v 2.4 h 1.8 v -1.7 c 0,-0.8 -0.2,-1.2 -0.8,-1.6 L 61,17.3 C 60.3,16.8 60,16 60,15.4 v -2.2 c 0,-1.3 0.8,-1.9 1.9,-1.9 h 1.9 c 1.3,0 1.9,0.7 1.9,1.9 v 1.5 l -1.9,0.5 v -2.4 h -1.7 v 1.8 c 0,0.6 0.2,1 0.8,1.4 l 1.8,1.1 c 0.8,0.5 1.2,1.2 1.2,2.2 v 2.3 c 0,1.3 -0.8,1.8 -1.9,1.8 h -1.8 c -1.3,0 -2,-0.5 -2,-1.8 v -2.2 z"
       class="st0" /></g></svg>