<?xml version="1.0" encoding="UTF-8" standalone="no"?>
<svg width="2400px" height="1889px" viewBox="0 0 2400 1889" version="1.1" xmlns="http://www.w3.org/2000/svg" xmlns:xlink="http://www.w3.org/1999/xlink" xmlns:sketch="http://www.bohemiancoding.com/sketch/ns">
    <!-- Generator: Sketch 3.4.2 (15855) - http://www.bohemiancoding.com/sketch -->
    <title>Bayer04-Emblem_2400x1889</title>
    <desc>Created with Sketch.</desc>
    <defs>
        <path id="path-1" d="M0,0.432978896 L2399.14586,0.432978896 L2399.14586,1888.65002 L0,1888.65002"></path>
    </defs>
    <g id="Page-1" stroke="none" stroke-width="1" fill="none" fill-rule="evenodd" sketch:type="MSPage">
        <g id="Bayer04-Emblem_2400x1889" sketch:type="MSArtboardGroup">
            <g id="Page-1" sketch:type="MSLayerGroup">
                <g id="Group-3">
                    <mask id="mask-2" sketch:name="Clip 2" fill="white">
                        <use xlink:href="#path-1"></use>
                    </mask>
                    <g id="Clip-2"></g>
                    <path d="M687.394944,104.068143 C700.096311,90.8593478 728.410388,63.2486167 780.612753,65.0040424 C813.315394,49.9183524 850.708314,55.8409551 864.622414,64.0205338 C864.622414,64.0205338 888.165886,63.4562898 903.345617,70.7640332 C996.490936,39.5366548 1096.12898,22.6426411 1199.57175,22.6426411 C1303.01257,22.6426411 1402.65649,39.5366548 1495.80181,70.7640332 C1510.98154,63.4562898 1534.52697,64.0205338 1534.52697,64.0205338 C1548.43715,55.8409551 1585.83203,49.9183524 1618.53663,65.0040424 C1670.73704,63.2486167 1699.04915,90.8593478 1711.75444,104.068143 C1718.96422,83.8807468 1731.5402,66.9005292 1761.08073,56.8146678 C1771.60349,2.11238844 1842.80794,-22.5909188 1943.14346,27.8912858 C1987.92444,-12.6931388 2053.61577,30.5440162 2075.12953,89.2253912 C2108.17699,80.8929965 2160.58115,111.656049 2157.07225,210.232217 C2190.55857,211.987643 2203.57732,247.231341 2194.07334,304.321862 C2213.98841,300.095909 2311.78678,281.902959 2381.87646,370.963387 C2415.30792,413.446258 2395.89048,467.733191 2360.33331,494.219352 C2357.96467,500.84726 2343.08077,560.157532 2298.1979,584.322065 C2295.52362,614.389608 2347.61627,678.666403 2367.19828,720.943559 C2422.2924,839.879531 2394.91089,1041.84753 2190.76036,1076.40748 C2199.8157,1084.88289 2220.53991,1113.31452 2227.33435,1136.94224 C2236.11735,1167.48782 2229.49336,1196.98328 2214.11771,1222.29394 C2197.2668,1250.0281 2134.26739,1289.38216 2118.61354,1309.16596 C2147.79749,1326.46552 2180.97817,1361.82677 2166.12759,1428.52316 L2108.12213,1689.39196 C2098.60835,1731.89442 2070.28448,1767.86106 2024.05957,1777.175 C2000.61406,1781.90251 1976.14781,1776.95362 1961.3893,1773.04701 C1859.92334,1746.1886 1786.50109,1767.0382 1674.03238,1803.47112 C1615.40782,1822.46538 1551.58359,1843.5011 1475.81817,1859.9014 C1398.29927,1876.67786 1308.54137,1888.65042 1199.57371,1888.65042 C1090.60605,1888.65042 1000.84815,1876.67786 923.329258,1859.9014 C847.565788,1843.5011 783.739605,1822.46538 725.115046,1803.47112 C612.646329,1767.0382 539.22408,1746.1886 437.758121,1773.04701 C422.999614,1776.95362 398.533367,1781.90251 375.087854,1777.175 C328.864908,1767.86106 300.539076,1731.89442 291.025295,1689.39196 L233.021797,1428.52316 C218.171208,1361.82677 251.35189,1326.46552 280.535843,1309.16596 C264.88199,1289.38216 201.882582,1250.0281 185.029711,1222.29394 C169.654062,1196.98328 163.030073,1167.48782 171.813079,1136.94224 C178.609476,1113.31452 199.331728,1084.88289 208.387061,1076.40748 C4.23653196,1041.84753 -23.144975,839.879531 31.9471813,720.943559 C51.5311498,678.666403 103.623801,614.389608 100.949519,584.322065 C56.0666527,560.157532 41.1847175,500.84726 38.8121498,494.219352 C3.25890088,467.733191 -16.1604965,413.446258 17.2729192,370.963387 C87.3606432,281.902959 185.157057,300.095909 205.072127,304.321862 C195.572061,247.231341 208.586897,211.987643 242.073211,210.232217 C238.566278,111.656049 290.970438,80.8929965 324.015936,89.2253912 C345.531657,30.5440162 411.22102,-12.6931388 456.003969,27.8912858 C556.339481,-22.5909188 627.541979,2.11238844 638.066696,56.8146678 C667.605261,66.9005292 680.1832,83.8807468 687.394944,104.068143" id="Fill-1" fill="#FEFEFE" sketch:type="MSShapeGroup" mask="url(#mask-2)"></path>
                </g>
                <path d="M941.161523,416.078025 L934.351412,411.95395 L936.067654,404.181881 C940.610994,383.602649 937.803488,365.268637 906.105906,364.238108 L898.265266,363.983415 L874.237876,288.551046 L880.857947,283.852931 C902.614647,268.416548 897.573675,249.016742 868.076253,238.401902 L860.729326,235.758968 L860.729326,227.949674 C860.729326,215.405041 868.303518,208.436236 873.67755,203.544163 C874.982365,202.356899 876.375342,201.116738 877.81534,199.762944 C879.108399,198.548252 880.446519,197.231683 881.794435,195.754461 C884.370758,192.933241 886.960794,189.541899 889.358831,185.084764 L891.288624,181.495545 L895.079638,180.006568 C989.378915,142.960423 1092.07916,122.612374 1199.57156,122.612374 C1307.06396,122.612374 1409.76812,142.960423 1504.06935,180.008527 L1507.86037,181.497504 L1509.79016,185.084764 C1512.18624,189.543858 1514.77823,192.933241 1517.3526,195.754461 C1518.70247,197.231683 1520.04059,198.548252 1521.33169,199.762944 C1522.77365,201.116738 1524.16663,202.356899 1525.47144,203.544163 C1530.84547,208.436236 1538.41771,215.405041 1538.41771,227.949674 L1538.41771,235.758968 L1531.07078,238.401902 C1501.57336,249.016742 1496.53239,268.416548 1518.28909,283.852931 L1524.90916,288.549087 L1500.88177,363.983415 L1493.03917,364.238108 C1461.34354,365.268637 1458.538,383.602649 1463.07938,404.181881 L1464.79562,411.95395 L1457.98551,416.078025 C1448.48544,421.832138 1440.13933,444.705571 1445.65639,461.380156 L1453.87907,486.218647 L1430.29837,474.880869 C1360.49277,441.316188 1282.24506,422.506096 1199.57352,422.506096 C1116.90198,422.506096 1038.65622,441.314229 968.852581,474.876951 L945.273843,486.212769 L953.490646,461.376238 C959.007699,444.703611 950.66159,421.832138 941.161523,416.078025 M944.006254,1762.15064 C871.790859,1746.52421 810.99161,1726.33682 755.113823,1708.23791 C645.728856,1672.80809 549.958234,1643.23621 424.129865,1672.908 C398.452845,1679.27926 389.558165,1679.10293 383.841277,1653.05563 L331.668299,1418.21454 C326.905532,1396.35988 333.319889,1391.79303 354.404589,1387.0714 C509.808748,1353.71439 637.94895,1376.66228 766.886538,1409.53733 C834.425369,1426.75656 901.474404,1446.45416 971.701229,1461.86312 C1043.17213,1477.54244 1117.88744,1488.79206 1199.57352,1488.79206 C1281.26155,1488.79206 1355.9749,1477.54244 1427.4458,1461.86312 C1497.67263,1446.45416 1564.72166,1426.75656 1632.26245,1409.53733 C1761.19808,1376.66228 1889.33828,1353.71439 2044.74244,1387.0714 C2065.8291,1391.79303 2072.24346,1396.35988 2067.47873,1418.21454 L2015.30771,1653.05563 C2009.57907,1679.14603 2000.6648,1679.28122 1974.88786,1672.88058 C1849.12415,1643.25581 1753.38291,1672.81788 1644.03517,1708.23791 C1588.15738,1726.33682 1527.35813,1746.52421 1455.14274,1762.15064 C1383.42889,1777.67126 1300.38315,1788.68774 1199.57352,1788.68774 C1098.76388,1788.68774 1015.7201,1777.67126 944.006254,1762.15064" id="Fill-4" fill="#F3E500" sketch:type="MSShapeGroup"></path>
                <path d="M542.834654,89.3110074 C538.297192,99.8886231 542.192042,109.159465 550.091458,115.033089 C553.580759,117.627044 557.655854,119.50002 561.231359,120.924344 C564.67168,122.293812 568.384327,123.522218 571.932403,124.740828 C577.849128,126.774457 587.26299,128.020496 595.769752,130.673227 C603.835698,133.188814 606.035858,135.73379 606.547204,137.481379 C606.651041,137.835991 606.519776,138.317949 606.496266,138.870438 C606.421817,140.465211 606.180838,142.269616 605.867369,144.126919 C605.144431,148.421443 604.012025,152.964783 603.099047,156.336532 L599.774317,168.620594 L612.395358,170.254551 C622.449873,171.555447 628.123659,172.797567 629.115005,173.185485 C631.328879,174.051443 633.342916,175.358216 635.411811,177.129315 C636.532462,178.087354 637.580624,179.104169 638.589602,180.128821 C639.757273,181.316084 640.875965,182.522939 641.977025,183.698447 C644.230082,186.098444 647.086568,189.135173 650.395624,191.646843 C653.865332,194.278022 658.200999,196.636876 663.62401,197.483242 C668.161473,198.190506 687.010748,199.601116 692.469025,200.23589 C700.076523,201.119481 708.430469,202.939559 717.041067,205.300372 L726.47844,207.884531 L730.236148,198.852709 C741.981436,170.605244 755.756434,159.240038 765.309398,155.151228 C770.170125,153.070578 774.074772,152.790416 776.515911,153.076456 C777.756072,153.223394 778.449622,153.493761 778.667091,153.599557 C778.369295,153.11368 778.044071,152.429926 777.291746,152.06356 L795.994083,152.435804 C797.702489,149.882992 807.823615,145.182918 822.204,144.843979 C828.618357,144.693122 834.029614,145.527733 837.516955,146.906996 C839.223402,147.580955 839.999237,148.202015 840.253931,148.462586 C879.878357,145.970508 898.755061,165.860109 890.459891,182.930449 C888.018752,187.951828 885.34447,191.7017 882.69174,194.750185 C881.308558,196.33908 879.927336,197.741853 878.589216,199.027076 C877.110035,200.449441 875.671996,201.736623 874.322121,202.959151 C872.725389,204.405026 871.234452,205.778412 869.888495,207.151798 C868.411273,208.660367 866.871357,210.400119 865.492094,212.421993 C862.557242,216.730231 860.729326,221.784917 860.729326,227.950458 L860.729326,235.759752 L868.076253,238.402686 C897.773512,249.090016 903.024115,268.791535 879.766683,284.611918 C871.271677,290.389541 863.858138,295.998675 857.063699,300.933851 C850.375057,305.790659 844.883474,309.538572 839.773931,312.140363 C830.563824,316.832601 823.011183,317.759293 812.184751,312.252037 L805.511782,308.860695 L799.861506,313.768442 C772.86008,337.229629 760.005896,364.26632 753.615049,393.007499 L748.536854,415.849584 L769.445228,405.346418 C774.206037,402.952299 778.863009,400.720792 783.439655,398.71851 C948.097022,326.699034 940.315157,384.943512 936.067654,404.180705 L934.351412,411.954734 L941.161523,416.078809 C948.367389,420.441904 955.812275,435.621634 955.17946,451.498833 C954.607379,465.832198 948.081349,475.347938 932.451007,475.347938 L922.343594,475.347938 L921.393392,485.410289 C919.878945,501.410916 889.966177,513.628366 862.598384,494.730111 L857.733739,491.370116 L852.23236,493.527174 C837.09965,499.459572 819.269148,504.82185 805.245334,504.643564 L800.427709,504.582829 L797.089265,508.058416 C785.628059,520.003539 774.117874,537.542123 762.509729,556.573603 C750.905503,575.603123 738.6234,597.138436 725.408727,618.087953 C698.671791,660.488538 670.285224,696.651092 638.495561,707.790993 L634.085446,709.334827 L632.106673,713.568616 C621.721057,735.783764 606.962551,752.603329 593.068042,763.184863 C562.187439,786.702866 499.828682,848.754031 499.828682,910.863972 L499.828682,921.972526 L510.937236,921.972526 C596.745424,921.972526 605.352104,974.639217 605.352104,1005.27492 C605.352104,1043.41429 577.994107,1069.44788 546.537505,1089.89781 C530.695571,1100.19722 514.84776,1108.45908 502.96533,1115.58854 C496.899707,1119.2287 491.129921,1122.98837 486.798172,1126.87146 C482.909199,1130.35488 477.613534,1136.15798 477.613534,1144.11813 C477.613534,1178.86811 582.425774,1244.59666 604.589983,1244.59666 C637.096706,1244.59666 652.707457,1263.62618 657.691612,1269.99744 C680.261371,1298.84049 676.505622,1352.00873 633.11957,1352.00873 L628.968066,1352.00873 L624.540318,1355.9506 C623.936891,1356.47762 623.021953,1357.2084 621.789629,1358.04105 C619.166286,1359.81019 614.922701,1362.16121 608.908017,1363.9519 C597.04322,1367.47842 577.308394,1369.11826 548.134237,1358.25852 L542.881674,1356.30326 L538.187477,1359.36546 C523.90897,1368.68332 488.563394,1365.94242 479.715735,1351.084 L474.760967,1342.76336 L465.842777,1346.53674 C451.321331,1352.68073 431.488547,1355.00432 417.932977,1355.50391 C414.183105,1355.47648 412.333639,1354.56742 409.157807,1349.17968 C404.722223,1341.65838 400.778392,1330.62036 393.772363,1316.63769 C378.657285,1286.4761 350.807534,1244.42817 281.907073,1194.95103 C254.846872,1175.51987 253.561649,1166.96413 255.467932,1160.33231 C256.894216,1155.37362 260.763597,1149.1493 268.130116,1140.11944 C275.529941,1131.04648 285.200456,1120.56878 296.342315,1107.69108 C324.548637,1075.09228 327.238592,1042.48368 318.771014,1014.6163 L317.840403,1011.5541 L315.420815,1009.45581 C310.499354,1005.18676 305.938382,1001.16652 302.192428,997.422527 C299.672922,994.901061 297.31211,992.330617 295.108032,989.711192 L291.005508,984.842629 L284.732212,985.918219 C247.198231,992.348249 211.737064,987.375849 195.955865,982.370143 C97.3699006,951.113377 70.1255362,843.750284 110.580655,756.49818 C117.960888,740.577879 127.63924,724.085497 136.870898,709.236868 C146.35725,693.976811 155.398868,680.415363 161.20588,670.848685 C178.225281,642.810852 189.760936,611.362086 188.015306,565.0451 C187.445184,549.945695 185.337106,534.597475 181.16797,519.829172 L178.885525,511.739716 L170.478681,511.739716 C142.237094,511.739716 133.569679,498.562268 126.792874,480.798378 C122.860798,470.495048 119.943579,459.580453 115.721545,450.002019 C111.111593,439.543914 104.323032,428.848747 92.0840315,422.324676 C89.6350559,421.017903 89.0590568,419.715048 88.9297509,419.285987 C88.7984858,418.845171 88.8357102,418.423948 89.1609342,417.936112 C99.7307131,402.109851 135.944206,386.185632 150.489162,386.185632 C180.004217,386.185632 200.367939,388.475914 219.383745,407.493679 C237.396451,425.504426 241.871219,445.227496 241.863383,463.312692 C241.857505,479.569972 235.237434,493.77599 222.747658,502.178915 L216.529219,506.363725 L218.08089,513.694978 C227.54765,558.472049 234.459639,629.40418 193.077828,691.911834 C161.697634,739.310289 115.527586,809.35687 139.217997,874.12346 C154.795441,916.710167 198.348024,946.342772 260.808658,940.484822 L271.386274,939.493477 L270.867091,928.882555 C269.054849,891.816819 286.475882,850.576069 319.394033,812.622824 C351.8459,775.206394 383.892215,702.94398 388.784289,649.013618 L389.916695,636.537556 L377.393614,636.905882 C362.519515,637.344738 345.504032,628.463773 336.881679,619.453502 C335.858986,618.383789 335.053763,617.412036 334.434662,616.561751 C335.216375,616.546078 336.20968,616.538241 337.479229,616.538241 C350.023862,616.538241 358.113318,608.205847 362.754617,599.871493 C367.378283,591.568486 369.886034,581.245563 371.159501,571.841497 C372.468234,562.167063 372.587744,552.49263 371.937296,545.237785 C371.610113,541.593709 371.04195,537.943755 370.081952,534.92074 C367.348895,526.319937 361.052089,524.16092 357.304177,524.16092 C353.182061,524.16092 349.747617,525.489245 347.25358,526.764671 C345.214073,527.806955 343.170648,529.178382 341.095876,530.604665 C339.82045,531.480419 338.52935,532.401234 337.150086,533.108498 C336.168537,533.613966 335.700293,533.688415 335.551395,533.70213 C323.043987,534.773801 313.587022,524.021819 308.743928,506.167807 C307.109971,500.143326 306.375279,494.369621 306.292993,489.834119 C313.71241,492.047992 322.064396,492.976644 329.234997,491.556238 C344.469585,488.541059 352.067287,475.128509 343.850484,457.736864 C342.332119,454.525767 341.460284,452.27075 340.915631,450.450672 C340.363143,448.611001 340.137837,447.214105 339.834164,445.752557 C338.041514,437.09102 334.127071,431.963844 319.337217,439.438118 C318.316484,439.955342 315.019183,441.444319 307.102135,440.110117 C303.728426,439.539995 300.211697,436.959755 297.141661,430.13397 C294.08338,423.337572 292.41024,414.135301 292.071302,404.756704 C291.828363,398.040633 292.292689,391.865296 293.115545,387.12408 C312.03927,397.296145 341.044937,397.317696 338.517594,362.97522 C338.188452,358.510248 337.961187,355.626334 337.925922,353.028461 C337.896534,350.732301 338.041514,348.692794 338.402003,345.767738 C339.273838,338.716647 336.421271,332.666698 326.251165,332.073066 C324.570188,331.975107 322.142764,332.167107 319.325462,332.506045 C317.56024,332.717636 315.548162,332.980167 313.502778,333.070289 C311.647434,333.152575 310.36417,333.052656 309.541315,332.868493 C306.398789,332.165148 296.724356,322.994224 294.759297,316.238969 C291.377752,304.609273 294.091217,288.481299 299.118474,276.208993 C299.855126,274.404587 300.589819,272.815692 301.295124,271.438388 C307.462624,277.862541 315.642203,281.718208 323.006762,282.928982 C332.516625,284.48849 350.337331,281.345964 349.614393,262.555464 C349.330312,255.147802 350.368677,249.626831 351.3659,246.135572 C352.175042,243.308474 360.577967,226.961072 360.577967,226.961072 L344.602809,225.160585 C343.184362,224.999932 334.609029,223.644179 333.051481,222.44712 C328.564957,218.997003 326.114023,207.951143 327.019164,198.261036 C328.05557,187.175993 336.386006,172.000181 344.882972,163.080032 C347.232029,172.938628 354.947282,180.696983 361.967026,184.72114 C368.722281,188.59444 385.445846,193.803901 393.331547,178.961149 C395.854972,174.210136 398.709498,170.816836 400.8548,168.661737 C401.871615,167.641004 402.74541,166.88476 403.364511,166.387128 C403.60549,147.247894 395.200605,141.278271 392.980854,135.177383 C390.200777,127.528742 397.202888,116.510311 415.842531,107.599958 C421.714195,104.792452 427.337043,102.988047 431.711894,102.135803 C430.773446,106.898571 430.514834,111.42036 431.394506,115.509169 C433.163646,123.745564 439.029433,128.406455 445.831708,129.92286 C451.256678,131.131675 457.322301,130.389145 462.13013,129.625065 C466.981061,128.851189 472.50595,127.663925 478.354104,126.701968 C482.440955,126.029969 486.441602,125.898704 489.419556,125.926132 C492.305429,125.951602 515.120086,128.112578 515.120086,128.112578 C515.120086,128.112578 503.733329,107.347223 502.796841,104.428044 C502.312923,102.917516 502.071944,101.68911 502.026883,100.85254 C502.356025,100.572377 502.260025,101.142499 503.206309,100.5665 C505.349653,99.2636445 508.090546,97.9745037 511.162541,96.7382608 C517.894286,94.0287141 526.124803,91.6463506 533.704872,90.3278221 C537.421438,89.6793334 540.469923,89.3874155 542.834654,89.3110074 M2064.538,616.653833 C2063.90127,617.566811 2063.13523,618.544442 2062.26535,619.453502 C2053.64496,628.463773 2036.62948,637.344738 2021.75538,636.905882 L2009.2323,636.537556 L2010.3647,649.013618 C2015.25482,702.94398 2047.30113,775.206394 2079.75496,812.622824 C2112.67115,850.576069 2130.09218,891.816819 2128.27994,928.882555 L2127.76272,939.493477 L2138.33837,940.484822 C2200.79901,946.342772 2244.35159,916.710167 2259.93099,874.12346 C2283.62141,809.35687 2237.4494,739.310289 2206.07116,691.911834 C2164.68739,629.40418 2171.60134,558.472049 2181.07006,513.694978 L2182.61977,506.363725 L2176.40133,502.178915 C2163.91156,493.777949 2157.29149,479.569972 2157.28365,463.312692 C2157.27581,445.227496 2161.75254,425.504426 2179.76525,407.493679 C2198.78105,388.475914 2219.14282,386.185632 2248.65983,386.185632 C2263.20283,386.185632 2299.41632,402.109851 2309.9861,417.936112 C2310.31132,418.423948 2310.35051,418.845171 2310.21924,419.285987 C2310.08798,419.715048 2309.51198,421.017903 2307.063,422.324676 C2294.82596,428.848747 2288.03544,439.543914 2283.42549,450.002019 C2279.20345,459.580453 2276.28623,470.495048 2272.35416,480.798378 C2265.57735,498.562268 2256.9119,511.739716 2228.66835,511.739716 L2220.26347,511.739716 L2217.97906,519.829172 C2213.81189,534.597475 2211.70185,549.945695 2211.13369,565.0451 C2209.38806,611.362086 2220.92175,642.810852 2237.94311,670.848685 C2243.75208,680.415363 2252.79174,693.976811 2262.27809,709.236868 C2271.50975,724.085497 2281.18614,740.577879 2288.56834,756.49818 C2329.0215,843.750284 2301.77713,951.113377 2203.19313,982.370143 C2187.41193,987.375849 2151.9488,992.348249 2114.41482,985.918219 L2108.14152,984.842629 L2104.04096,989.711192 C2101.83688,992.330617 2099.47411,994.901061 2096.9546,997.422527 C2093.21061,1001.16652 2088.64964,1005.18676 2083.72622,1009.45581 L2081.30859,1011.5541 L2080.37798,1014.6163 C2071.9104,1042.48368 2074.59839,1075.09228 2102.80472,1107.69108 C2113.94854,1120.56878 2123.61709,1131.04648 2131.01888,1140.11944 C2138.38344,1149.1493 2142.25282,1155.37362 2143.68106,1160.33231 C2145.58734,1166.96413 2144.30016,1175.51987 2117.23996,1194.95103 C2048.34342,1244.42817 2020.49171,1286.4761 2005.37663,1316.63769 C1998.36864,1330.62232 1994.42481,1341.65838 1989.99118,1349.17968 C1986.81339,1354.56742 1984.96393,1355.47648 1981.21406,1355.50391 C1967.66044,1355.00432 1947.82766,1352.68073 1933.30621,1346.53674 L1924.38606,1342.76336 L1919.43326,1351.084 C1910.58364,1365.94242 1875.23806,1368.68332 1860.95955,1359.36546 L1856.26536,1356.30326 L1851.01475,1358.25852 C1821.8406,1369.11826 1802.10577,1367.47842 1790.24097,1363.9519 C1784.22433,1362.16121 1779.98075,1359.81019 1777.3574,1358.04105 C1776.12508,1357.2084 1775.21014,1356.47762 1774.60867,1355.9506 C1722.64337,1352.00873 1718.88762,1298.84049 1741.45542,1269.99744 C1746.44153,1263.62618 1762.05229,1244.59666 1794.55901,1244.59666 C1816.72322,1244.59666 1921.5335,1178.86811 1921.5335,1144.11813 C1921.5335,1136.15798 1916.23979,1130.35488 1912.34886,1126.87146 C1908.01711,1122.98837 1902.24928,1119.23066 1896.1817,1115.58854 C1884.29927,1108.45908 1868.45146,1100.19722 1852.61149,1089.89781 C1821.15292,1069.44788 1793.79689,1043.41429 1793.79689,1005.27492 C1793.79689,974.639217 1802.40161,921.972526 1888.2098,921.972526 L1899.31835,921.972526 L1899.31835,910.863972 C1899.31835,848.754031 1836.95959,786.702866 1806.07899,763.184863 C1792.18644,752.603329 1777.42793,735.783764 1767.04232,713.568616 L1765.06355,709.334827 L1760.65343,707.790993 C1728.86377,696.651092 1700.4772,660.488538 1673.73635,618.087953 C1660.52559,597.138436 1648.24349,575.603123 1636.6373,556.573603 C1625.02916,537.542123 1613.52093,520.003539 1602.05777,508.058416 L1598.71932,504.582829 L1593.89974,504.643564 C1579.87984,504.82185 1562.04934,499.459572 1546.91663,493.527174 L1541.41329,491.370116 L1536.54865,494.730111 C1509.18281,513.628366 1479.27005,501.410916 1477.7556,485.410289 L1476.80344,475.347938 L1466.69603,475.347938 C1451.06764,475.347938 1444.53965,465.832198 1443.96953,451.498833 C1443.33672,435.621634 1450.77964,420.441904 1457.98551,416.078809 L1464.79562,411.954734 L1463.07938,404.180705 C1458.83383,384.943512 1451.05001,326.699034 1615.70738,398.71851 C1620.28598,400.720792 1624.941,402.952299 1629.70376,405.346418 L1650.61214,415.849584 L1645.53394,393.007499 C1639.14309,364.26632 1626.28891,337.229629 1599.28357,313.768442 L1593.63525,308.858736 L1586.96228,312.252037 C1576.13781,317.759293 1568.58321,316.832601 1559.3731,312.140363 C1554.26552,309.538572 1548.77393,305.790659 1542.08529,300.933851 C1535.28889,295.998675 1527.87536,290.389541 1519.38231,284.611918 C1496.12488,268.791535 1501.37548,249.090016 1531.07078,238.402686 L1538.41771,235.759752 L1538.41771,227.950458 C1538.41771,221.784917 1536.58979,216.730231 1533.65494,212.421993 C1532.27763,210.400119 1530.73576,208.660367 1529.25854,207.151798 C1527.91454,205.778412 1526.4236,204.405026 1524.82491,202.959151 C1523.477,201.736623 1522.03896,200.449441 1520.55782,199.027076 C1519.2197,197.741853 1517.83847,196.33908 1516.45725,194.750185 C1513.80452,191.703659 1511.12828,187.951828 1508.68714,182.930449 C1500.39393,165.860109 1519.26868,145.970508 1543.39207,156.879225 L1559.00282,148.053117 C1559.25947,147.792546 1559.92559,147.580955 1561.63204,146.906996 C1565.11742,145.527733 1570.53063,144.693122 1576.94499,144.843979 C1591.32538,145.182918 1601.44454,149.882992 1603.15295,152.435804 L1621.85725,152.06356 C1621.10492,152.429926 1620.77774,153.11368 1620.47994,153.599557 C1620.69937,153.493761 1621.39488,153.223394 1622.63112,153.076456 C1625.07422,152.790416 1628.97887,153.070578 1633.83763,155.151228 C1643.3906,159.240038 1657.16364,170.605244 1668.91284,198.852709 L1672.67055,207.884531 L1682.10596,205.300372 C1690.71852,202.939559 1699.07051,201.119481 1706.67997,200.23589 C1712.13628,199.601116 1730.98752,198.190506 1735.52498,197.483242 C1740.94799,196.636876 1745.2817,194.278022 1748.75141,191.646843 C1752.06046,189.135173 1754.91891,186.098444 1757.16805,183.698447 C1758.27303,182.522939 1759.38976,181.316084 1760.55743,180.128821 C1761.56837,179.104169 1762.61457,178.087354 1763.73522,177.129315 C1765.80607,175.358216 1767.82011,174.051443 1770.03399,173.185485 C1771.02533,172.797567 1776.69912,171.555447 1786.75167,170.254551 L1799.37271,168.620594 L1796.04799,156.336532 C1795.13697,152.964783 1794.00456,148.421443 1793.28162,144.128878 C1792.96619,142.269616 1792.72717,140.465211 1792.65468,138.868479 C1792.62726,138.317949 1792.49795,137.835991 1792.59983,137.481379 C1793.11117,135.73379 1795.31133,133.188814 1803.37728,130.673227 C1811.886,128.020496 1821.29986,126.774457 1827.21659,124.740828 C1830.76271,123.522218 1834.47535,122.293812 1837.91567,120.924344 C1841.49118,119.50002 1845.56823,117.627044 1849.05753,115.033089 C1857.04903,109.090894 1860.93996,99.6731132 1856.15173,88.9407223 C1858.35189,89.1581913 1861.37882,89.6185988 1865.44216,90.3278221 C1873.02223,91.6463506 1881.25275,94.0287141 1887.98645,96.7382608 C1891.05845,97.9745037 1893.79738,99.2636445 1895.94072,100.5665 C1896.37958,100.830989 1896.74399,101.06805 1897.03982,101.275723 C1896.92423,102.161272 1896.70088,103.336781 1896.35019,104.428044 C1895.41566,107.347223 1884.02499,128.112578 1884.02499,128.112578 C1884.02499,128.112578 1906.84356,125.951602 1909.72944,125.926132 C1912.70543,125.898704 1916.70608,126.029969 1920.79293,126.701968 C1926.64108,127.663925 1932.16793,128.851189 1937.0169,129.625065 C1941.82473,130.389145 1947.89231,131.131675 1953.31532,129.92286 C1960.1176,128.406455 1965.98339,123.745564 1967.75644,115.509169 C1968.6322,111.42036 1968.37359,106.898571 1967.4371,102.135803 C1971.81195,102.988047 1977.43284,104.792452 1983.3045,107.599958 C2001.9461,116.510311 2008.94821,127.528742 2006.16618,135.177383 C2003.94643,141.278271 1995.5435,147.247894 1995.2026,147.477118 L1982.15642,156.207226 C1982.15642,156.207226 1995.44554,166.12068 1995.78252,166.387128 C1996.40358,166.88476 1997.27542,167.641004 1998.29419,168.661737 C2000.43753,170.816836 2003.29206,174.210136 2005.81744,178.961149 C2013.70119,193.803901 2030.42475,188.59444 2037.18001,184.72114 C2044.20171,180.695024 2051.91696,172.936669 2053.99957,162.803787 C2062.76103,172.000181 2071.09342,187.175993 2072.12787,198.261036 C2073.03301,207.951143 2070.58403,218.997003 2066.09751,222.44712 C2064.53996,223.644179 2055.96267,224.999932 2054.54618,225.160585 L2038.56906,226.961072 C2038.56906,226.961072 2046.97199,243.308474 2047.78113,246.135572 C2048.77835,249.626831 2049.81672,255.147802 2049.53264,262.555464 C2048.81166,281.345964 2066.62845,284.48849 2076.14223,282.928982 C2083.50679,281.718208 2091.68637,277.862541 2097.85191,271.438388 C2098.55525,272.815692 2099.29191,274.404587 2100.03052,276.208993 C2105.05582,288.481299 2107.77124,304.609273 2104.38969,316.238969 C2102.42464,322.994224 2092.7502,332.165148 2089.60768,332.868493 C2088.78482,333.052656 2087.50156,333.152575 2085.64817,333.070289 C2083.60083,332.980167 2081.58679,332.717636 2079.82157,332.506045 C2077.00427,332.167107 2074.57684,331.975107 2072.89783,332.073066 C2062.72576,332.666698 2059.87515,338.716647 2060.74503,345.767738 C2061.10748,348.692794 2061.25246,350.732301 2061.22307,353.028461 C2061.1878,355.626334 2060.95858,358.510248 2060.62944,362.97522 C2058.10209,397.317696 2087.10972,397.296145 2106.03345,387.12408 C2106.8563,391.865296 2107.31867,398.040633 2107.07573,404.756704 C2106.73875,414.135301 2105.06561,423.337572 2102.00733,430.13397 C2098.93729,436.959755 2095.42057,439.539995 2092.0449,440.110117 C2084.12785,441.444319 2080.83251,439.955342 2079.80982,439.438118 C2065.01996,431.963844 2061.10748,437.09102 2059.31287,445.752557 C2059.01115,447.212146 2058.78585,448.611001 2058.23336,450.450672 C2057.68675,452.27075 2056.81687,454.525767 2055.29851,457.736864 C2047.07975,475.128509 2054.67941,488.541059 2069.91399,491.556238 C2077.08264,492.976644 2085.43658,492.047992 2092.856,489.834119 C2092.77371,494.369621 2092.03902,500.143326 2090.4031,506.167807 C2085.56197,524.021819 2076.10305,534.773801 2063.59564,533.70213 C2063.44478,533.688415 2062.98045,533.613966 2061.9989,533.108498 C2060.61964,532.401234 2059.32854,531.480419 2058.05312,530.604665 C2055.97638,529.178382 2053.93492,527.806955 2051.89541,526.764671 C2049.40137,525.489245 2045.96693,524.16092 2041.84481,524.16092 C2038.09494,524.16092 2031.79814,526.319937 2029.069,534.92074 C2028.10704,537.943755 2027.53888,541.593709 2027.2117,545.237785 C2026.55929,552.49263 2026.6788,562.167063 2027.98949,571.841497 C2029.26296,581.245563 2031.77071,591.568486 2036.39437,599.871493 C2041.03371,608.205847 2049.12513,616.538241 2061.66976,616.538241 C2062.79237,616.538241 2063.74062,616.583302 2064.538,616.653833" id="Fill-6" fill="#E32221" sketch:type="MSShapeGroup"></path>
                <path d="M1130.58489,1405.77315 L1130.58489,1253.82891 L1232.06653,1253.82891 C1257.91595,1254.00915 1278.81845,1275.02528 1278.81845,1300.93152 C1278.81845,1320.63304 1266.72247,1337.51922 1249.56005,1344.55464 L1295.1972,1405.77315 L1251.76413,1405.77315 L1208.34477,1347.91071 L1166.75528,1347.91071 L1166.75528,1405.77315 L1130.58489,1405.77315 Z M1242.65785,1300.90214 C1242.65785,1292.93219 1236.25525,1286.48453 1228.31861,1286.40812 L1166.75528,1286.40812 L1166.75528,1315.3315 L1228.32057,1315.3315 C1236.25525,1315.25313 1242.65785,1308.80743 1242.65785,1300.90214 L1242.65785,1300.90214 Z M1268.05863,1065.71035 L1268.05863,1098.27585 L1166.7592,1098.27585 L1166.7592,1123.6061 L1264.43219,1123.59042 L1264.43219,1156.13829 L1166.7592,1156.13829 L1166.7592,1185.09106 L1268.05863,1185.09106 L1268.05863,1217.64088 L1130.58881,1217.64088 L1130.58881,1065.71035 L1268.05863,1065.71035 Z M899.797345,954.105633 C908.396188,962.483089 913.738874,974.189193 913.738874,987.151131 C913.738874,1012.58129 893.112621,1033.24869 867.67854,1033.28983 L761.839689,1033.28983 L761.839689,881.298567 L865.936828,881.302485 C890.369768,881.347546 910.16141,901.180331 910.16141,925.625026 C910.16141,936.467131 906.256763,946.400176 899.797345,954.105633 L899.797345,954.105633 Z M798.023794,1000.71062 L863.18222,1000.71062 C871.16784,1000.71062 877.613544,994.23161 877.613544,986.218561 C877.613544,978.230982 871.171758,971.755891 863.186139,971.755891 L798.023794,971.755891 L798.023794,1000.71062 Z M798.023794,939.206065 L861.313162,939.206065 C868.301559,939.206065 873.985142,933.532279 873.985142,926.539963 C873.985142,919.569199 868.301559,913.87778 861.313162,913.87778 L798.023794,913.873861 L798.023794,939.206065 Z M1027.47714,920.094259 L1000.78722,975.284375 L1054.15138,975.284375 L1027.47714,920.094259 Z M1121.05936,1033.15269 L1082.21664,1033.15269 L1069.98744,1007.82049 L984.964882,1007.82049 L972.721962,1033.15269 L933.892964,1033.15269 L1009.86019,881.222159 L1045.07842,881.222159 L1121.05936,1033.15269 Z M1592.83199,913.787657 L1540.28676,913.787657 L1540.28676,942.724754 L1592.83199,942.724754 C1600.78234,942.677733 1607.20453,936.204601 1607.20453,928.262083 C1607.20453,920.305851 1600.78234,913.836637 1592.83199,913.787657 L1592.83199,913.787657 Z M1567.42925,975.284375 L1540.28676,975.284375 L1540.28676,1033.15269 L1504.11637,1033.15269 L1504.11637,881.222159 L1596.5172,881.222159 C1622.42933,881.304444 1643.41411,902.348002 1643.41411,928.29343 C1643.41411,949.71511 1629.25511,967.759162 1609.66526,973.446663 L1654.24446,1033.15269 L1610.83098,1033.15269 L1567.42925,975.284375 Z M1453.46764,881.222159 L1453.46764,913.787657 L1352.16821,913.787657 L1352.16821,939.115943 L1449.8412,939.10027 L1449.8412,971.650095 L1352.16821,971.650095 L1352.16821,1000.60286 L1453.46764,1000.60286 L1453.46764,1033.15269 L1315.99586,1033.15269 L1315.99586,881.222159 L1453.46764,881.222159 Z M1250.91776,881.222159 L1294.45663,881.222159 L1217.40206,980.14902 L1217.40206,1033.15269 L1181.21795,1033.15269 L1181.21795,980.14902 L1104.17906,881.222159 L1147.70225,881.222159 L1199.31686,950.4067 L1250.91776,881.222159 Z M1199.30707,735.588434 L1172.61715,790.782467 L1225.98131,790.782467 L1199.30707,735.588434 Z M1292.88928,848.648823 L1254.04853,848.648823 L1241.81737,823.316619 L1156.79481,823.316619 L1144.55189,848.648823 L1105.72485,848.648823 L1181.69012,696.718292 L1216.9103,696.718292 L1292.88928,848.648823 Z M1268.54647,588.483364 C1277.14531,596.86082 1282.48995,608.566924 1282.48995,621.530821 C1282.48995,646.959025 1261.86174,667.62838 1236.4257,667.667563 L1130.58881,667.667563 L1130.58881,515.676297 L1234.68791,515.682175 C1259.11889,515.727236 1278.91053,535.56002 1278.91053,560.002757 C1278.91053,570.844862 1275.00588,580.779866 1268.54647,588.483364 L1268.54647,588.483364 Z M1166.77487,635.08835 L1231.93134,635.08835 C1239.91696,635.08835 1246.36267,628.611299 1246.36267,620.596292 C1246.36267,612.610672 1239.92088,606.133621 1231.9333,606.133621 L1166.77487,606.133621 L1166.77487,635.08835 Z M1166.77487,573.583796 L1230.06228,573.583796 C1237.05264,573.583796 1242.73622,567.910009 1242.73622,560.917694 C1242.73622,553.94693 1237.05264,548.25551 1230.06228,548.25551 L1166.77487,548.253551 L1166.77487,573.583796 Z M1664.48901,1552.15528 L1719.30101,1541.50126 C1717.6357,1532.44593 1709.49923,1514.66441 1687.93453,1518.85705 C1668.47203,1522.63827 1663.72297,1540.6353 1664.48901,1552.15528 L1664.48901,1552.15528 Z M1758.03597,1560.9187 L1669.74941,1577.81467 C1674.53373,1596.1624 1694.25092,1601.77153 1714.62052,1597.81399 C1729.58083,1594.9046 1740.56007,1590.67081 1750.9594,1584.65025 L1761.14518,1608.88727 C1749.20986,1616.74751 1733.70882,1623.0639 1714.87914,1626.72365 C1670.71333,1635.30682 1639.88171,1614.54147 1632.21151,1575.08161 C1626.01267,1543.1842 1639.5075,1502.58998 1685.2289,1493.70313 C1729.52401,1485.09449 1750.98879,1517.33085 1756.5607,1545.98778 C1757.7558,1552.14157 1758.14372,1557.80948 1758.03597,1560.9187 L1758.03597,1560.9187 Z M1529.82866,1674.53941 L1529.2409,1646.26844 C1538.04938,1648.72917 1554.95123,1649.45211 1566.85521,1646.03726 C1580.27756,1642.18942 1584.45649,1635.7398 1582.44833,1628.73377 C1580.32262,1621.32415 1574.65471,1619.17689 1557.74306,1618.85167 C1529.00188,1618.5382 1514.17285,1607.61381 1509.94689,1592.27342 C1503.35817,1569.29615 1518.08925,1546.03284 1549.55565,1537.00886 C1564.60411,1532.69474 1579.07658,1532.42634 1587.97518,1534.27776 L1588.48848,1561.38106 C1582.03102,1560.0018 1569.22386,1558.78123 1557.62159,1562.10792 C1547.08904,1565.12702 1542.23223,1571.24162 1544.25998,1578.3123 C1546.2701,1585.31833 1553.18209,1587.05808 1570.93227,1587.53612 C1597.55557,1588.14935 1611.61661,1596.86966 1617.23554,1615.85412 C1623.71651,1638.46698 1610.75653,1661.18564 1574.22173,1671.66334 C1557.31008,1676.51035 1541.47991,1676.90806 1529.82866,1674.53941 L1529.82866,1674.53941 Z M1470.7143,1568.62807 L1487.75134,1656.27397 C1490.94284,1672.68603 1493.99133,1685.92813 1496.58724,1696.13938 L1464.00607,1702.47341 L1458.4949,1683.18136 L1457.64657,1683.34593 C1454.18274,1692.74804 1444.33394,1709.44613 1419.51896,1714.27159 C1394.58055,1719.11861 1369.72639,1708.67813 1361.63105,1667.02987 L1347.17034,1592.64175 L1384.62987,1585.35948 L1397.83279,1653.29014 C1401.77858,1673.58333 1411.09252,1684.60764 1427.47911,1681.42201 C1440.16088,1678.95737 1446.41067,1668.77746 1448.07793,1660.36866 C1448.62259,1657.67479 1448.54814,1654.57928 1447.91532,1651.32312 L1433.25673,1575.91035 L1470.7143,1568.62807 Z M1231.96857,1540.59024 L1236.00056,1656.08197 L1236.5315,1656.06434 C1239.54864,1650.99006 1243.08692,1645.41032 1246.39009,1640.61228 L1275.75233,1599.13056 L1322.22409,1597.50835 L1273.70499,1651.84035 L1334.39256,1727.2688 L1286.89027,1728.92626 L1248.15923,1674.94105 L1237.13884,1688.68862 L1238.60431,1730.61312 L1200.48649,1731.9434 L1193.85075,1541.92052 L1231.96857,1540.59024 Z M1073.34156,1727.41574 L1081.1724,1640.9571 C1082.87493,1621.50636 1083.6586,1609.07731 1083.88391,1597.7317 L1116.56108,1600.59014 L1115.65006,1625.98896 L1116.62181,1626.07321 C1125.11094,1606.99667 1142.3243,1599.74378 1156.15612,1600.95455 C1159.70615,1601.26214 1161.61439,1601.52271 1164.57276,1602.46704 L1161.47725,1637.85376 C1158.09571,1636.87221 1154.86502,1636.09245 1150.30404,1635.69082 C1133.79011,1634.24691 1122.44842,1642.56363 1118.57707,1655.9272 C1117.87765,1658.53879 1117.4094,1661.55201 1117.14491,1664.5711 L1111.35749,1730.74047 L1073.34156,1727.41574 Z M952.548281,1623.52431 L1007.36027,1634.17834 C1009.20582,1625.16023 1008.32419,1605.62524 986.759491,1601.43063 C967.295032,1597.64941 956.151214,1612.55486 952.548281,1623.52431 L952.548281,1623.52431 Z M1035.99958,1666.6929 L947.810982,1649.28754 C945.375721,1668.08979 961.556593,1680.67753 981.924233,1684.63703 C996.886495,1687.54445 1008.65137,1687.73254 1020.54948,1686.04568 L1020.91388,1712.33397 C1006.90379,1715.14931 990.164547,1715.20221 971.334863,1711.5405 C927.169056,1702.95733 906.362559,1672.14921 914.030792,1632.68936 C920.231598,1600.79194 947.950084,1568.21077 993.67148,1577.09565 C1037.96855,1585.70821 1045.79548,1623.63794 1040.22357,1652.29684 C1039.02847,1658.45062 1037.26521,1663.85012 1035.99958,1666.6929 L1035.99958,1666.6929 Z M785.737773,1516.32775 L824.694119,1530.50634 L822.44302,1597.09105 C822.092327,1608.9147 821.085308,1619.28856 819.804004,1629.49198 L820.622942,1629.79173 C826.353545,1620.85983 832.187984,1612.61168 839.29981,1603.22524 L879.645214,1550.50761 L917.6925,1564.35314 L824.474691,1668.88326 L788.449279,1655.77242 L785.737773,1516.32775 Z M663.298787,1536.67188 L717.70523,1549.23415 C719.864247,1540.28265 719.666369,1520.73003 698.262322,1515.78702 C678.940884,1511.32596 667.28376,1525.83369 663.298787,1536.67188 L663.298787,1536.67188 Z M745.192532,1582.72634 L657.666143,1562.25486 C654.576515,1580.95916 670.306775,1594.10526 690.523559,1598.77203 C705.376107,1602.20059 717.127271,1602.79814 729.078273,1601.52859 L728.523825,1627.81296 C714.423602,1630.14046 697.692201,1629.60561 679.003578,1625.29149 C635.162995,1615.16841 615.443843,1583.65695 624.48742,1544.48901 C631.797123,1512.82669 660.634301,1481.23099 706.018718,1491.70673 C749.986647,1501.86116 756.485249,1540.04167 749.918076,1568.48897 C748.507466,1574.59574 746.558081,1579.93059 745.192532,1582.72634 L745.192532,1582.72634 Z M485.654011,1610.15486 L479.386592,1430.6763 L517.522041,1429.34405 L522.674686,1576.90561 L600.281745,1574.19606 L601.396519,1606.11503 L485.654011,1610.15486 Z M1788.41502,1608.18197 L1788.41502,1518.81395 C1788.41502,1502.88189 1787.94677,1489.45955 1787.34922,1478.07671 L1820.53774,1478.07671 L1822.32451,1497.48043 L1823.19047,1497.48043 C1828.4685,1488.58967 1842.5746,1474.98708 1865.8673,1474.98708 C1891.01534,1474.98708 1914.77433,1490.90738 1914.77433,1532.4714 L1914.77433,1608.18197 L1876.61537,1608.18197 L1876.61537,1537.34192 C1876.61537,1518.58864 1869.50158,1505.65413 1852.43908,1505.65413 C1839.30669,1505.65413 1831.19568,1514.85053 1827.99242,1523.41215 C1826.94426,1525.99239 1826.57398,1529.83238 1826.57398,1533.25899 L1826.57398,1608.18197 L1788.41502,1608.18197 Z M1800.50316,209.671891 C1795.34856,209.671891 1791.06579,212.506826 1787.28849,215.459311 C1796.66709,218.529347 1807.09189,221.77375 1811.36094,222.761177 C1808.44176,215.588617 1801.64341,209.671891 1800.50316,209.671891 L1800.50316,209.671891 Z M1766.04118,220.901914 C1766.04118,220.901914 1780.43332,197.583748 1801.8452,197.583748 C1810.54592,197.583748 1831.77168,222.641666 1821.69562,231.836101 C1813.31033,239.486701 1766.04118,220.901914 1766.04118,220.901914 L1766.04118,220.901914 Z M633.109774,220.901914 C633.109774,220.901914 585.838666,239.486701 577.451414,231.836101 C567.375349,222.641666 588.599152,197.583748 597.301831,197.583748 C618.713715,197.583748 633.109774,220.901914 633.109774,220.901914 L633.109774,220.901914 Z M598.64387,209.671891 C597.503627,209.671891 590.70723,215.588617 587.786092,222.761177 C592.055146,221.77375 602.479946,218.529347 611.860502,215.459311 C608.081243,212.506826 603.800433,209.671891 598.64387,209.671891 L598.64387,209.671891 Z M1009.33905,381.096269 L973.37437,263.465111 L972.925717,263.602254 L949.180449,285.470627 L936.43598,263.13401 L969.23658,233.566057 L995.640456,225.492274 L1040.31761,371.623631 L1009.33905,381.096269 Z M1063.84149,366.259395 L1060.21505,340.455028 C1064.66043,340.406049 1068.92948,339.641968 1076.25878,338.186297 C1088.13337,335.850954 1099.48682,330.663044 1107.34117,323.133913 C1116.87651,314.376376 1122.18589,302.999415 1123.1498,290.335272 L1122.57184,290.186374 C1116.15749,299.259339 1105.83261,305.176064 1090.94283,307.270428 C1063.74549,311.09279 1039.46732,295.654447 1035.40594,266.768289 C1031.19762,236.816338 1052.36853,208.643322 1086.15068,203.896227 C1125.34213,198.387012 1148.83466,225.118071 1153.89718,261.135645 C1158.33864,292.733309 1151.35025,316.989923 1136.73868,334.408997 C1123.80809,349.620075 1104.48861,359.613854 1080.95101,363.767317 C1074.62482,365.203396 1067.9832,366.038007 1063.84149,366.259395 L1063.84149,366.259395 Z M1088.45467,228.589739 C1074.33486,230.574388 1065.97504,243.945796 1068.28883,260.163892 C1070.24605,273.974155 1080.37893,284.359771 1096.34625,282.11455 C1107.83097,280.502145 1115.04271,274.268032 1118.23814,267.297268 C1119.06491,265.242088 1119.39209,262.900867 1118.94344,259.709362 C1116.66491,242.441145 1107.31179,225.938967 1088.45467,228.589739 L1088.45467,228.589739 Z M1229.80955,354.106598 C1190.79247,352.061214 1173.31658,317.626657 1175.42662,272.342158 C1177.82661,226.552191 1199.90658,194.059182 1239.18619,196.116321 C1279.42188,198.2244 1295.73793,233.268262 1293.42806,277.349823 C1290.98888,323.917585 1270.16475,356.220554 1229.80955,354.106598 L1229.80955,354.106598 Z M1231.19469,329.225005 C1247.74977,330.090963 1257.68869,311.657034 1259.55187,276.097907 C1261.37978,241.253881 1253.70959,221.979463 1237.07419,221.107628 C1221.82393,220.308282 1210.66836,238.236743 1208.84044,273.439299 C1206.65791,309.4412 1215.83276,328.419782 1231.19469,329.225005 L1231.19469,329.225005 Z M1397.75442,381.586064 L1366.79349,373.290894 L1376.50711,337.038217 L1307.30689,318.496533 L1312.90819,297.597954 L1396.81597,223.133421 L1437.3044,233.983363 L1413.93333,321.206079 L1432.83551,326.270561 L1426.37217,350.397869 L1407.46804,345.333388 L1397.75442,381.586064 Z M1344.71353,302.658517 L1382.97436,312.910909 L1392.80357,276.225254 C1395.135,267.526492 1397.87197,258.751323 1400.84797,249.541215 L1400.03687,249.255175 C1392.57435,257.522917 1386.25599,264.799313 1378.92866,272.299056 L1344.97802,302.243171 L1344.71353,302.658517 Z M897.601104,155.230183 C991.496789,119.788607 1093.26838,100.396639 1199.57156,100.396639 C1305.87473,100.396639 1407.64828,119.788607 1501.54593,155.230183 C1512.3606,143.698446 1533.67257,140.293391 1547.96871,146.756727 C1550.19042,127.866309 1602.23997,131.098957 1612.38461,146.259095 C1617.19831,138.404741 1654.17197,134.482461 1679.16915,194.586201 C1688.35967,192.066695 1697.27786,190.144739 1705.39866,189.202373 C1710.77465,188.577395 1729.34377,187.204009 1733.81266,186.506541 C1746.29264,184.561075 1751.28463,168.587876 1765.98828,162.83964 C1768.48623,161.863968 1775.59218,160.498419 1785.32539,159.238666 C1783.34466,151.91525 1780.43724,139.490127 1781.93993,134.359033 C1786.41665,119.067629 1811.92518,118.250651 1823.60582,114.23629 C1837.12612,109.589114 1853.21883,104.918427 1844.79436,91.1865309 C1828.93283,65.3292664 1900.04717,84.0825424 1907.03948,95.6417074 C1911.00486,102.197125 1903.84602,115.078737 1903.84602,115.078737 C1903.84602,115.078737 1913.01694,114.1638 1922.59733,115.74094 C1945.90962,119.575057 1964.07123,127.02582 1954.64757,97.0973786 C1948.4977,77.5643488 2029.34132,103.95451 2016.60665,138.974862 C2012.98021,148.947091 2001.3799,156.709364 2001.3799,156.709364 C2001.3799,156.709364 2009.38315,161.995233 2015.62706,173.750317 C2021.29693,184.420014 2043.43371,172.063462 2043.43371,157.473445 C2043.43371,127.654717 2080.5112,168.558488 2083.1894,197.231095 C2084.12589,207.271895 2082.36263,223.954317 2072.86844,231.252265 C2068.2624,234.792504 2055.79026,236.199196 2055.79026,236.199196 C2055.79026,236.199196 2061.30144,245.626772 2060.63336,262.983153 C2060.0554,278.025741 2086.56507,273.762564 2094.23918,257.381856 C2100.60652,243.79102 2123.7895,289.298865 2115.05547,319.34094 C2112.26756,328.925251 2100.09713,341.902862 2092.0351,343.709227 C2083.36181,345.650775 2071.35987,341.070211 2071.76934,344.406695 C2072.64313,351.4715 2072.41195,354.263332 2071.7086,363.790827 C2070.13734,385.120426 2091.38269,388.094462 2107.65369,372.471956 C2120.04355,360.577771 2127.91553,445.328002 2093.89045,451.064483 C2073.77358,454.455824 2070.99546,444.128984 2070.1922,448.006202 C2069.46534,451.511176 2069.02061,454.698763 2065.34127,462.484546 C2054.62259,485.165979 2083.21879,483.790634 2097.70497,475.926484 C2110.71197,468.861679 2105.50447,548.443592 2062.64739,544.770128 C2054.49916,544.070701 2048.68823,535.268103 2041.84481,535.268103 C2035.15421,535.268103 2034.33528,605.430275 2061.66976,605.430275 C2101.53909,605.430275 2057.59271,650.273958 2019.94705,647.942534 C2024.59815,699.502287 2055.69426,769.635073 2086.67478,805.352893 C2120.70379,844.589401 2139.85282,888.465249 2137.91127,929.280857 C2196.85322,935.334725 2235.76646,907.847422 2249.49836,870.307564 C2270.88477,811.83778 2229.22672,747.012415 2196.80816,698.044657 C2152.90292,631.722478 2160.55352,557.018925 2170.20053,511.397447 C2154.12349,500.580811 2146.18293,482.595534 2146.1751,463.319157 C2146.16726,443.135679 2150.62831,419.596125 2171.90893,399.637953 C2225.10068,349.755258 2306.2617,392.357639 2319.22559,411.769199 C2323.49073,418.154168 2321.62755,427.148766 2312.28814,432.127044 C2275.92183,451.517054 2297.71771,522.846898 2228.66835,522.846898 C2224.77742,536.633651 2222.7771,551.096322 2222.2344,565.462993 C2220.58085,609.331004 2231.39553,638.656018 2247.43926,665.083404 C2259.02389,684.167782 2283.51365,719.188133 2298.6444,751.824163 C2341.02148,843.223852 2313.38528,959.087829 2206.5492,992.960101 C2188.88719,998.561398 2151.00839,1003.70817 2111.26054,996.643361 C2108.79981,999.578213 2106.16079,1002.46017 2103.33761,1005.28335 C2099.94627,1008.67077 2095.92016,1012.2835 2091.55902,1016.09215 C2083.50679,1040.8797 2085.00752,1070.14398 2111.20372,1100.42115 C2156.11402,1152.32376 2177.19088,1165.57566 2123.72093,1203.97364 C2020.45448,1278.12862 2012.79213,1334.06714 1998.70562,1356.21764 C2020.52697,1359.38955 2042.85575,1363.61942 2065.76837,1369.04439 C2076.79268,1371.65598 2099.25468,1377.79409 2091.86857,1410.92972 L2033.77887,1672.15509 C2025.13105,1710.78425 1996.36244,1701.34884 1982.58352,1697.7028 C1731.40287,1631.22389 1610.22755,1810.89838 1199.57352,1810.89838 C788.919482,1810.89838 667.746126,1631.22389 416.56351,1697.7028 C402.786552,1701.34884 374.017946,1710.78425 365.370123,1672.15509 L307.28042,1410.92972 C299.89235,1377.79409 322.354355,1371.65598 333.378664,1369.04439 C356.29128,1363.61942 378.62202,1359.38955 400.443372,1356.21764 C386.354905,1334.06714 378.69255,1278.12862 275.428063,1203.97364 C221.956149,1165.57566 243.033013,1152.32376 287.941349,1100.42115 C314.139511,1070.14398 315.642203,1040.8797 307.589971,1016.09215 C303.228835,1012.2835 299.20076,1008.67077 295.811377,1005.28335 C292.988198,1002.46017 290.349182,999.578213 287.888451,996.643361 C248.138638,1003.70817 210.261801,998.561398 192.597829,992.960101 C85.7637152,959.087829 58.1255555,843.223852 100.50263,751.824163 C115.635341,719.188133 140.125097,684.167782 151.709732,665.083404 C167.753461,638.656018 178.566178,609.331004 176.91263,565.462993 C176.371896,551.096322 174.369614,536.633651 170.478681,522.846898 C101.431282,522.846898 123.227165,451.517054 86.8588971,432.127044 C77.5214427,427.148766 75.6563028,418.154168 79.923398,411.769199 C92.8853364,392.357639 174.048308,349.755258 227.240059,399.637953 C248.518719,419.596125 252.981732,443.135679 252.973895,463.319157 C252.966059,482.595534 245.0255,500.580811 228.948465,511.397447 C238.59351,557.018925 246.246069,631.722478 202.340834,698.044657 C169.922274,747.012415 128.2603,811.83778 149.648674,870.307564 C163.382529,907.847422 202.293814,935.334725 261.237719,929.280857 C259.294212,888.465249 278.445201,844.589401 312.472249,805.352893 C343.45277,769.635073 374.546924,699.502287 379.199978,647.942534 C341.556283,650.273958 297.607946,605.430275 337.479229,605.430275 C364.813715,605.430275 363.994778,535.268103 357.304177,535.268103 C350.460759,535.268103 344.64983,544.070701 336.501598,544.770128 C293.644524,548.443592 288.435063,468.861679 301.444021,475.926484 C315.930202,483.790634 344.526401,485.165979 333.807724,462.484546 C330.128383,454.698763 329.68169,451.511176 328.954834,448.006202 C328.153529,444.128984 325.373452,454.455824 305.256587,451.064483 C271.233458,445.328002 279.103486,360.577771 291.493344,372.471956 C307.764338,388.094462 329.009691,385.120426 327.440388,363.790827 C326.737042,354.263332 326.505859,351.4715 327.377694,344.406695 C327.789122,341.070211 315.787182,345.650775 307.11389,343.709227 C299.047944,341.902862 286.879473,328.925251 284.093519,319.34094 C275.357533,289.298865 298.542475,243.79102 304.909812,257.381856 C312.581963,273.762564 339.093594,278.025741 338.513676,262.983153 C337.847555,245.626772 343.35873,236.199196 343.35873,236.199196 C343.35873,236.199196 330.882668,234.792504 326.280553,231.252265 C316.786364,223.954317 315.021142,207.271895 315.95959,197.231095 C318.635831,168.558488 355.715281,127.654717 355.715281,157.473445 C355.715281,172.063462 377.852062,184.420014 383.52193,173.750317 C389.765839,161.995233 397.767132,156.709364 397.767132,156.709364 C397.767132,156.709364 386.168783,148.947091 382.54234,138.974862 C369.807667,103.95451 450.651292,77.5643488 444.501424,97.0973786 C435.075807,127.02582 453.23741,119.575057 476.551658,115.74094 C486.132051,114.1638 495.302975,115.078737 495.302975,115.078737 C495.302975,115.078737 488.14217,102.197125 492.107552,95.6417074 C499.099867,84.0825424 570.214202,65.3292664 554.354635,91.1865309 C545.930159,104.918427 562.022868,109.589114 575.541213,114.23629 C587.221848,118.250651 612.730378,119.067629 617.207106,134.359033 C618.709797,139.490127 615.804332,151.91525 613.821642,159.238666 C623.55681,160.498419 630.662757,161.863968 633.158753,162.83964 C647.860444,168.587876 652.856354,184.561075 665.334375,186.506541 C669.803266,187.204009 688.374338,188.577395 693.752289,189.202373 C701.871133,190.144739 710.789322,192.066695 719.977879,194.586201 C744.975063,134.482461 781.948718,138.404741 786.762425,146.259095 C796.909021,131.098957 848.95857,127.866309 851.178321,146.756727 C865.476421,140.293391 886.788386,143.698446 897.601104,155.230183 L897.601104,155.230183 Z M1500.00601,190.346535 C1406.9802,153.799981 1305.64943,133.72034 1199.57156,133.72034 C1093.49173,133.72034 992.166829,153.799981 899.14102,190.346535 C887.583814,211.836786 871.83788,213.421763 871.83788,227.951046 C903.298401,239.27315 921.405147,268.705919 887.284059,292.913554 L906.468355,353.136804 C948.808205,354.512148 952.036935,383.376755 946.915637,406.575412 C961.817164,415.599397 970.796088,444.438534 964.038874,464.86691 C1035.3119,430.596924 1115.19945,411.396955 1199.57352,411.396955 C1283.94563,411.396955 1363.83709,430.598883 1435.11208,464.868869 C1428.34898,444.440494 1437.32987,415.599397 1452.23335,406.575412 C1447.11206,383.376755 1450.33883,354.512148 1492.67672,353.136804 L1511.86101,292.913554 C1477.74189,268.70396 1495.84863,239.27315 1527.30915,227.951046 C1527.30915,213.421763 1511.56518,211.836786 1500.00601,190.346535 L1500.00601,190.346535 Z M872.584328,356.557533 L858.817166,313.33801 C841.041521,325.810154 827.043176,332.27349 807.147698,322.154323 C782.271983,343.768002 770.436573,368.528126 764.459114,395.417878 C769.402126,392.935597 774.237384,390.619845 778.988396,388.541155 C818.301313,371.345427 848.899794,361.330097 872.584328,356.557533 L872.584328,356.557533 Z M1540.32987,313.336051 L1526.56075,356.557533 C1550.24724,361.330097 1580.84572,371.345427 1620.16059,388.541155 C1624.91161,390.619845 1629.74687,392.935597 1634.68988,395.417878 C1628.71046,368.528126 1616.87505,343.768002 1591.99933,322.154323 C1572.10386,332.27349 1558.10551,325.810154 1540.32987,313.336051 L1540.32987,313.336051 Z M705.746392,955.647508 C705.746392,1228.38503 926.837955,1449.47659 1199.57548,1449.47659 C1472.313,1449.47659 1693.40456,1228.38503 1693.40456,955.647508 C1693.40456,682.911947 1472.313,461.820384 1199.57548,461.820384 C926.837955,461.820384 705.746392,682.911947 705.746392,955.647508 L705.746392,955.647508 Z M1743.82603,955.649467 C1743.82603,1159.11232 1632.18213,1336.49261 1466.81749,1429.88087 C1562.21195,1406.49217 1653.00038,1377.62169 1748.9532,1361.31739 C1704.04291,1349.9894 1711.63473,1288.20273 1731.23438,1263.15265 C1736.94147,1255.85666 1755.4185,1233.48674 1793.0857,1233.48674 C1812.71669,1233.48674 1908.9536,1169.66839 1908.9536,1144.12263 C1908.9536,1121.00234 1781.21699,1093.77169 1781.21699,1005.28335 C1781.21699,971.691238 1792.03754,910.872397 1886.73845,910.872397 C1886.73845,854.63412 1828.75063,795.545235 1797.87786,772.03115 C1782.44148,760.274108 1766.37816,741.818628 1755.20103,717.626667 C1684.29045,690.885812 1635.79094,559.252391 1594.04276,515.750746 C1577.7365,515.960379 1558.20543,509.88496 1542.86113,503.870276 C1535.34179,509.064063 1526.57838,512.453445 1517.7268,514.030586 C1654.68527,612.875161 1743.82603,773.861025 1743.82603,955.649467 L1743.82603,955.649467 Z M932.321701,1429.87891 C766.957069,1336.49065 655.322963,1159.11232 655.322963,955.649467 C655.322963,773.861025 744.459799,612.875161 881.418273,514.030586 C872.566695,512.451486 863.80524,509.062104 856.285905,503.870276 C840.943562,509.88496 821.410532,515.960379 805.104273,515.750746 C763.356095,559.252391 714.856581,690.885812 643.946001,717.626667 C632.772795,741.818628 616.707515,760.274108 601.271131,772.03115 C570.394446,795.545235 512.40858,854.63412 512.40858,910.872397 C607.109489,910.872397 617.932002,971.691238 617.932002,1005.28335 C617.932002,1093.77169 490.195391,1121.00234 490.195391,1144.12263 C490.195391,1169.66839 586.430339,1233.48674 606.061328,1233.48674 C643.730491,1233.48674 662.205564,1255.85666 667.912657,1263.15265 C687.512299,1288.20273 695.106082,1349.9894 650.193828,1361.31739 C746.142735,1377.61973 836.93116,1406.49021 932.321701,1429.87891 L932.321701,1429.87891 Z M1199.57352,1777.57664 C1299.4545,1777.57664 1381.73812,1766.67184 1452.79368,1751.29227 C1524.59765,1735.75401 1585.04816,1715.66653 1640.61248,1697.66754 C1750.00528,1662.23576 1848.44431,1631.64707 1977.56606,1662.09862 C2000.62366,1667.82334 2000.71378,1667.73322 2004.45973,1650.66288 L2056.63075,1415.82963 C2059.66552,1401.90965 2059.66552,1401.79797 2042.364,1397.92076 C1889.46563,1365.10252 1763.36494,1387.57432 1635.00531,1420.30048 C1567.34892,1437.55106 1500.17646,1457.27805 1429.82621,1472.71247 C1357.61081,1488.55637 1282.11379,1499.89806 1199.57352,1499.89806 C1117.0352,1499.89806 1041.53818,1488.55637 969.320825,1472.71247 C898.970571,1457.27805 831.800067,1437.55106 764.141726,1420.30048 C635.782096,1387.57432 509.681401,1365.10252 356.784994,1397.92076 C339.48347,1401.79797 339.48347,1401.90965 342.516282,1415.82963 L394.6873,1650.66288 C398.435212,1667.73322 398.525335,1667.82334 421.580971,1662.09862 C550.702723,1631.64707 649.141748,1662.23576 758.536511,1697.66754 C814.098871,1715.66653 874.547426,1735.75401 946.355311,1751.29227 C1017.40891,1766.67184 1099.69253,1777.57664 1199.57352,1777.57664 L1199.57352,1777.57664 Z M2263.02062,477.237175 C2267.01343,466.773192 2269.99531,455.697945 2274.28395,445.972573 C2278.50794,436.388262 2284.82826,425.646075 2295.69388,417.693761 C2276.39987,403.107662 2221.30379,382.244349 2186.34222,415.029276 C2170.85293,429.556599 2167.26959,446.45649 2167.27547,463.309361 C2167.23629,487.056588 2180.66843,492.379682 2193.68522,499.301467 C2180.17863,558.257127 2175.29048,627.320199 2214.4016,686.39537 C2230.48451,710.689208 2250.21738,740.85667 2262.93638,772.810904 C2275.68085,804.83371 2282.52231,841.448835 2269.31351,877.556532 C2251.5555,926.103066 2202.25272,957.261873 2134.97446,950.165721 C2132.74687,959.495339 2129.285,968.582018 2124.50656,977.321922 C2156.91141,981.424446 2186.68703,977.122086 2200.17403,972.847154 C2291.33862,943.941405 2318.22641,844.223034 2279.50321,760.70121 C2272.28755,745.139439 2262.81491,729.027138 2253.79288,714.511569 C2244.28302,699.216247 2235.22181,685.623453 2229.40108,676.033264 C2211.50397,646.549556 2199.31983,613.19059 2201.1497,564.669525 C2201.74333,548.913795 2205.53043,523.577672 2212.54234,502.485135 C2250.01166,503.95452 2255.11533,497.606775 2263.02062,477.237175 L2263.02062,477.237175 Z M1809.486,688.336918 C1789.95297,684.937739 1774.02092,672.732045 1776.6854,659.213699 C1777.89814,653.059913 1799.87622,665.626097 1804.32552,610.414431 C1805.81058,591.962869 1802.6994,577.310157 1801.84912,577.171056 C1771.84427,572.271145 1782.8529,612.841855 1756.13164,622.63384 C1718.22346,636.528348 1694.81321,599.862284 1695.10513,573.658245 C1716.85007,574.855304 1719.73007,558.733208 1712.77106,545.299107 C1709.84992,539.664504 1708.31392,529.084929 1708.31392,529.084929 C1708.31392,529.084929 1699.30169,536.216346 1687.60538,534.511859 C1656.46421,529.974397 1652.40871,445.014533 1672.5001,461.59116 C1684.84882,471.778899 1697.89892,466.136459 1706.18037,456.262189 C1668.69341,441.913151 1629.42164,418.134577 1610.80943,409.919733 C1528.20842,373.469179 1493.24684,373.696444 1480.45731,378.633579 C1476.11185,380.310637 1472.17585,385.283038 1473.98418,395.811674 C1484.17192,391.240906 1499.76503,392.124496 1499.76503,392.124496 C1514.53921,393.192249 1512.93464,415.35254 1498.16242,414.282828 C1462.63464,414.527725 1454.62943,437.998708 1455.97735,451.305462 C1456.67678,458.21941 1457.72886,464.177278 1468.8041,463.129117 C1479.00947,442.545966 1494.46153,436.243282 1494.46153,436.243282 C1507.8251,429.854395 1517.40745,449.896811 1504.04584,456.285699 C1497.66871,459.643734 1487.25567,468.514904 1488.83281,480.283701 C1489.55966,485.687121 1492.29664,489.995359 1499.74152,491.147357 C1508.97318,492.573641 1520.85561,490.71046 1529.60335,484.670306 L1539.82048,477.615297 C1539.82048,477.615297 1578.74548,495.383106 1603.86805,492.285641 L1610.878,499.595344 C1624.60989,513.90128 1638.02832,535.138797 1650.86879,556.474273 C1663.73473,577.850891 1677.44312,601.870444 1692.35248,624.385347 C1723.48778,671.40372 1752.14863,699.063431 1780.63707,699.063431 C1793.64603,699.063431 1802.95214,694.982458 1809.486,688.336918 L1809.486,688.336918 Z M1785.76229,722.266006 C1794.18872,735.713821 1804.15507,746.119029 1813.48273,753.224977 C1844.27713,776.674408 1911.14005,841.666304 1911.53972,910.012316 C1947.89231,913.529045 1962.3687,924.071396 1962.3687,924.071396 C1975.06811,933.056198 1962.74878,950.19315 1948.89149,943.124426 C1922.92256,929.880366 1882.14221,933.857503 1870.15791,934.944848 C1814.26445,940.015207 1806.01826,977.651065 1806.01826,1005.03845 C1806.01826,1036.45391 1828.3392,1059.29991 1859.27074,1079.40698 C1874.97553,1089.61627 1890.69404,1097.79781 1902.47067,1104.86653 C1908.62446,1108.55959 1915.24845,1112.81493 1920.50493,1117.52676 C1924.8308,1121.40202 1933.75683,1130.3398 1933.75683,1143.87774 C1933.75683,1188.75473 1819.50917,1256.57764 1794.55509,1256.57764 C1767.73195,1256.57764 1755.27156,1271.93369 1751.08087,1277.28617 C1744.35305,1285.88698 1738.74587,1304.35813 1741.09101,1319.72986 C1742.57411,1329.42976 1747.1919,1337.76804 1759.91482,1339.09636 C1759.57784,1320.76235 1765.98436,1300.30655 1776.48949,1286.4904 C1785.90335,1274.10838 1804.47834,1288.23016 1795.06252,1300.61414 C1787.73518,1310.25331 1781.8067,1326.05018 1783.94417,1347.90484 C1798.67721,1356.48409 1815.87293,1357.21878 1837.25543,1349.79545 C1834.86131,1331.5829 1843.12709,1308.48025 1853.12675,1294.02737 C1861.97637,1281.23588 1881.16458,1294.51325 1872.31496,1307.30474 C1864.98959,1317.89411 1859.89964,1332.04723 1860.35025,1344.44296 C1879.25438,1359.98514 1905.95605,1350.45569 1909.05548,1344.34892 C1913.75163,1335.10159 1918.16371,1325.04904 1923.65921,1314.11289 C1929.62883,1302.22458 1936.78964,1289.38216 1946.59534,1275.46806 C1966.48885,1247.24802 1996.36244,1215.68758 2046.95828,1180.32241 C2059.0523,1171.86855 2068.50338,1166.39068 2054.63826,1151.22662 C2048.75093,1144.78876 2042.31306,1137.18909 2034.89952,1129.16037 C2004.08945,1095.78573 2017.70379,1061.42954 2035.69887,1038.81472 C2044.42897,1027.84527 2055.15745,1017.93965 2064.53604,1009.68954 C2073.3406,1001.94098 2081.99038,994.854629 2088.30874,988.538231 C2131.0992,945.749728 2123.94232,881.997994 2070.51546,820.395481 C2039.19404,784.281906 1999.04652,701.780814 1997.53403,639.063528 C1974.78794,619.258172 1976.40623,571.199473 1963.53637,571.199473 C1945.4453,571.199473 1962.79188,604.740644 1964.77653,622.426167 C1971.71399,684.332353 1908.76944,688.946223 1890.43347,667.581359 C1879.65993,655.030849 1908.20715,670.435885 1895.38823,611.256878 C1893.34677,601.831261 1888.61143,582.609741 1884.48539,582.609741 C1859.20805,582.609741 1873.54729,614.687403 1871.10419,639.420098 C1868.4926,665.845525 1855.31516,680.006482 1839.57902,685.903615 C1831.49936,705.628645 1815.47326,720.720213 1785.76229,722.266006 L1785.76229,722.266006 Z M2065.07482,1039.80999 C2042.80873,1061.69011 2026.22427,1087.20256 2050.57688,1113.57705 C2081.89046,1147.49634 2103.7608,1168.13239 2058.90732,1199.65756 C1977.18598,1257.09094 1953.97557,1301.5134 1937.48711,1336.24575 C1940.94702,1337.7171 1945.30815,1339.15318 1950.60578,1340.41097 C1961.03058,1342.88346 1969.65097,1343.70239 1977.86386,1344.42729 C1982.24262,1344.81521 1984.91103,1332.74666 1995.44358,1311.66196 C2011.32862,1279.87033 2040.6889,1236.82714 2110.76095,1185.92763 C2136.69462,1167.09011 2135.72287,1163.85942 2122.40828,1147.13781 C2115.17302,1138.05113 2105.46528,1127.73997 2094.40375,1114.95631 C2072.39824,1089.52419 2064.48119,1063.71982 2065.07482,1039.80999 L2065.07482,1039.80999 Z M1692.08995,351.111011 C1693.79444,355.144964 1697.03296,362.13532 1700.24014,362.860217 C1710.45923,365.164213 1740.96954,367.44274 1770.69619,368.61433 C1785.55657,369.202084 1824.01725,369.560614 1830.12597,367.10772 C1840.13542,363.087481 1860.59319,337.480992 1876.76818,334.934057 C1898.86774,331.456512 1915.22298,322.94975 1921.95472,307.387979 C1926.80173,296.181467 1926.71553,291.555841 1924.70149,285.993728 C1915.50902,260.610585 1910.16046,230.885898 1910.16046,230.885898 C1910.16046,230.885898 1935.19095,215.085107 1934.80499,205.042348 C1934.5836,199.27648 1931.43911,198.731827 1923.0166,196.962687 C1915.77938,195.444322 1898.56407,195.579506 1890.71559,195.579506 C1890.71559,195.579506 1886.99119,182.278629 1872.71464,179.081247 C1861.81768,176.640108 1814.79734,172.28485 1773.26468,181.451855 C1767.81032,182.654792 1757.31303,196.635504 1754.00985,199.141296 C1749.731,202.387658 1744.15713,205.120715 1736.89053,206.253121 C1732.30017,206.966263 1713.22755,208.410179 1707.70266,209.05279 C1692.14285,210.861114 1672.18272,217.040369 1652.73785,224.322643 C1652.73785,246.296812 1665.68999,258.862996 1665.68999,258.862996 C1665.68999,258.862996 1665.02191,281.42296 1666.68721,291.404985 C1666.77538,293.181961 1669.62403,293.718777 1670.73488,293.532655 C1679.01046,292.149473 1685.79902,292.378697 1690.08767,292.892003 C1707.3598,294.958938 1764.65212,294.706204 1764.65212,294.706204 L1764.65212,351.111011 L1692.08995,351.111011 Z M1753.90209,387.818217 C1738.77918,400.078769 1737.51159,417.303884 1736.70833,431.116107 C1735.55829,450.892075 1727.62165,461.579405 1723.82671,466.565519 C1716.76583,475.838321 1697.895,495.614289 1682.22156,486.835201 C1674.93145,482.752269 1682.23527,512.602343 1689.20995,514.900462 C1698.56504,517.984212 1717.17138,503.995663 1720.29039,500.549465 C1722.93529,513.842504 1726.57153,525.73473 1730.81511,534.370798 C1740.13885,553.351339 1739.26702,581.87113 1719.53023,589.298383 C1723.71504,601.157303 1741.84922,608.786352 1750.75369,601.40416 C1755.06781,597.826696 1758.07515,586.046143 1761.46061,579.285011 C1774.92018,552.414851 1797.15884,553.030033 1818.98607,559.675574 C1821.0726,560.310348 1827.95324,586.157817 1825.35733,612.109122 C1822.22656,643.403112 1815.60844,660.242269 1805.0034,665.024629 C1795.75607,669.195724 1850.11353,680.194563 1850.10569,637.345326 C1850.10569,632.429742 1848.52464,607.003497 1848.45998,600.92416 C1848.30521,586.565326 1853.10912,561.509367 1884.48539,561.509367 C1890.48245,561.509367 1899.66904,564.589198 1906.19507,575.709507 C1910.42886,582.925169 1914.87033,601.525629 1916.01057,606.789947 C1920.97317,629.692767 1921.83325,651.365222 1915.68143,657.930436 C1911.43196,662.467898 1951.37378,661.127819 1943.80742,624.775224 C1943.10408,621.395638 1937.26964,600.412814 1936.01772,594.699844 C1934.8285,589.278791 1933.13381,580.141173 1935.3947,571.42282 C1938.77429,558.384474 1949.72415,550.099099 1963.53637,550.099099 C1972.95023,550.099099 1984.19789,555.026438 1990.79053,571.473759 C1993.05338,577.116199 2001.0919,618.268785 2011.93009,624.614571 C2025.36419,632.476763 2052.60659,620.120211 2042.21902,617.477277 C2036.63339,616.054911 2030.57953,609.624881 2027.36451,603.851176 C2021.87685,593.994539 2019.7335,583.724514 2018.17204,573.325184 C2015.69759,556.848476 2016.94363,540.714624 2019.30052,533.259943 C2023.9379,518.58764 2030.80091,514.647728 2042.076,514.647728 C2049.17803,514.647728 2056.52104,521.324615 2061.9127,523.46404 C2077.34125,529.586479 2086.89225,496.28041 2079.54533,499.464079 C2068.94616,504.056398 2038.89233,496.035513 2042.81069,465.178419 C2044.48187,452.024481 2050.4946,449.166037 2054.81067,421.83155 C2055.54536,417.178497 2071.7086,433.096838 2089.09633,431.382555 C2098.40832,430.4637 2103.07312,396.712897 2098.04195,399.369546 C2078.32672,409.778672 2049.51892,397.745385 2051.38211,371.137754 C2053.09639,346.647998 2052.57329,332.251939 2051.8719,323.137831 C2051.627,319.954163 2061.17801,323.382729 2078.11904,323.88232 C2089.30596,324.213422 2093.25959,320.443958 2095.95346,313.586826 C2098.7355,306.506348 2095.70269,282.994223 2092.5249,286.158299 C2081.04606,297.586199 2062.96674,294.510286 2055.05557,289.586865 C2044.03518,282.729733 2039.38212,277.341987 2039.38212,262.89303 C2039.38212,247.864157 2037.91274,239.382864 2028.85153,221.505342 C2051.38211,220.035956 2056.3212,220.72167 2060.93311,213.913517 C2069.73767,200.916314 2054.93606,175.037498 2053.56659,181.961242 C2051.28415,193.500815 2030.03683,199.627173 2022.05317,199.315663 C1994.93616,198.259665 2002.81402,175.952435 1971.33195,157.583159 C1989.42106,145.806525 1996.71901,136.913804 1997.23623,131.817976 C1997.9004,125.270394 1975.79888,109.59695 1976.51986,115.306002 C1977.70516,124.678722 1968.59693,137.581885 1952.20251,139.382372 C1938.49021,140.888982 1926.76451,135.84801 1907.34315,134.8214 C1893.71118,134.100421 1871.48819,135.900908 1871.48819,135.900908 C1871.48819,135.900908 1887.60245,111.959722 1884.51282,106.103731 C1882.69079,102.647737 1863.85326,96.2529718 1866.20624,102.512554 C1868.3006,108.09034 1862.10959,119.247874 1851.3341,125.491782 C1838.95404,132.66826 1828.80744,135.526705 1810.926,139.206046 C1802.59949,140.920329 1802.59949,142.389714 1804.19622,147.748073 C1805.01711,150.500721 1806.02217,154.086022 1806.84503,157.071813 C1845.08823,154.217287 1896.46186,155.473121 1901.4852,175.75064 C1919.66444,175.75064 1938.90947,178.859859 1944.98097,184.092831 C1959.26536,196.404321 1960.52707,217.316614 1932.13071,239.186946 C1939.89494,279.128759 1953.3643,285.110137 1940.29461,315.32266 C1929.333,340.662701 1903.61287,350.098115 1880.56507,354.553291 C1870.63987,356.473288 1859.23352,374.103954 1839.22441,384.96761 C1829.57544,390.204499 1789.61208,389.806785 1753.90209,387.818217 L1753.90209,387.818217 Z M1659.5989,408.46798 C1676.41846,417.38617 1694.65648,426.809828 1715.02608,434.519203 C1716.2153,422.826814 1717.21448,402.414112 1727.33365,386.004016 C1713.57236,384.879446 1702.41679,383.652999 1696.85663,382.673409 C1676.28916,379.050884 1663.59171,338.9445 1671.54402,331.12737 L1744.66848,331.12737 L1744.66848,314.544866 C1732.04156,314.452784 1705.69058,314.883804 1687.71314,312.734583 C1682.43707,312.101768 1673.35431,313.355643 1668.19578,314.141274 C1644.36823,317.763799 1645.71223,287.206461 1645.70831,265.76323 C1634.16678,251.038029 1630.36793,230.280511 1634.19029,210.071564 C1641.78211,207.048549 1649.82455,204.005941 1657.96886,201.198436 C1647.25018,176.357986 1633.94735,162.798497 1623.32271,163.407803 C1626.61805,170.627383 1628.01691,177.451209 1628.01691,177.451209 C1630.80482,192.754368 1607.8491,196.937218 1605.06315,181.634059 C1603.86413,175.642885 1599.6852,165.384616 1594.4679,158.737116 C1588.54138,154.364225 1569.3179,152.771411 1568.82811,157.669363 C1577.27413,166.775634 1583.15951,180.391939 1583.15951,180.391939 C1589.11346,194.764487 1567.55464,203.694432 1561.60265,189.323843 C1558.69327,182.376588 1551.11515,168.105917 1541.52105,165.47082 C1541.52105,165.47082 1520.22867,162.032458 1517.47798,172.345584 C1515.22689,180.781815 1530.71813,193.297061 1532.20906,194.623426 C1540.28872,201.801863 1549.52038,210.408543 1549.52038,230.515613 L1549.52038,243.279674 L1533.48253,249.282603 C1515.26411,255.497124 1508.50298,264.046988 1525.3245,275.359296 C1533.95469,281.162389 1541.73264,286.949808 1548.61328,291.943759 C1555.27841,296.784894 1560.15481,300.072399 1564.41799,302.243171 C1570.92247,305.558105 1574.70369,306.026349 1581.92719,302.350926 L1595.27117,295.564325 L1606.57172,305.383738 C1641.67436,335.882301 1654.39532,371.96061 1659.5989,408.46798 L1659.5989,408.46798 Z M739.550092,408.46798 C744.751717,371.96061 757.474635,335.882301 792.577273,305.383738 L803.877826,295.564325 L817.219845,302.350926 C824.445303,306.026349 828.226521,305.558105 834.731001,302.243171 C838.992218,300.072399 843.870578,296.784894 850.53571,291.943759 C857.414393,286.949808 865.194299,281.162389 873.82253,275.359296 C890.646013,264.046988 883.884881,255.497124 865.664502,249.282603 L849.62665,243.279674 L849.62665,230.515613 C849.62665,210.408543 858.860268,201.801863 866.937969,194.623426 C868.428906,193.297061 883.920146,180.781815 881.671007,172.345584 C878.920317,162.032458 857.625984,165.47082 857.625984,165.47082 C848.031877,168.105917 840.453767,182.376588 837.546343,189.323843 C831.592393,203.694432 810.03553,194.764487 815.987521,180.391939 C815.987521,180.391939 821.874858,166.775634 830.318926,157.669363 C829.829131,152.771411 810.605652,154.364225 804.677171,158.737116 C799.461833,165.384616 795.280942,175.642885 794.085842,181.634059 C791.297928,196.937218 768.342209,192.754368 771.130123,177.451209 C771.130123,177.451209 772.530937,170.627383 775.826279,163.407803 C765.199684,162.798497 751.896848,176.357986 741.180131,201.198436 C749.320526,204.005941 757.364921,207.048549 764.958705,210.071564 C768.781066,230.280511 764.982215,251.038029 753.440682,265.76323 C753.436764,287.206461 754.780762,317.763799 730.953208,314.141274 C725.794686,313.355643 716.709966,312.101768 711.435852,312.734583 C693.456452,314.883804 667.107433,314.452784 654.478556,314.544866 L654.478556,331.12737 L727.604969,331.12737 C735.557283,338.9445 722.857874,379.050884 702.292356,382.673409 C696.732202,383.652999 685.574669,384.879446 671.813385,386.004016 C681.934512,402.414112 682.931735,422.826814 684.122916,434.519203 C704.490557,426.809828 722.730528,417.38617 739.550092,408.46798 L739.550092,408.46798 Z M645.244938,387.818217 C609.534955,389.806785 569.57159,390.204499 559.924585,384.96761 C539.913516,374.103954 528.507167,356.473288 518.585876,354.553291 C495.534158,350.098115 469.812077,340.662701 458.852421,315.32266 C445.782728,285.110137 459.252094,279.128759 467.016327,239.186946 C438.621923,217.316614 439.883636,196.404321 454.166062,184.092831 C460.237562,178.859859 479.484551,175.75064 497.661828,175.75064 C502.685167,155.473121 554.05684,154.217287 592.303962,157.071813 C593.124859,154.086022 594.129918,150.500721 594.952774,147.748073 C596.549506,142.389714 596.549506,140.920329 588.222989,139.206046 C570.341548,135.526705 560.192993,132.66826 547.814891,125.491782 C537.039398,119.247874 530.846428,108.09034 532.942751,102.512554 C535.293768,96.2529718 516.458206,102.647737 514.634209,106.103731 C511.546541,111.959722 527.658841,135.900908 527.658841,135.900908 C527.658841,135.900908 505.437816,134.100421 491.805838,134.8214 C472.382522,135.84801 460.658786,140.888982 446.946481,139.382372 C430.552059,137.581885 421.443828,124.678722 422.627174,115.306002 C423.348152,109.59695 401.246636,125.270394 401.910799,131.817976 C402.428022,136.913804 409.727929,145.806525 427.817043,157.583159 C396.334971,175.952435 404.212836,198.259665 377.095818,199.315663 C369.112158,199.627173 347.862886,193.500815 345.58044,181.961242 C344.212932,175.037498 329.409364,200.916314 338.215881,213.913517 C342.827792,220.72167 347.766886,220.035956 370.297462,221.505342 C361.236252,239.382864 359.766866,247.864157 359.766866,262.89303 C359.766866,277.341987 355.113813,282.729733 344.093422,289.586865 C336.180292,294.510286 318.102933,297.586199 306.624095,286.158299 C303.444345,282.994223 300.413492,306.506348 303.195529,313.586826 C305.889402,320.443958 309.843028,324.213422 321.029949,323.88232 C337.970983,323.382729 347.521988,319.954163 347.277091,323.137831 C346.575704,332.251939 346.052603,346.647998 347.766886,371.137754 C349.628107,397.745385 320.822276,409.778672 301.107042,399.369546 C296.073908,396.712897 300.740676,430.4637 310.052661,431.382555 C327.440388,433.096838 343.603627,417.178497 344.33832,421.83155 C348.652435,449.166037 354.66712,452.024481 356.338301,465.178419 C360.256662,496.035513 330.202832,504.056398 319.603666,499.464079 C312.256739,496.28041 321.807744,529.586479 337.23629,523.46404 C342.625996,521.324615 349.970964,514.647728 357.072993,514.647728 C368.346118,514.647728 375.209127,518.58764 379.848467,533.259943 C382.203402,540.714624 383.449441,556.848476 380.976955,573.325184 C379.413529,583.724514 377.272144,593.994539 371.782521,603.851176 C368.567505,609.624881 362.513638,616.054911 356.928014,617.477277 C346.542398,620.120211 373.782844,632.476763 387.216945,624.614571 C398.055131,618.268785 406.095608,577.116199 408.356503,571.473759 C414.949145,555.026438 426.1968,550.099099 435.610663,550.099099 C449.422886,550.099099 460.374705,558.384474 463.754291,571.42282 C466.015185,580.141173 464.318535,589.278791 463.129312,594.699844 C461.877396,600.412814 456.044916,621.395638 455.34157,624.775224 C447.773256,661.127819 487.717028,662.467898 483.465606,657.930436 C477.313779,651.365222 478.175819,629.692767 483.136464,606.789947 C484.276707,601.525629 488.718169,582.925169 492.953918,575.709507 C499.479948,564.589198 508.664586,561.509367 514.663597,561.509367 C546.039873,561.509367 550.841824,586.565326 550.687049,600.92416 C550.622396,607.003497 549.043297,632.429742 549.043297,637.345326 C549.033501,680.194563 603.390964,669.195724 594.143632,665.024629 C583.540547,660.242269 576.920476,643.403112 573.791665,612.109122 C571.195751,586.157817 578.074434,560.310348 580.160961,559.675574 C601.988191,553.030033 624.228809,552.414851 637.688379,579.285011 C641.073843,586.046143 644.079226,597.826696 648.393341,601.40416 C657.297817,608.786352 675.433951,601.157303 679.616801,589.298383 C659.883935,581.87113 659.01014,553.351339 668.33388,534.370798 C672.577465,525.73473 676.211745,513.842504 678.856639,500.549465 C681.973695,503.995663 700.583951,517.984212 709.939038,514.900462 C716.911762,512.602343 724.215587,482.752269 716.925476,486.835201 C701.252032,495.614289 682.381205,475.838321 675.322277,466.565519 C671.525386,461.579405 663.588745,450.892075 662.438706,431.116107 C661.637401,417.303884 660.369812,400.078769 645.244938,387.818217 L645.244938,387.818217 Z M707.061002,351.111011 L634.494914,351.111011 L634.494914,294.706204 C634.494914,294.706204 691.787231,294.958938 709.061325,292.892003 C713.349971,292.378697 720.136573,292.149473 728.41411,293.532655 C729.524966,293.718777 732.373614,293.181961 732.459818,291.404985 C734.125122,281.42296 733.457041,258.862996 733.457041,258.862996 C733.457041,258.862996 746.409184,246.296812 746.409184,224.322643 C726.964317,217.040369 707.004186,210.861114 691.444374,209.05279 C685.921444,208.410179 666.846862,206.966263 662.258462,206.253121 C654.991861,205.120715 649.416033,202.387658 645.137183,199.141296 C641.835964,196.635504 631.336715,182.654792 625.884316,181.451855 C584.34773,172.28485 537.327397,176.640108 526.434354,179.081247 C512.155846,182.278629 508.431444,195.579506 508.431444,195.579506 C500.582967,195.579506 483.367647,195.444322 476.132394,196.962687 C467.709877,198.731827 464.563433,199.27648 464.342045,205.042348 C463.958046,215.085107 488.988536,230.885898 488.988536,230.885898 C488.988536,230.885898 483.639973,260.610585 474.447498,285.993728 C472.431502,291.555841 472.345298,296.181467 477.194269,307.387979 C483.926014,322.94975 500.281253,331.456512 522.37885,334.934057 C538.553844,337.480992 559.011607,363.087481 569.02302,367.10772 C575.127826,369.560614 613.590458,369.202084 628.452802,368.61433 C658.177489,367.44274 688.687807,365.164213 698.906893,362.860217 C702.114071,362.13532 705.354556,355.144964 707.061002,351.111011 L707.061002,351.111011 Z M334.072214,1039.80999 C334.667805,1063.71982 326.750756,1089.52419 304.743281,1114.95631 C293.683707,1127.73997 283.975968,1138.05113 276.738755,1147.13781 C263.424164,1163.85942 262.452411,1167.09011 288.388042,1185.92763 C358.458134,1236.82714 387.820372,1279.87033 403.703449,1311.66196 C414.237963,1332.74666 416.906366,1344.81521 421.283176,1344.42729 C429.49606,1343.70239 438.116455,1342.88346 448.541254,1340.41097 C453.838878,1339.15318 458.201973,1337.7171 461.657968,1336.24575 C445.173423,1301.5134 421.961052,1257.09094 340.241673,1199.65756 C295.388194,1168.13239 317.256567,1147.49634 348.572109,1113.57705 C372.924723,1087.20256 356.34026,1061.69011 334.072214,1039.80999 L334.072214,1039.80999 Z M613.386704,722.266006 C583.673772,720.720213 567.647675,705.628645 559.568015,685.903615 C543.833836,680.006482 530.654428,665.845525 528.0448,639.420098 C525.601702,614.687403 539.938985,582.609741 514.663597,582.609741 C510.537563,582.609741 505.802223,601.831261 503.758798,611.256878 C490.93988,670.435885 519.487099,655.030849 508.715525,667.581359 C490.377595,688.946223 427.435003,684.332353 434.372461,622.426167 C436.353192,604.740644 453.701736,571.199473 435.610663,571.199473 C422.742765,571.199473 424.359089,619.258172 401.613003,639.063528 C400.098557,701.780814 359.952989,784.281906 328.63157,820.395481 C275.204717,881.997994 268.049789,945.749728 310.840251,988.538231 C317.156649,994.854629 325.80839,1001.94098 334.612948,1009.68954 C343.991545,1017.93965 354.718058,1027.84527 363.448167,1038.81472 C381.44324,1061.42954 395.059544,1095.78573 364.247512,1129.16037 C356.833973,1137.18909 350.396106,1144.78876 344.508769,1151.22662 C330.643648,1166.39068 340.094735,1171.86855 352.188756,1180.32241 C402.786552,1215.68758 432.660137,1247.24802 452.551697,1275.46806 C462.357395,1289.38216 469.5182,1302.22458 475.489782,1314.11289 C480.985284,1325.04904 485.397358,1335.10159 490.093514,1344.34892 C493.192938,1350.45569 519.89265,1359.98514 538.796783,1344.44296 C539.249353,1332.04723 534.159402,1317.89411 526.832067,1307.30474 C517.982449,1294.51325 537.168704,1281.23588 546.02224,1294.02737 C556.019939,1308.48025 564.285721,1331.5829 561.891603,1349.79545 C583.276058,1357.21878 600.469826,1356.48409 615.200905,1347.90484 C617.344248,1326.05018 611.41185,1310.25331 604.084514,1300.61414 C594.668693,1288.23016 613.245643,1274.10838 622.659505,1286.4904 C633.162672,1300.30655 639.569192,1320.76235 639.234172,1339.09636 C651.95709,1337.76804 656.57292,1329.42976 658.05406,1319.72986 C660.401159,1304.35813 654.793984,1285.88698 648.066158,1277.28617 C643.87743,1271.93369 631.417042,1256.57764 604.591942,1256.57764 C579.641778,1256.57764 465.392166,1188.75473 465.392166,1143.87774 C465.392166,1130.3398 474.316233,1121.40202 478.642104,1117.52676 C483.898585,1112.81493 490.524534,1108.55959 496.676361,1104.86653 C508.456913,1097.79781 524.1715,1089.61627 539.876291,1079.40698 C570.809792,1059.29991 593.128777,1036.45391 593.128777,1005.03845 C593.128777,977.651065 584.882586,940.015207 528.991084,934.944848 C517.004818,933.857503 476.226434,929.880366 450.257496,943.124426 C436.398253,950.19315 424.080885,933.056198 436.780294,924.071396 C436.780294,924.071396 451.256678,913.529045 487.607314,910.012316 C488.008946,841.666304 554.871859,776.674408 585.664299,753.224977 C594.993917,746.119029 604.960268,735.713821 613.386704,722.266006 L613.386704,722.266006 Z M589.661027,688.336918 C596.194894,694.982458 605.502961,699.063431 618.51192,699.063431 C647.000364,699.063431 675.661216,671.40372 706.796513,624.385347 C721.703917,601.870444 735.412303,577.850891 748.278242,556.474273 C761.12067,535.138797 774.539097,513.90128 788.269035,499.595344 L795.278982,492.285641 C820.401554,495.383106 859.328512,477.615297 859.328512,477.615297 L869.545639,484.670306 C878.29142,490.71046 890.175809,492.573641 899.407468,491.147357 C906.850395,489.995359 909.589329,485.687121 910.314226,480.283701 C911.891366,468.514904 901.478322,459.643734 895.101189,456.285699 C881.739578,449.896811 891.32193,429.854395 904.6855,436.243282 C904.6855,436.243282 920.137557,442.545966 930.344888,463.129117 C941.418176,464.177278 942.468297,458.21941 943.169683,451.305462 C944.519559,437.998708 936.512388,414.527725 900.986568,414.282828 C886.214346,415.35254 884.611737,393.192249 899.383958,392.124496 C899.383958,392.124496 914.977076,391.240906 925.160896,395.811674 C926.971179,385.283038 923.035185,380.310637 918.689723,378.633579 C905.900192,373.696444 870.938616,373.469179 788.339565,409.919733 C769.725391,418.134577 730.455577,441.913151 692.966657,456.262189 C701.248113,466.136459 714.298215,471.778899 726.64693,461.59116 C746.740285,445.014533 742.684781,529.974397 711.541648,534.511859 C699.847299,536.216346 690.83311,529.084929 690.83311,529.084929 C690.83311,529.084929 689.297112,539.664504 686.377933,545.299107 C679.418924,558.733208 682.29696,574.855304 704.043864,573.658245 C704.335782,599.862284 680.923575,636.528348 643.015391,622.63384 C616.294127,612.841855 627.304722,572.271145 597.297913,577.171056 C596.449588,577.310157 593.33645,591.962869 594.823468,610.414431 C599.272767,665.626097 621.248895,653.059913 622.463587,659.213699 C625.126113,672.732045 609.194057,684.937739 589.661027,688.336918 L589.661027,688.336918 Z M136.128369,477.237175 C144.031703,497.606775 149.137328,503.95452 186.606655,502.485135 C193.616603,523.577672 197.403699,548.913795 197.99929,564.669525 C199.827205,613.19059 187.645021,646.549556 169.745947,676.033264 C163.925222,685.623453 154.865971,699.216247 145.356109,714.511569 C136.334083,729.027138 126.859486,745.139439 119.645783,760.70121 C80.9206209,844.223034 107.810374,943.941405 198.974962,972.847154 C212.46392,977.122086 242.235627,981.424446 274.640473,977.321922 C269.862031,968.582018 266.400159,959.495339 264.17453,950.165721 C196.894312,957.261873 147.593493,926.103066 129.833522,877.556532 C116.626686,841.448835 123.470104,804.83371 136.212614,772.810904 C148.929654,740.85667 168.66448,710.689208 184.745434,686.39537 C223.854595,627.320199 218.968399,558.257127 205.463768,499.301467 C218.478604,492.379682 231.912705,487.056588 231.873521,463.309361 C231.879399,446.45649 228.294098,429.556599 212.804817,415.029276 C177.8452,382.244349 122.749125,403.107662 103.453156,417.693761 C114.318771,425.646075 120.639088,436.388262 124.86504,445.972573 C129.151727,455.697945 132.135559,466.773192 136.128369,477.237175 L136.128369,477.237175 Z" id="Fill-8" fill="#1A171B" sketch:type="MSShapeGroup"></path>
            </g>
        </g>
    </g>
</svg>