<?xml version="1.0" encoding="UTF-8" standalone="no"?>
<!-- Created with Inkscape (http://www.inkscape.org/) -->

<svg
   xmlns:dc="http://purl.org/dc/elements/1.1/"
   xmlns:cc="http://creativecommons.org/ns#"
   xmlns:rdf="http://www.w3.org/1999/02/22-rdf-syntax-ns#"
   xmlns:svg="http://www.w3.org/2000/svg"
   xmlns="http://www.w3.org/2000/svg"
   xmlns:sodipodi="http://sodipodi.sourceforge.net/DTD/sodipodi-0.dtd"
   xmlns:inkscape="http://www.inkscape.org/namespaces/inkscape"
   id="svg2"
   sodipodi:version="0.32"
   inkscape:version="0.48.1 "
   width="500"
   height="500"
   xml:space="preserve"
   sodipodi:docname="S.S.C. Napoli logo.svg"
   version="1.0"
   inkscape:output_extension="org.inkscape.output.svg.inkscape"><metadata
     id="metadata7"><rdf:RDF><cc:Work
         rdf:about=""><dc:format>image/svg+xml</dc:format><dc:type
           rdf:resource="http://purl.org/dc/dcmitype/StillImage" /></cc:Work></rdf:RDF></metadata><defs
     id="defs5"><inkscape:perspective
       sodipodi:type="inkscape:persp3d"
       inkscape:vp_x="0 : 526.18109 : 1"
       inkscape:vp_y="0 : 1000 : 0"
       inkscape:vp_z="744.09448 : 526.18109 : 1"
       inkscape:persp3d-origin="372.04724 : 350.78739 : 1"
       id="perspective9" /><clipPath
       clipPathUnits="userSpaceOnUse"
       id="clipPath17"><path
         d="M 0,841.89 L 595.276,841.89 L 595.276,0 L 0,0 L 0,841.89 z"
         id="path19" /></clipPath><linearGradient
       x1="0"
       y1="0"
       x2="1"
       y2="0"
       gradientUnits="userSpaceOnUse"
       gradientTransform="matrix(244.58781,-244.58781,-244.58781,-244.58781,175.34424,543.23828)"
       spreadMethod="pad"
       id="linearGradient35"><stop
         style="stop-opacity:1;stop-color:#7ea7d1"
         offset="0"
         id="stop37" /><stop
         style="stop-opacity:1;stop-color:#2651a5"
         offset="0.241573"
         id="stop39" /><stop
         style="stop-opacity:1;stop-color:#2651a5"
         offset="0.241573"
         id="stop41" /><stop
         style="stop-opacity:1;stop-color:#2651a5"
         offset="1"
         id="stop43" /></linearGradient><linearGradient
       x1="0"
       y1="0"
       x2="1"
       y2="0"
       gradientUnits="userSpaceOnUse"
       gradientTransform="matrix(173.90959,-173.90959,-173.90959,-173.90959,210.68359,507.89893)"
       spreadMethod="pad"
       id="linearGradient63"><stop
         style="stop-opacity:1;stop-color:#4393d7"
         offset="0"
         id="stop65" /><stop
         style="stop-opacity:1;stop-color:#6cbfea"
         offset="0.960674"
         id="stop67" /><stop
         style="stop-opacity:1;stop-color:#6cbfea"
         offset="0.960674"
         id="stop69" /><stop
         style="stop-opacity:1;stop-color:#6cbfea"
         offset="1"
         id="stop71" /></linearGradient><linearGradient
       x1="0"
       y1="0"
       x2="1"
       y2="0"
       gradientUnits="userSpaceOnUse"
       gradientTransform="matrix(142.02281,-142.02281,-142.02281,-142.02281,223.25781,497.83008)"
       spreadMethod="pad"
       id="linearGradient87"><stop
         style="stop-opacity:1;stop-color:#caedf8"
         offset="0"
         id="stop89" /><stop
         style="stop-opacity:1;stop-color:#feffff"
         offset="0.365169"
         id="stop91" /><stop
         style="stop-opacity:1;stop-color:#feffff"
         offset="0.365169"
         id="stop93" /><stop
         style="stop-opacity:1;stop-color:#caedf8"
         offset="0.775281"
         id="stop95" /><stop
         style="stop-opacity:1;stop-color:#feffff"
         offset="1"
         id="stop97" /></linearGradient></defs><sodipodi:namedview
     inkscape:window-height="750"
     inkscape:window-width="1280"
     inkscape:pageshadow="2"
     inkscape:pageopacity="0.0"
     guidetolerance="10.0"
     gridtolerance="10.0"
     objecttolerance="10.0"
     borderopacity="1.0"
     bordercolor="#666666"
     pagecolor="#ffffff"
     id="base"
     showgrid="false"
     inkscape:zoom="1.062"
     inkscape:cx="250"
     inkscape:cy="250"
     inkscape:window-x="-8"
     inkscape:window-y="-8"
     inkscape:current-layer="g11"
     inkscape:window-maximized="0" /><g
     id="g11"
     inkscape:groupmode="layer"
     inkscape:label="SSC_Napoli"
     transform="matrix(1.25,0,0,-1.25,63.301372,794.06091)"><g
       id="g13"
       transform="matrix(1.0961634,0,0,1.0961604,-176.90098,-26.173963)"><g
         id="g15"
         clip-path="url(#clipPath17)"><path
           d="m 478.268,420.945 c 0,-99.759 -80.871,-180.631 -180.63,-180.631 -99.76,0 -180.63,80.872 -180.63,180.631 0,99.759 80.87,180.63 180.63,180.63 99.759,0 180.63,-80.871 180.63,-180.63"
           style="fill:#2651a5;fill-opacity:1;fill-rule:nonzero;stroke:none"
           id="path21"
           inkscape:connector-curvature="0" /><g
           id="g23"><g
             id="g25"><g
               id="g31"><g
                 id="g33"><path
                   d="m 175.344,543.239 c -32.666,-32.666 -50.656,-76.098 -50.656,-122.294 0,-46.197 17.99,-89.629 50.656,-122.295 32.666,-32.666 76.097,-50.656 122.294,-50.656 46.197,0 89.628,17.99 122.294,50.656 32.666,32.666 50.656,76.098 50.656,122.295 0,46.196 -17.99,89.628 -50.656,122.294 -32.666,32.666 -76.097,50.656 -122.294,50.656 -46.197,0 -89.628,-17.99 -122.294,-50.656"
                   style="fill:url(#linearGradient35);stroke:none"
                   id="path45"
                   inkscape:connector-curvature="0" /></g></g></g></g><path
           d="m 165.008,420.945 c 0,-73.133 59.497,-132.631 132.63,-132.631 73.133,0 132.63,59.498 132.63,132.631 0,73.132 -59.497,132.63 -132.63,132.63 -73.133,0 -132.63,-59.498 -132.63,-132.63"
           style="fill:#ffffff;fill-opacity:1;fill-rule:nonzero;stroke:none"
           id="path47"
           inkscape:connector-curvature="0" /><path
           d="m 170.127,420.945 c 0,-70.309 57.201,-127.51 127.511,-127.51 70.309,0 127.509,57.201 127.509,127.51 0,70.309 -57.2,127.51 -127.509,127.51 -70.31,0 -127.511,-57.201 -127.511,-127.51"
           style="fill:#4393d7;fill-opacity:1;fill-rule:nonzero;stroke:none"
           id="path49"
           inkscape:connector-curvature="0" /><g
           id="g51"><g
             id="g53"><g
               id="g59"><g
                 id="g61"><path
                   d="m 174.607,420.945 c 0,-67.84 55.192,-123.031 123.031,-123.031 67.839,0 123.03,55.191 123.03,123.031 0,67.839 -55.191,123.03 -123.03,123.03 -67.839,0 -123.031,-55.191 -123.031,-123.03"
                   style="fill:url(#linearGradient63);stroke:none"
                   id="path73"
                   inkscape:connector-curvature="0" /></g></g></g></g><g
           id="g75"><g
             id="g77"><g
               id="g83"><g
                 id="g85"><path
                   d="m 222.284,496.857 46.583,0 75.821,-90.649 c 0.487,-0.582 1.437,-0.237 1.437,0.522 l 0,68.095 c 0,8.659 -7.021,15.679 -15.681,15.679 l -4.732,0 0,6.353 47.227,0 0,-6.353 -3.123,0 c -7.776,0 -14.08,-6.303 -14.08,-14.079 l 0,-130.16 -6.171,0 -97.076,116.048 c -0.279,0.333 -0.822,0.135 -0.822,-0.299 l 0,-89.535 c 0,-9.191 7.451,-16.641 16.641,-16.641 l 3.79,0 0,-5.743 -49.814,0 0,5.743 5.104,0 c 7.776,0 14.08,6.304 14.08,14.08 l 0,105.567 -7.052,8.428 -2.642,3.156 c -1.817,2.172 -4.522,3.435 -7.355,3.435 l -2.135,0 0,6.353 z"
                   style="fill:url(#linearGradient87);stroke:none"
                   id="path99"
                   inkscape:connector-curvature="0" /></g></g></g></g></g></g></g></svg>