<?xml version="1.0" encoding="utf-8"?>
<!DOCTYPE svg PUBLIC "-//W3C//DTD SVG 1.1//EN" "http://www.w3.org/Graphics/SVG/1.1/DTD/svg11.dtd" [
	<!ENTITY ns_flows "http://ns.adobe.com/Flows/1.0/">
]>
<svg version="1.1"
	 xmlns="http://www.w3.org/2000/svg" xmlns:xlink="http://www.w3.org/1999/xlink" xmlns:a="http://ns.adobe.com/AdobeSVGViewerExtensions/3.0/"
	 x="0px" y="0px" width="278px" height="360px" viewBox="0 0 278 360" enable-background="new 0 0 278 360" xml:space="preserve">
<defs>
</defs>
<path d="M273.392,76.212l-0.975-5.173l-5.143-1.074c-0.35-0.065-34.389-7.21-64.679-24.118
	c-43.161-24.175-57.704-39.432-57.832-39.573L138.996,0l-5.768,6.243c-0.149,0.159-14.723,15.45-57.853,39.599
	c-30.274,16.897-64.34,24.058-64.692,24.123l-5.15,1.074l-0.959,5.173c-6.013,32.292-6.099,64.828-0.245,96.763l2.615,12.715
	l0.728,2.941c8.24,33.502,22.793,64.799,43.299,93.034c22.238,30.639,50.504,56.303,83.994,76.303l4.011,2.399l4.026-2.399
	c33.487-20,61.743-45.664,83.991-76.303c20.506-28.235,35.057-59.521,43.297-93.034l3.343-15.656
	C279.488,141.04,279.41,108.516,273.392,76.212"/>
<path fill="#F89728" d="M265.689,77.642c0,0-35.266-7.268-66.912-24.96c-45.519-25.479-59.79-41.117-59.79-41.117
	s-14.29,15.638-59.79,41.117c-31.664,17.692-66.922,24.96-66.922,24.96c-6.503,34.911-5.739,69.863,1.62,103.154h250.166
	C271.426,147.504,272.182,112.552,265.689,77.642"/>
<path fill="#B30838" d="M138.991,351.232c66.233-39.547,109.843-101.447,125.071-170.434H13.893
	C29.145,249.785,72.726,311.685,138.991,351.232"/>
<path fill="#010101" d="M109.749,289.4v-3.942c0-0.72,0-1.069-0.449-1.069c-0.561,0-2.798,1.147-3.444,1.424
	c-0.149,0.063-0.305,0.13-0.423,0.13c-0.091,0-0.24-0.167-0.24-0.35c0-0.177,0.149-0.318,0.295-0.407
	c0.127-0.078,5.846-3.849,6.889-4.631c0.266-0.172,0.532-0.391,0.767-0.391c0.274,0,0.36,0.339,0.36,0.636
	c0,0.24-0.183,3.207-0.183,7.812v5.56c0,2.889,0,5.439,0.123,6.774c0.086,0.96,0.24,1.398,1.187,1.617
	c0.454,0.079,1.729,0.178,1.971,0.178c0.118,0,0.266,0.088,0.266,0.302c0,0.208-0.148,0.266-0.475,0.266
	c-2.266,0-4.167-0.089-4.978-0.089c-0.673,0-3.179,0.089-5.095,0.089c-0.321,0-0.495-0.058-0.495-0.266
	c0-0.214,0.112-0.302,0.24-0.302c0.326,0,1.841-0.099,2.381-0.219c0.952-0.208,1.1-0.615,1.191-1.575
	c0.112-1.335,0.177-3.885,0.144-6.774L109.749,289.4z"/>
<path fill="none" stroke="#000000" stroke-width="0.165" stroke-miterlimit="10" d="M109.749,289.4v-3.942
	c0-0.72,0-1.069-0.449-1.069c-0.561,0-2.798,1.147-3.444,1.424c-0.149,0.063-0.305,0.13-0.423,0.13c-0.091,0-0.24-0.167-0.24-0.35
	c0-0.177,0.149-0.318,0.295-0.407c0.127-0.078,5.846-3.849,6.889-4.631c0.266-0.172,0.532-0.391,0.767-0.391
	c0.274,0,0.36,0.339,0.36,0.636c0,0.24-0.183,3.207-0.183,7.812v5.56c0,2.889,0,5.439,0.123,6.774
	c0.086,0.96,0.24,1.398,1.187,1.617c0.454,0.079,1.729,0.178,1.971,0.178c0.118,0,0.266,0.088,0.266,0.308
	c0,0.203-0.148,0.261-0.475,0.261c-2.266,0-4.167-0.089-4.978-0.089c-0.673,0-3.179,0.089-5.095,0.089
	c-0.321,0-0.495-0.058-0.495-0.261c0-0.219,0.112-0.308,0.24-0.308c0.326,0,1.841-0.099,2.381-0.219
	c0.952-0.208,1.1-0.615,1.191-1.575c0.112-1.335,0.177-3.885,0.144-6.774L109.749,289.4z"/>
<path fill="#010101" d="M136.331,288.336c0,8.417-7.296,13.711-10.981,15.463c-0.143,0.078-0.292,0.12-0.526,0.12
	c-0.13,0-0.279-0.151-0.279-0.308c0-0.219,0.208-0.391,0.357-0.5c3.092-1.904,7.739-6.842,7.739-13.93
	c0-5.32-2.232-7.661-4.529-7.661c-2.136,0-3.567,1.924-3.567,4.475c0,4.594,2.949,5.679,3.963,5.679c1.041,0,1.638-0.177,2.024-0.36
	c0.321-0.177,0.479-0.318,0.592-0.318c0.117,0,0.235,0.12,0.235,0.261c0,0.088-0.089,0.287-0.149,0.328
	c-0.86,0.934-2.404,1.382-3.924,1.382c-4.29,0-6.073-3.275-6.073-5.799c0-4.063,3.033-7.009,7.622-7.009
	C133.682,280.159,136.331,283.773,136.331,288.336"/>
<path fill="none" stroke="#000000" stroke-width="0.165" stroke-miterlimit="10" d="M136.331,288.336
	c0,8.417-7.296,13.711-10.981,15.463c-0.143,0.078-0.292,0.12-0.526,0.12c-0.13,0-0.279-0.151-0.279-0.308
	c0-0.219,0.208-0.391,0.357-0.5c3.092-1.904,7.739-6.842,7.739-13.93c0-5.32-2.232-7.661-4.529-7.661
	c-2.136,0-3.567,1.924-3.567,4.475c0,4.594,2.949,5.679,3.963,5.679c1.041,0,1.638-0.177,2.024-0.36
	c0.321-0.177,0.479-0.318,0.592-0.318c0.117,0,0.235,0.12,0.235,0.261c0,0.088-0.089,0.287-0.149,0.328
	c-0.86,0.934-2.404,1.382-3.924,1.382c-4.29,0-6.073-3.275-6.073-5.799c0-4.063,3.033-7.004,7.622-7.004
	C133.682,280.164,136.331,283.773,136.331,288.336z"/>
<path fill="#010101" d="M139.403,303.22c-0.209,0-0.412-0.177-0.412-0.417c0-0.24,0.29-0.511,0.589-0.788
	c4.164-3.687,10.091-8.391,10.091-14.728c0-4.751-2.595-5.716-4.083-5.716c-1.272,0-2.261,0.245-3.158,1.085
	c-0.699,0.699-1.249,2.102-1.249,2.879c0,0.308-0.086,0.589-0.378,0.589c-0.156,0-0.242-0.219-0.273-0.589
	c-0.026-0.261-0.175-2.759-0.175-3.625c0-0.271,0.031-0.391,0.362-0.61c1.153-0.6,2.762-1.137,5.382-1.137
	c5.241,0,7.463,2.889,7.463,6.399c0,5.836-6.389,10.92-10.235,14.019c-0.149,0.099-0.089,0.198,0.06,0.198h2.029
	c0.508,0,4.016-0.021,5.121-0.167c2.055-0.25,3.025-1.268,3.39-2.681c0.083-0.36,0.172-0.48,0.36-0.48
	c0.198,0,0.234,0.271,0.234,0.569c0,0.485-0.563,3.285-0.86,4.292c-0.24,0.808-0.72,0.907-2.592,0.907H139.403z"/>
<path fill="none" stroke="#000000" stroke-width="0.165" stroke-miterlimit="10" d="M139.403,303.22
	c-0.209,0-0.412-0.177-0.412-0.417c0-0.24,0.29-0.511,0.589-0.788c4.164-3.687,10.091-8.391,10.091-14.728
	c0-4.751-2.595-5.71-4.083-5.71c-1.272,0-2.261,0.24-3.158,1.08c-0.699,0.704-1.249,2.102-1.249,2.879
	c0,0.308-0.086,0.589-0.378,0.589c-0.156,0-0.242-0.219-0.273-0.589c-0.026-0.261-0.175-2.759-0.175-3.625
	c0-0.271,0.031-0.391,0.362-0.61c1.153-0.6,2.762-1.137,5.382-1.137c5.241,0,7.463,2.889,7.463,6.399
	c0,5.836-6.389,10.92-10.235,14.019c-0.149,0.099-0.089,0.198,0.06,0.198h2.029c0.508,0,4.016-0.021,5.121-0.162
	c2.055-0.256,3.025-1.273,3.39-2.686c0.083-0.36,0.172-0.48,0.36-0.48c0.198,0,0.234,0.276,0.234,0.569
	c0,0.485-0.563,3.285-0.86,4.292c-0.24,0.808-0.72,0.907-2.592,0.907H139.403z"/>
<path fill="#010101" d="M172.055,280.67c0.563,0,0.709,0.099,0.709,0.24c0,0.188-0.115,0.428-0.208,0.547
	c-2.467,3.546-7.113,15.484-7.562,19.328c-0.047,0.517,0,0.709,0,1.126c0,0.589-2.399,1.815-3.745,1.815
	c-0.339,0-0.417-0.088-0.417-0.349c0-0.318,0.057-0.767,0.208-1.236c0.829-2.889,4.642-11.755,8.746-18.691h-7.708
	c-0.83,0-2.076,0.057-2.791,0.537c-0.547,0.36-0.928,1.324-0.991,1.794c-0.026,0.24-0.115,0.407-0.292,0.407
	c-0.208,0-0.24-0.167-0.24-0.475c0-1.09,0.448-4.616,0.448-4.923c0-0.281,0.115-0.417,0.292-0.417s0.866,0.297,4.021,0.297H172.055z
	"/>
<path fill="none" stroke="#000000" stroke-width="0.165" stroke-miterlimit="10" d="M172.055,280.67c0.563,0,0.709,0.099,0.709,0.24
	c0,0.188-0.115,0.428-0.208,0.547c-2.467,3.546-7.113,15.484-7.562,19.328c-0.047,0.517,0,0.709,0,1.126
	c0,0.589-2.399,1.815-3.745,1.815c-0.339,0-0.417-0.088-0.417-0.349c0-0.318,0.057-0.767,0.208-1.236
	c0.829-2.889,4.642-11.755,8.746-18.691h-7.708c-0.83,0-2.076,0.057-2.791,0.537c-0.547,0.36-0.928,1.324-0.991,1.794
	c-0.026,0.24-0.115,0.407-0.292,0.407c-0.208,0-0.24-0.167-0.24-0.475c0-1.09,0.448-4.616,0.448-4.923
	c0-0.281,0.115-0.417,0.292-0.417s0.866,0.297,4.021,0.297H172.055z"/>
<path fill="#C9CACC" d="M109.749,288.315v-3.927c0-0.725,0-1.085-0.449-1.085c-0.561,0-2.788,1.158-3.444,1.435
	c-0.149,0.063-0.305,0.13-0.423,0.13c-0.081,0-0.24-0.151-0.24-0.339c0-0.177,0.159-0.328,0.295-0.417
	c0.127-0.073,5.846-3.849,6.889-4.626c0.255-0.188,0.532-0.407,0.767-0.407c0.274,0,0.36,0.339,0.36,0.646
	c0,0.229-0.183,3.208-0.183,7.813v5.56c0,2.889,0,5.45,0.123,6.753c0.086,0.98,0.24,1.419,1.187,1.638
	c0.454,0.078,1.729,0.167,1.971,0.167c0.118,0,0.266,0.099,0.266,0.329c0,0.198-0.148,0.24-0.475,0.24
	c-2.266,0-4.167-0.078-4.978-0.078c-0.673,0-3.179,0.078-5.084,0.078c-0.332,0-0.506-0.042-0.506-0.24
	c0-0.229,0.112-0.329,0.24-0.329c0.326,0,1.841-0.089,2.381-0.198c0.952-0.219,1.1-0.626,1.191-1.606
	c0.112-1.304,0.177-3.864,0.144-6.753L109.749,288.315z"/>
<path fill="none" stroke="#C9CACC" stroke-width="0.165" stroke-miterlimit="10" d="M109.749,288.315v-3.927
	c0-0.725,0-1.085-0.449-1.085c-0.561,0-2.788,1.163-3.444,1.435c-0.149,0.063-0.305,0.13-0.423,0.13c-0.081,0-0.24-0.151-0.24-0.339
	c0-0.177,0.159-0.328,0.295-0.417c0.127-0.073,5.846-3.849,6.889-4.626c0.255-0.188,0.532-0.407,0.767-0.407
	c0.274,0,0.36,0.339,0.36,0.646c0,0.229-0.183,3.208-0.183,7.813v5.56c0,2.889,0,5.45,0.123,6.753
	c0.086,0.986,0.24,1.419,1.187,1.638c0.454,0.078,1.729,0.167,1.971,0.167c0.118,0,0.266,0.099,0.266,0.329
	c0,0.198-0.148,0.24-0.475,0.24c-2.266,0-4.167-0.078-4.978-0.078c-0.673,0-3.179,0.078-5.084,0.078
	c-0.332,0-0.506-0.042-0.506-0.24c0-0.229,0.112-0.329,0.24-0.329c0.326,0,1.841-0.089,2.381-0.198
	c0.952-0.219,1.1-0.621,1.191-1.606c0.112-1.304,0.177-3.864,0.144-6.753L109.749,288.315z"/>
<path fill="#C9CACC" d="M136.331,287.262c0,8.417-7.296,13.711-10.981,15.463c-0.154,0.078-0.292,0.12-0.537,0.12
	c-0.12,0-0.269-0.167-0.269-0.318c0-0.209,0.208-0.381,0.357-0.501c3.092-1.903,7.739-6.832,7.739-13.919
	c0-5.319-2.232-7.677-4.519-7.677c-2.146,0-3.578,1.93-3.578,4.49c0,4.595,2.949,5.69,3.963,5.69c1.041,0,1.638-0.188,2.024-0.36
	c0.321-0.198,0.479-0.339,0.592-0.339c0.117,0,0.235,0.13,0.235,0.271c0,0.079-0.089,0.261-0.149,0.329
	c-0.86,0.934-2.404,1.367-3.924,1.367c-4.29,0-6.073-3.26-6.073-5.789c0-4.058,3.033-7.004,7.622-7.004
	C133.682,279.084,136.331,282.698,136.331,287.262"/>
<path fill="none" stroke="#C9CACC" stroke-width="0.165" stroke-miterlimit="10" d="M136.331,287.262
	c0,8.417-7.296,13.711-10.981,15.463c-0.154,0.078-0.292,0.12-0.537,0.12c-0.12,0-0.269-0.167-0.269-0.318
	c0-0.209,0.208-0.381,0.357-0.501c3.092-1.903,7.739-6.832,7.739-13.919c0-5.319-2.232-7.677-4.519-7.677
	c-2.146,0-3.578,1.93-3.578,4.49c0,4.595,2.949,5.69,3.963,5.69c1.041,0,1.638-0.188,2.024-0.36
	c0.321-0.198,0.479-0.339,0.592-0.339c0.117,0,0.235,0.13,0.235,0.271c0,0.079-0.089,0.261-0.149,0.329
	c-0.86,0.934-2.404,1.372-3.924,1.372c-4.29,0-6.073-3.265-6.073-5.794c0-4.058,3.033-7.004,7.622-7.004
	C133.682,279.084,136.331,282.698,136.331,287.262z"/>
<path fill="#C9CACC" d="M139.403,302.146c-0.209,0-0.412-0.162-0.412-0.428c0-0.229,0.29-0.511,0.589-0.777
	c4.164-3.698,10.091-8.381,10.091-14.728c0-4.751-2.595-5.71-4.083-5.71c-1.272,0-2.261,0.24-3.158,1.069
	c-0.699,0.704-1.249,2.112-1.249,2.89c0,0.318-0.086,0.579-0.378,0.579c-0.156,0-0.242-0.219-0.273-0.579
	c-0.031-0.261-0.175-2.759-0.175-3.635c0-0.271,0.031-0.391,0.362-0.6c1.153-0.6,2.762-1.137,5.382-1.137
	c5.241,0,7.463,2.89,7.463,6.41c0,5.815-6.389,10.9-10.235,14.008c-0.149,0.099-0.089,0.208,0.06,0.208h2.029
	c0.508,0,4.016-0.042,5.121-0.183c2.055-0.245,3.025-1.272,3.39-2.67c0.083-0.375,0.182-0.485,0.36-0.485
	c0.208,0,0.234,0.276,0.234,0.558c0,0.496-0.563,3.296-0.86,4.303c-0.24,0.808-0.72,0.907-2.592,0.907H139.403z"/>
<path fill="none" stroke="#C9CACC" stroke-width="0.165" stroke-miterlimit="10" d="M139.403,302.146
	c-0.209,0-0.412-0.162-0.412-0.428c0-0.229,0.29-0.511,0.589-0.777c4.164-3.698,10.091-8.381,10.091-14.728
	c0-4.751-2.595-5.71-4.083-5.71c-1.272,0-2.261,0.24-3.158,1.069c-0.699,0.704-1.249,2.112-1.249,2.89
	c0,0.318-0.086,0.579-0.378,0.579c-0.156,0-0.242-0.219-0.273-0.579c-0.031-0.261-0.175-2.759-0.175-3.63
	c0-0.276,0.031-0.396,0.362-0.605c1.153-0.6,2.762-1.137,5.382-1.137c5.241,0,7.463,2.89,7.463,6.415
	c0,5.81-6.389,10.895-10.235,14.003c-0.149,0.099-0.089,0.208,0.06,0.208h2.029c0.508,0,4.016-0.042,5.121-0.183
	c2.055-0.245,3.025-1.272,3.39-2.67c0.083-0.375,0.182-0.485,0.36-0.485c0.208,0,0.234,0.276,0.234,0.558
	c0,0.496-0.563,3.296-0.86,4.303c-0.24,0.808-0.72,0.907-2.592,0.907H139.403z"/>
<path fill="#C9CACC" d="M172.055,279.595c0.563,0,0.709,0.11,0.709,0.24c0,0.188-0.115,0.428-0.208,0.537
	c-2.467,3.557-7.113,15.484-7.562,19.348c-0.047,0.501,0,0.709,0,1.116c0,0.579-2.399,1.815-3.745,1.815
	c-0.339,0-0.417-0.089-0.417-0.36c0-0.308,0.057-0.746,0.208-1.226c0.829-2.889,4.642-11.766,8.746-18.702h-7.708
	c-0.83,0-2.076,0.052-2.791,0.537c-0.547,0.36-0.928,1.335-0.991,1.815c-0.026,0.24-0.115,0.386-0.292,0.386
	c-0.208,0-0.24-0.146-0.24-0.448c0-1.132,0.438-4.631,0.438-4.939c0-0.297,0.125-0.428,0.302-0.428s0.866,0.308,4.021,0.308H172.055
	z"/>
<path fill="none" stroke="#C9CACC" stroke-width="0.165" stroke-miterlimit="10" d="M172.055,279.595c0.563,0,0.709,0.11,0.709,0.24
	c0,0.188-0.115,0.428-0.208,0.537c-2.467,3.557-7.113,15.484-7.562,19.348c-0.047,0.506,0,0.709,0,1.116
	c0,0.579-2.399,1.815-3.745,1.815c-0.339,0-0.417-0.089-0.417-0.36c0-0.308,0.057-0.746,0.208-1.226
	c0.829-2.889,4.642-11.766,8.746-18.702h-7.708c-0.83,0-2.076,0.057-2.791,0.537c-0.547,0.36-0.928,1.335-0.991,1.815
	c-0.026,0.24-0.115,0.386-0.292,0.386c-0.208,0-0.24-0.146-0.24-0.448c0-1.132,0.438-4.631,0.438-4.939
	c0-0.297,0.125-0.428,0.302-0.428s0.866,0.308,4.021,0.308H172.055z"/>
<path fill="#010101" d="M50.465,227.714c0-8.49,0-10.055-0.117-11.838c-0.112-1.893-0.556-2.79-2.404-3.197
	c-0.454-0.11-1.4-0.162-2.18-0.162c-0.613,0-0.949-0.109-0.949-0.506c0-0.38,0.388-0.5,1.228-0.5c2.959,0,6.482,0.183,7.659,0.183
	c1.896,0,6.141-0.183,7.877-0.183c3.518,0,7.257,0.339,10.274,2.404c1.564,1.064,3.792,3.922,3.792,7.651
	c0,4.135-1.731,7.932-7.359,12.511c4.96,6.258,8.822,11.233,12.112,14.696c3.135,3.249,5.432,3.64,6.258,3.797
	c0.616,0.12,1.122,0.172,1.56,0.172c0.459,0,0.673,0.177,0.673,0.438c0,0.449-0.378,0.569-1.051,0.569h-5.304
	c-3.134,0-4.529-0.271-5.992-1.059c-2.396-1.293-4.519-3.917-7.643-8.208c-2.242-3.087-4.811-6.884-5.536-7.713
	c-0.279-0.339-0.621-0.396-1.004-0.396l-4.861-0.109c-0.279,0-0.443,0.109-0.443,0.438v0.788c0,5.2,0,9.622,0.271,11.953
	c0.172,1.627,0.508,2.853,2.18,3.072c0.845,0.12,2.073,0.229,2.741,0.229c0.449,0,0.673,0.177,0.673,0.438
	c0,0.407-0.401,0.569-1.111,0.569c-3.26,0-7.387-0.162-8.219-0.162c-1.064,0-4.587,0.162-6.813,0.162
	c-0.733,0-1.124-0.162-1.124-0.569c0-0.261,0.224-0.438,0.892-0.438c0.845,0,1.513-0.109,2.021-0.229
	c1.111-0.219,1.398-1.444,1.617-3.072c0.284-2.331,0.284-6.753,0.284-11.885V227.714z M57.054,232.126
	c0,0.615,0.112,0.845,0.501,0.996c1.166,0.417,2.847,0.579,4.253,0.579c2.227,0,2.947-0.24,3.956-0.96
	c1.671-1.22,3.301-3.802,3.301-8.375c0-7.932-5.244-10.222-8.556-10.222c-1.39,0-2.399,0.057-2.954,0.219
	c-0.389,0.11-0.501,0.329-0.501,0.777V232.126z"/>
<path fill="#010101" d="M86.552,232.627c0-9.539,6.318-21.883,23.069-21.883c13.912,0,22.574,8.11,22.574,20.876
	c0,12.803-8.934,22.905-23.129,22.905C93.029,254.526,86.552,242.51,86.552,232.627 M124.373,233.702
	c0-12.527-7.21-20.287-16.358-20.287c-6.446,0-13.757,3.567-13.757,17.486c0,11.609,6.425,20.835,17.142,20.835
	C115.327,251.736,124.373,249.843,124.373,233.702"/>
<path fill="#010101" d="M140.915,212.194c0.162-0.949,0.498-1.444,0.947-1.444c0.448,0,0.779,0.25,1.51,1.716l15.249,31.062
	l15.197-31.453c0.448-0.887,0.714-1.325,1.231-1.325c0.49,0,0.829,0.537,0.996,1.716l5.084,34.191
	c0.511,3.51,1.064,5.132,2.738,5.643c1.622,0.506,2.738,0.563,3.468,0.563c0.501,0,0.897,0.052,0.897,0.38
	c0,0.449-0.678,0.621-1.455,0.621c-1.403,0-9.111-0.115-11.343-0.282c-1.283-0.11-1.617-0.282-1.617-0.616
	c0-0.281,0.214-0.448,0.605-0.61c0.344-0.12,0.506-0.845,0.282-2.42l-3.348-24.282h-0.225l-12.177,24.918
	c-1.283,2.613-1.564,3.119-2.065,3.119c-0.511,0-1.064-1.116-1.956-2.79c-1.346-2.561-5.747-11.108-6.43-12.684
	c-0.501-1.173-3.854-7.76-5.805-11.953h-0.224l-2.905,21.779c-0.107,1.006-0.167,1.742-0.167,2.628c0,1.059,0.732,1.564,1.674,1.794
	c1.015,0.219,1.789,0.282,2.35,0.282c0.448,0,0.842,0.115,0.842,0.386c0,0.501-0.511,0.616-1.346,0.616
	c-2.344,0-4.866-0.167-5.864-0.167c-1.067,0-3.742,0.167-5.536,0.167c-0.556,0-1.004-0.115-1.004-0.616
	c0-0.271,0.331-0.386,0.897-0.386c0.449,0,0.837,0,1.677-0.172c1.559-0.339,2.008-2.519,2.29-4.412L140.915,212.194z"/>
<path fill="#010101" d="M202.152,239.506c-0.297,0-0.396,0.099-0.517,0.438l-3.014,7.661c-0.553,1.387-0.834,2.738-0.834,3.416
	c0,0.997,0.5,1.727,2.227,1.727h0.84c0.667,0,0.834,0.109,0.834,0.438c0,0.449-0.323,0.558-0.939,0.558
	c-1.783,0-4.183-0.162-5.924-0.162c-0.615,0-3.682,0.162-6.592,0.162c-0.73,0-1.064-0.109-1.064-0.558
	c0-0.329,0.229-0.438,0.678-0.438c0.501,0,1.283-0.063,1.731-0.12c2.561-0.329,3.62-2.232,4.746-5.022l14.008-34.634
	c0.678-1.622,1.012-2.222,1.575-2.222c0.5,0,0.845,0.49,1.397,1.773c1.34,3.072,10.279,25.419,13.852,33.915
	c2.123,5.022,3.75,5.799,4.923,6.081c0.84,0.167,1.669,0.229,2.347,0.229c0.438,0,0.72,0.057,0.72,0.438
	c0,0.449-0.5,0.558-2.566,0.558c-2.013,0-6.091,0-10.556-0.109c-1.012-0.052-1.679-0.052-1.679-0.449c0-0.329,0.219-0.438,0.782-0.5
	c0.386-0.11,0.783-0.616,0.511-1.283l-4.475-11.5c-0.125-0.297-0.287-0.396-0.563-0.396H202.152z M213.542,236.706
	c0.271,0,0.329-0.151,0.271-0.329l-5.033-13.742c-0.042-0.229-0.104-0.506-0.271-0.506c-0.177,0-0.276,0.276-0.329,0.506
	l-5.137,13.69c-0.063,0.229,0,0.381,0.208,0.381H213.542z"/>
<path fill="#F89728" d="M50.465,226.473c0-8.49,0-10.055-0.117-11.838c-0.112-1.904-0.556-2.79-2.404-3.197
	c-0.454-0.099-1.4-0.172-2.18-0.172c-0.613,0-0.949-0.099-0.949-0.506c0-0.37,0.388-0.49,1.228-0.49
	c2.959,0,6.482,0.162,7.659,0.162c1.896,0,6.141-0.162,7.877-0.162c3.518,0,7.257,0.35,10.274,2.394
	c1.564,1.063,3.792,3.921,3.792,7.661c0,4.135-1.731,7.932-7.359,12.511c4.96,6.258,8.822,11.233,12.112,14.696
	c3.135,3.239,5.432,3.63,6.258,3.807c0.616,0.109,1.122,0.151,1.56,0.151c0.459,0,0.673,0.177,0.673,0.448
	c0,0.449-0.378,0.568-1.051,0.568h-5.304c-3.134,0-4.529-0.281-5.992-1.059c-2.396-1.304-4.519-3.917-7.643-8.208
	c-2.242-3.077-4.811-6.884-5.536-7.713c-0.279-0.339-0.621-0.396-1.004-0.396l-4.861-0.12c-0.279,0-0.443,0.12-0.443,0.448v0.788
	c0,5.2,0,9.606,0.271,11.953c0.172,1.617,0.508,2.853,2.18,3.062c0.845,0.12,2.073,0.229,2.741,0.229
	c0.449,0,0.673,0.177,0.673,0.448c0,0.407-0.401,0.568-1.111,0.568c-3.26,0-7.387-0.162-8.219-0.162
	c-1.064,0-4.587,0.162-6.813,0.162c-0.733,0-1.124-0.162-1.124-0.568c0-0.271,0.224-0.448,0.892-0.448
	c0.845,0,1.513-0.109,2.021-0.229c1.111-0.208,1.398-1.445,1.617-3.062c0.284-2.347,0.284-6.753,0.284-11.896V226.473z
	 M57.054,230.885c0,0.626,0.112,0.834,0.501,1.007c1.166,0.38,2.847,0.558,4.253,0.558c2.227,0,2.947-0.219,3.956-0.938
	c1.671-1.241,3.301-3.823,3.301-8.396c0-7.922-5.244-10.222-8.556-10.222c-1.39,0-2.399,0.067-2.954,0.219
	c-0.389,0.109-0.501,0.339-0.501,0.788V230.885z"/>
<path fill="#F89728" d="M86.552,231.386c0-9.549,6.318-21.893,23.069-21.893c13.912,0,22.574,8.104,22.574,20.892
	s-8.934,22.9-23.129,22.9C93.029,253.285,86.552,241.269,86.552,231.386 M124.373,232.45c0-12.517-7.21-20.287-16.358-20.287
	c-6.446,0-13.757,3.588-13.757,17.497c0,11.609,6.425,20.824,17.142,20.824C115.327,250.484,124.373,248.581,124.373,232.45"/>
<path fill="#F89728" d="M140.915,210.932c0.162-0.949,0.498-1.445,0.947-1.445c0.448,0,0.779,0.287,1.51,1.731l15.249,31.057
	l15.197-31.442c0.448-0.897,0.714-1.346,1.231-1.346c0.49,0,0.839,0.558,0.996,1.731l5.095,34.186
	c0.5,3.515,1.053,5.143,2.728,5.659c1.622,0.49,2.738,0.547,3.468,0.547c0.501,0,0.897,0.052,0.897,0.381
	c0,0.459-0.678,0.626-1.455,0.626c-1.403,0-9.111-0.11-11.343-0.276c-1.283-0.12-1.617-0.282-1.617-0.61
	c0-0.287,0.214-0.459,0.605-0.626c0.344-0.109,0.506-0.839,0.282-2.404l-3.348-24.308h-0.225l-12.177,24.929
	c-1.283,2.628-1.564,3.129-2.065,3.129c-0.511,0-1.064-1.116-1.956-2.8c-1.346-2.561-5.747-11.109-6.43-12.673
	c-0.501-1.179-3.854-7.771-5.805-11.948h-0.224l-2.905,21.773c-0.107,1.012-0.167,1.742-0.167,2.628
	c0,1.053,0.732,1.564,1.674,1.794c1.015,0.219,1.789,0.276,2.35,0.276c0.448,0,0.842,0.109,0.842,0.391
	c0,0.506-0.511,0.615-1.346,0.615c-2.344,0-4.866-0.167-5.864-0.167c-1.067,0-3.742,0.167-5.536,0.167
	c-0.556,0-1.004-0.109-1.004-0.615c0-0.282,0.331-0.391,0.897-0.391c0.449,0,0.837,0,1.677-0.167
	c1.559-0.339,2.008-2.519,2.29-4.417L140.915,210.932z"/>
<path fill="#F89728" d="M202.152,238.254c-0.297,0-0.396,0.12-0.517,0.438l-3.014,7.672c-0.553,1.397-0.834,2.732-0.834,3.4
	c0,1.001,0.5,1.731,2.227,1.731h0.84c0.667,0,0.834,0.11,0.834,0.449c0,0.449-0.323,0.558-0.939,0.558
	c-1.783,0-4.183-0.162-5.924-0.162c-0.615,0-3.682,0.162-6.592,0.162c-0.73,0-1.064-0.109-1.064-0.558
	c0-0.339,0.229-0.449,0.678-0.449c0.501,0,1.283-0.052,1.731-0.12c2.561-0.318,3.62-2.222,4.746-5.012l14.008-34.634
	c0.678-1.622,1.012-2.237,1.575-2.237c0.5,0,0.845,0.495,1.397,1.773c1.34,3.087,10.279,25.424,13.852,33.915
	c2.123,5.033,3.75,5.815,4.923,6.086c0.84,0.178,1.669,0.229,2.347,0.229c0.438,0,0.72,0.068,0.72,0.449
	c0,0.449-0.5,0.558-2.566,0.558c-2.013,0-6.091,0-10.556-0.109c-1.012-0.052-1.679-0.052-1.679-0.449c0-0.339,0.219-0.449,0.782-0.5
	c0.386-0.099,0.783-0.616,0.511-1.293l-4.475-11.505c-0.125-0.271-0.287-0.391-0.563-0.391H202.152z M213.542,235.464
	c0.271,0,0.329-0.167,0.271-0.329l-5.033-13.758c-0.042-0.219-0.104-0.49-0.271-0.49c-0.177,0-0.276,0.271-0.329,0.49l-5.137,13.7
	c-0.063,0.219,0,0.386,0.208,0.386H213.542z"/>
<line fill="none" stroke="#000000" stroke-width="0.418" stroke-linecap="round" stroke-miterlimit="10" x1="11.906" y1="180.798" x2="266.06" y2="180.798"/>
<path d="M242.241,158.957c-0.688-0.876-1.471-1.815-2.273-2.788c-3.588-4.357-11.588-15.093-11.588-15.093
	c0-34.866-6.237-41.364-12.663-46.84c-5.664-4.822-14.696-7.289-24.392-8.785c-2.634-0.415-5.528-0.592-8.86-0.592
	c-3.223,0-6.493,0.167-9.638,0.341c-2.603,0.149-48.074,2.058-62.661-0.404c-6.36-1.075-15.176,0.164-20.42,0.795
	c-2.404,0.276-15.531,2.375-17.075-0.107c-0.297-0.47-0.276-1.502-0.148-2.67c0.177-1.828,0.923-4.05-0.501-6.042
	c-1.966-2.738-4.112-5.682-5.293-5.682c-0.373,0-3.619,2.66-4.412,3.463c-1.322,1.335-1.739,3.522-1.682,6.07
	c0.034,1.564-0.068,1.259-0.185,1.377c-0.198,0.198-8.556,0.198-10.676,0.354c-0.005-0.428-0.076-2.597-1.497-4.663
	c-0.918-1.324-1.682-5.747-1.682-5.747s-3.027,5.244-4.047,6.655c-1.14,1.543-2.313,3.15-3.001,4.999
	c-0.263,0.704-0.315,1.554-0.375,2.376c-0.026,0.594-0.117,1.838-0.357,2.034c-1.606,1.171-2.498,2.782-2.66,4.809
	c-0.031,0.586,0.133,1.376,0.305,2.294c0.117,0.584,0.311,1.502,0.311,1.94c-0.162,0.118-0.316,0.219-0.482,0.326
	c-1.429,0.907-3.385,2.188-3.262,4.441c0.188,3.408,0.973,4.732,2.052,6.582c0.302,0.521,0.613,1.041,0.954,1.682
	c0.48,0.913,0.683,2.222,0.892,3.481c0.284,1.773-1.372,3.713-0.24,4.829c1.484,1.45,5.32,1.531,6.981,1.531
	c0.448,0,2.193-0.047,2.61-0.047c0.647,0,1.15,0.037,1.575,0.123c3.2,0.626,6.415,0.876,9.507,1.137
	c4.266,0.331,8.292,0.657,12.347,1.849c7.476,2.198,14.85,5.275,22.529,9.372c0.417,0.224,0.814,0.422,1.182,0.621
	c2.847,1.468,3.455,1.27,4.79,5.179c1.335,3.924-1.126,34.527-1.667,37.688c-0.86,5.111-2.487,8.199-5.142,9.168
	c-3.551,1.283-5.009,4.06-6.415,6.754c-0.449,0.876-0.383,1.924-0.928,2.8c0,0-1.161,1.272-0.77,1.596
	c0.383,0.333,3.99-0.532,3.99-0.532c1.228,0.073-0.097,0.72,1.132,0.72c3.038,0,6.707-0.021,10.441-2.164
	c1.564,0,0.516,1.992,1.963,1.726c4.459-0.809,4.876-4.245,5.416-7.528c0.913-5.518,0.78-6.48,1.395-6.991
	c0.613-0.514,2.595,0.326,3.124-0.274c0.404-0.449-0.039-4.475,0.19-8.112c0.326-5.184,1.747-11.268,3.296-16.271l0.081-0.261
	c0.336-1.105,0.842-2.451,1.382-3.862c1.458-3.823,3.231-8.464,3.022-12.19c1.593,0.271,1.854,0.368,2.762,1.627
	c0.133,0.198,0.381,0.595,0.646,1.009c1.758,2.879,2.66,3.685,3.813,3.685c0.117,0,0.245-0.011,0.347-0.042
	c1.896-0.49,2.918-2.099,3.99-4.214c1.069-2.065,2.164-4.214,3.948-4.607c0.068-0.013,0.144-0.034,0.245-0.034
	c1.447,0,3.99,1.293,5.437,3.536c3.2,4.957,5.927,1.492,6.183,1.084c0.37-0.571,2.934-4.806,3.564-5.789
	c0.772-1.181,1.252-1.293,1.429-1.293h0.042c1.564,0.24,8.355,8.396,10.775,7.846c2.347-0.263,4.954-9.202,6.394-9.202
	c0.068,0,0.141,0.01,0.219,0.031c0.339,0.284,1.147,1.502,1.695,2.313c1.805,2.746,2.201,4.571,3.625,4.571
	c0.459,0,1.252-0.394,1.727-1.585c0.13-0.326,0.678-1.667,0.756-1.815c0.089,0.107,1.293,4.169,4.235,0.566
	c-0.031-0.044-0.052-0.107-0.073-0.162c-0.011,0.034-0.021,0.055-0.031,0.075c0.01-0.021,0.021-0.042,0.031-0.075
	c-0.011-0.021-0.021-0.031-0.031-0.058c0.01,0.026,0.021,0.037,0.031,0.058c0.396-0.918,5.841,4.443,8.438,6.553
	c2.357,2.169,4.35,4.081,4.517,4.224c5.601,4.989,12.563,11.205,13.919,17.938c0.777,3.893,0.589,8.381-0.506,12.647
	c-0.24,0.892-0.47,1.416-0.688,1.554c-0.219,0.164-0.83,0.188-1.596,0.198c-0.349,0.011-0.73,0.026-1.168,0.068
	c-1.919,0.107-3.223,2.154-4.391,3.958c-0.521,0.832-1.205,1.523-1.565,2.136c-0.354,0.615,0.219,1.64,0.563,1.849
	c0.354,0.219,3.807,1.03,4.84,1.03c0.302,0,0.594-0.021,0.824-0.097c0.741,0.274,1.627,0.428,2.649,0.428
	c3.025,0,6.774-1.26,7.844-3.343c1.815-3.551,3.046-7.408,4.245-11.15c0.125-0.417,0.266-0.85,0.407-1.267
	c0.25-0.822,0.626-1.739,0.991-2.702c1.309-3.429,3.536-7.093,2.545-10.467c-0.517-1.779-2.316-3.507-3.463-5.03
	c-1.012-1.356-4.83-6.339-5.987-8.076c3.567,3.455,13.466,8.566,15.979,14.553c0.887,2.099-0.031,10.889-0.183,13.244
	c-0.078,1.111-0.13,2.253-0.167,3.393c-0.109,3.599-1.158,4.245-4.772,4.613c-3.129,0.321-4.573,4.952-5.34,7.445
	c-0.042,0.141-0.083,0.271-0.125,0.396l-0.365,1.158l1.215,0.208c0.464,0.073,0.986,0.172,1.544,0.282
	c2.258,0.417,6.065,1.831,8.72,1.831c3.166,0,5.387-0.756,6.795-2.3c1.82-1.972,2.514-5.528,3.14-8.657
	c0.229-1.168,1.533-5.361,2.002-6.874C244.312,168.115,247.258,164.454,242.241,158.957 M40.455,112.886
	c-1.095,0.678-1.507-1.228-1.507-1.228c-0.297-0.764-0.331-1.554,0.107-1.87c0.829,0.514,1.817,0.503,2.109,0.983
	C41.474,111.3,41.025,112.534,40.455,112.886"/>
<path fill="#C9CACC" d="M227.529,186.681c-0.35,0.657-1.57,0.79-1.998,0.938c-0.886,0.376-1.71,0.91-1.668,1.523
	c0,0.24-0.146,3.166,0,3.416c0.177,0.329,1.366,0.746,1.627,0.339c0.188-0.261-0.01-2.323,0.219-3.734
	c0.042-0.195,0.178-1.035,0.584-1.223C226.439,187.904,227.848,187.263,227.529,186.681"/>
<path fill="#C9CACC" d="M125.848,135.739c1.075-0.107,2.584-0.373,3.098-0.01c0.524,0.383,1.259,1.718,1.223,2.537
	c-0.049,0.811-2.714,5.098-2.889,5.296c-0.172,0.198-0.438,0.814-0.918,0.178c-0.482-0.657-1.319-7.236-1.319-7.236
	S124.904,135.846,125.848,135.739"/>
<path fill="#C9CACC" d="M241.099,161.147c-1.455-2.109-5.1-5.841-6.555-7.638c-1.94-2.375-10.827-12.806-10.827-12.806
	s-2.555-15.771-3.65-19.348c-0.688-2.295-2.618-18.911-15.479-27.936c0.694-1.163,9.022,5.375,12.037,10.462
	c5.465,9.233,7.796,33.341,7.796,33.341s3.468-36.822-16.016-44.614c-13.977-5.843-20.955-4.902-20.955-4.902
	s-9.679,5.81-3.838,16.853c1.116,2.154,13.852,21.677,14.666,23.21c7.244,13.581,30.269,29.393,34.462,33.693
	c0.219,0.24,4.188,2.824,4.454,5.703c0.052,0.534-5.382-3.119-5.31-2.441c0.741,6.809-0.063,19.883-0.167,21.372
	c-0.125,1.731-0.219,1.981-1.272,2.368c-1.043,0.368-2.138-0.626-2.775,1.158c-0.709,1.982-0.448,3.447,1.377,3.447
	s4.6,0.965,6.363-5.745c1.763-6.777,5.601-18.824,6.759-23.257C242.445,163.017,241.605,161.867,241.099,161.147"/>
<path fill="#C9CACC" d="M46.379,77.902c0,0,1.533,4.506,1.5,5.768c-0.021,1.28-0.415,1.376-0.415,1.376l-4.54,1.982
	c0,0,0.988-1.147,1.504-2.584C44.958,82.992,46.41,79.269,46.379,77.902"/>
<path fill="#C9CACC" d="M100.591,191.323c-0.096,0.065-0.219,0.078-0.255,0.021l-0.29-0.394c-0.031-0.055,0.011-0.162,0.112-0.242
	l0.229-0.149c0.096-0.07,0.224-0.081,0.258-0.026l0.287,0.394c0.049,0.055-0.01,0.157-0.107,0.243L100.591,191.323z"/>
<path fill="#C9CACC" d="M205.495,184.074c0,0-0.563-0.178-0.876,0.229c-0.428,0.581-0.626,2.782-0.626,2.782
	s0.532,0.667,1.502,0.273c0.97-0.365,2.941-1.843,2.315-2.323C207.174,184.553,205.495,184.074,205.495,184.074"/>
<path fill="#C9CACC" d="M203.753,183.02c0,0-0.876-0.01-1.272,0.428c-0.427,0.48-1.194,1.773-1.147,2.305
	c0.063,0.519,0.824,1.385,1.21,0.855C202.929,186.074,204.723,182.968,203.753,183.02"/>
<path fill="#C9CACC" d="M37.09,101.068c-1.024,1.606,1.922,3.012,2.665,2.146C40.316,101.026,38.089,100.234,37.09,101.068"/>
<path fill="#C9CACC" d="M40.976,101.892c-0.016-0.01-0.021-0.021-0.021-0.021S40.96,101.882,40.976,101.892"/>
<path fill="#C9CACC" d="M60.81,103.905c-1.489-1.763-2.584-4.704-1.606-5.254c0.975-0.535,1.917,0.208,2.514,0.55
	c0.887,0.49,1.335,0.164,1.272-1.02c-0.044-0.92-0.146-1.784-0.248-2.618c-0.297-2.516-1.622-5.28-2.657-6.386
	c-1.71-1.838-6.624-3.984-9.695-1.909c-0.886,0.605-1.554,1.588-2.125,2.751c-0.208,0.423,0.396,1.004,0.204,1.486
	c-1.127,2.738-2.84,5.912-4.843,7.956c-0.086,0.107,6.809,0.678,16.553,7.833c0.866,0.616-0.78,4.097-1.345,3.933
	c-0.297-0.042,0.988-2.931,0.021-3.471c-4.464-2.506-7.111-2.842-10.472-4.04c-0.806-0.281-3.15,1.197-3.747,0.637
	c-0.839-1.095-3.397-2.339-3.658-2.462c0.096,0.052,0.417,0.295,0.529,1.367c0.318,2.761-4.824,0-0.462,4.422
	c1.229,1.223,2.404,2.169,3.312,1.773c1.4-0.021,0.764,0.177,0.907,0.501l0.743,1.763c0.133,0.331,0.3,0.31,0.363-0.042l0.341-1.859
	c0.06-0.352,0.412-0.634,0.774-0.624c0,0,6.597,0.149,7.933,0.282c1.34,0.144,1.418,0.626,1.418,0.626
	c0.065,0.357,0.584,1.116-0.532,2.013c-0.813,0.647-2.761-0.709-4.321,0.556c-1.564,1.259-4.693,1.831-4.693,1.831
	c-0.371,0.065-0.764-0.133-0.91-0.475l-0.795-1.784c-0.138-0.336-0.276-0.326-0.31,0.047l-0.196,2.329
	c-0.034,0.355-0.141,0.647-0.229,0.667c-0.102,0-0.3-0.261-0.454-0.586l-0.06-0.112c-0.154-0.336-0.48-0.362-0.709-0.107
	l-0.401,0.469c-0.235,0.285-0.582,0.243-0.764-0.067l-0.159-0.243c-0.183-0.323-0.482-0.323-0.673,0l-0.248,0.386
	c-0.185,0.316-0.443,0.282-0.55-0.052l-0.089-0.253c-0.107-0.342-0.326-0.352-0.464-0.037c-0.107,0.24-0.263,0.29-0.375,0.143
	c-0.224,0.229-0.383,0.386-0.459,0.459c-0.198,0.188-0.646,0.595-0.667,0.973c-0.016,0.373,0.454,0.582,2.73,1.051
	c2.279,0.461,12.858-3.859,16.196-3.15c3.862,0.801,5.351-2.365,5.614-6.477c0-0.107-0.034-0.331-0.081-0.657
	C62.557,105.929,61.579,104.813,60.81,103.905"/>
<path d="M50.416,91.503c0,0,1.325-2.308,2.954-2.767c1.205-0.342,2.457,0.347,4.318,1.599c1.875,1.244,2.853,3.191,4.686,2.681
	c0.634-0.178-1.411,2.12-3.205,1.463c-0.433-0.162-3.124-4.637-5.742-4.571C53.427,89.908,51.74,90.233,50.416,91.503"/>
<path d="M55.213,89.352c-2.196-0.623-3.471,0.876-3.471,0.876c0.571-1.468,3.187-0.54,4.323-0.071
	c0.631,0.274,1.507,1.711,2.133,2.902c-0.707-0.701-1.671-1.452-2.506-1.533c-1.661-0.148-1.815,2.05-1.815,2.05l-0.84,1.048
	c0,0,0.107,0.266,1.385,0.266c1.275,0,5.734-0.047,6.329-0.592C61.339,93.77,57.615,90.054,55.213,89.352 M55.683,94.111
	c-0.396,0-0.72-0.407-0.72-0.907c0-0.48,0.324-0.897,0.72-0.897c0.402,0,0.918,0.417,0.918,0.928
	C56.601,93.715,56.084,94.111,55.683,94.111"/>
<path fill="#C9CACC" d="M89.415,189.247c0,0-1.692,3.4-1.731,3.755c-0.037,0.35,0.039,0.579,0.237,0.579
	c0.195,0,0.8,0.172,1.233-0.13c0.425-0.308,2.034-3.669,2.242-4.141C91.449,189.182,90.129,188.436,89.415,189.247"/>
<path fill="#C9CACC" d="M220.843,164.276c0.855-3.012-1.956-3.337-2.936,0.561c-0.323,1.345-4.219,15.492-4.631,19.194
	c-0.037,0.185,0.104,0.368,0.281,0.149C213.61,185.461,220.473,165.622,220.843,164.276"/>
<path fill="#C9CACC" d="M198.757,116.881c-0.016,0.086-0.183,0.123-0.375,0.096l-1.397-0.24c-0.204-0.044-0.344-0.138-0.334-0.219
	l0.042-0.193c0.01-0.081,0.188-0.112,0.386-0.091l1.387,0.25c0.177,0.034,0.339,0.136,0.329,0.208L198.757,116.881z"/>
<path fill="#C9CACC" d="M198.23,117.465c-0.011,0.086-0.12,0.133-0.25,0.112l-0.934-0.165c-0.141-0.023-0.24-0.104-0.208-0.188
	l0.026-0.188c0.021-0.096,0.141-0.133,0.276-0.107l0.913,0.162c0.136,0.021,0.229,0.102,0.209,0.185L198.23,117.465z"/>
<path fill="#C9CACC" d="M94.854,87.383c-6.835,1.304-16.41,1.88-21.617,1.168c-4.118-0.566-4.3-3.095-3.557-5.34
	c-3.813,3.765-5.849,2.292-5.935,1.828c-0.144-0.597,1.411,0,2.42-1.004c1.02-0.988,1.619-4.55,0.819-6.269
	c-0.809-1.71,0.067-1.4,0.067-1.4s2.125,0.214,3.056,2.756c0.597-2.542-2.923-5.706-4.065-4.978
	c-1.137,0.722-3.439,2.61-3.119,5.372c0.412,3.414,0.162,5.101-0.944,5.064c-7.468-0.336-15.831-1.335-20.475,3.502
	c0,0,5.632-3.711,9.958-3.307c4.315,0.396,13.173,1.272,13.708,11.659c0,0-0.097,2.339,0.102,5.053
	c0.097,1.437-1.27,0.517-1.254,1.153c0.052,2.879,2.099,2.44,1.932,4.923c-0.709,10.211-5.419,10.002-5.419,10.002
	s5.688,0.795,8.506-8.746c-0.011,5.473-0.587,6.85-2.798,8.986c4.347,0.273,7.76-3.833,7.862-4.454
	c0.644,1.038,1.877,4.396,5.126,5.768c-1.604-2.649-1.212-5.856-0.881-8.699c0.975,6.375,2.6,8.753,5.885,10.141
	c-1.325-1.335-4.01-4.224-3.205-9.397c0.623,4.422,5.794,8.357,5.794,8.357s-1.646-2.66-2.083-7.343
	c2.217,4.764,4.597,5.158,4.597,5.158s-3.674-3.867-4.302-8.887c-0.076-0.091,2.579,3.414,4.74,3.414
	c-1.661-1.992-4.292-4.827-4.582-8.407c1.656,2.139,2.853,3.536,4.764,3.755c-1.611-1.857-2.936-4.816-3.439-8.394
	c1.844,2.313,1.528,3.074,4.994,4.026c-1.34-1.309-2.263-4.913-1.596-6.649c0.597,1.213,2.899,2.451,5.643,2.809
	c-0.886-0.566-2.31-3.982-2.104-5.34c1.246,0.615,3.932,1.523,6.057,1.231c-1.009-0.595-1.721-3.601-1.411-4.305
	c0.566,0.362,4.621,0.3,5.479,0c-1.316-0.819-2.456-2.047-2.151-1.935c0.978,0.347,2.579-0.49,4.662-0.821
	c2.217-0.352,2.605-0.373,3.995-0.352C108.734,86.828,100.205,86.059,94.854,87.383"/>
<path fill="#C9CACC" d="M163.721,130.013c0,0-4.381-0.295-4.714,1.051c-0.324,1.348,1.997,8.472,2.347,9.325
	c0.547,1.346,2.023-1.773,2.023-1.773c0.469-0.853,2.264-5.036,2.264-5.606C165.651,132.297,165.698,130.002,163.721,130.013"/>
<path fill="#C9CACC" d="M184.77,138.565c-0.282,0.123-0.553,0.177-0.762,0.25c0.208,0.076,0.417,0.136,0.605,0.146
	C184.624,138.837,184.687,138.699,184.77,138.565"/>
<path fill="#C9CACC" d="M146.6,130.69c0,0-4.368-0.271-4.709,1.064c-0.341,1.346,1.531,7.583,1.826,8.449
	c0.438,1.301,1.372-0.667,1.372-0.667c0.472-0.845,3.958-5.278,3.969-5.844C149.056,132.999,148.592,130.68,146.6,130.69"/>
<path fill="#C9CACC" d="M177.255,87.529c-1.356,0.076-12.772,1.356-20.387,1.377c-6.07,0.023-12.482-0.271-15.906-0.148
	c-0.269-0.037-0.699,0-1.095,0.055c-5.095-0.219-21.408-0.482-21.408-0.482c-1.218-0.245-17.763,4.039-20.162,22.441
	c-1.479,11.338-0.756,14.965,1.807,20.347c1.525,3.205,4.592,9.116,4.485,13.734c-0.042,1.935-3.476-8.089-3.424-6.952
	c0.498,11.648-1.528,37.878-2.686,43.448c-1.382,6.639-2.717,3.28-4.271,6.052c-0.243,0.438-3.638,6.607-3.562,6.686
	c0.073,0.052,1.703-0.198,3.432-0.36c2.011-0.068,3.659-5.531,5.033-5.531c0.224,0-1.512,4.399-1.244,4.326
	c1.424-0.349,3.747-0.954,3.593,0.188c0.516,0.162,0.923-0.104,1.238-0.485c0.417-0.501,2.303-8.986,3.46-13.396
	c0.261-0.722,2.151-0.305,2.665-0.107c1.03-2.078-0.613-9.009,2.354-18.639c2.944-9.463,6.04-17.672,4.652-20.11
	c-0.149-0.279-5.163,6.386-5.289,6.123c-0.313-0.761,16.353-28.756,13.122-43.255c-0.063-0.519-0.292-1.105-0.292-1.523
	c-0.01-0.112,1.927,0.699,4.336,1.335c3.124,0.962,5.87,1.468,6.809,5.08c1.126,6.967,4.357,16.842,10.926,17.439
	c-2.986-2.733-6.803-16.624-6.329-22.332c1.843,9.312,7.515,22.804,12.196,22.193c-0.959-1.5-4.863-9.992-4.863-15.333
	c1.687,4.433,5.718,14.146,8.759,14.216c7.953,0.162,9.977-3.46,15.854-4.785c13.168-2.976,16.621,2.078,18.634,3.119
	c-1.606-1.554-7.103-11.15-10.754-18.637c-2.91-5.93,2.003-11.852,10.337-15.531C190.924,87.352,179.857,87.454,177.255,87.529"/>
<path d="M182.929,138.711c0,0-0.438-0.386-0.808-0.448c-0.12-0.021-0.198-0.031-0.271-0.031c-0.167,0-0.25,0.031-0.25,0.031
	l-0.177,0.086l0.052-0.183c0.021-0.123,0.188-0.352,0.521-0.352c0.125,0,0.256,0.031,0.396,0.086
	c0.517,0.185,0.678,0.704,0.678,0.714l0.099,0.305L182.929,138.711z"/>
<path d="M179.148,137.992c0.031-0.112,0.188-0.352,0.532-0.352c0.12,0,0.25,0.026,0.396,0.071c0.083,0.042,0.229,0.127,0.229,0.127
	l0.104,0.058l-0.354,0.274l-0.042-0.021c0,0-0.141-0.05-0.214-0.06c-0.11-0.021-0.204-0.031-0.276-0.031
	c-0.172,0-0.25,0.031-0.25,0.031l-0.177,0.081L179.148,137.992z"/>
<path d="M180.045,137.794c0.073,0.031,0.208,0.107,0.208,0.107l-0.208,0.164c0,0-0.157-0.063-0.229-0.073
	c-0.407-0.075-0.584,0.021-0.584,0.021S179.362,137.554,180.045,137.794"/>
<path d="M187.257,188.475c-4.667,0-5.272-7.583-5.377-8.939c-1.126-0.081-2.347-0.855-3.181-1.512
	c-0.042-0.031-0.125-0.086-0.219-0.133c0.021,0.561,0.047,1.142,0.057,1.687c0.047,0.876,0.219,3.14,0.287,3.745l0.016,0.063
	c0.099,0.855,0.339,2.858-1.627,3.953c-0.584,0.302-1.226,0.479-1.924,0.479c-0.595,0-1.126-0.123-1.481-0.198
	c-0.083-0.01-0.157-0.031-0.219-0.042l-0.344-0.031c-0.5-0.07-1.189-0.156-1.71-0.188h-0.146c-0.98,0-3.75,0.178-4.193,0.219
	c-0.104,0.01-0.198,0.021-0.302,0.021c-1.564,0-2.837-1.249-2.858-1.27c-0.788-0.774-0.855-2.002-0.157-2.986l0.178-0.261
	l0.261-0.198c0.156-0.102,0.646-0.438,1.345-0.54c0.574-0.368,1.481-0.897,2.853-1.661c-1.205-2.344-6.514-10.472-1.883-13.035
	c1.705-0.931,4.344-1.87,6.821-2.451c0.021-0.162,0.063-0.316,0.104-0.459c0.052-0.188,0.104-0.819,0.031-1.325
	c-0.72,0.394-1.45,0.602-2.055,0.602c-0.208,0-0.396-0.021-0.584-0.063c-1.575-0.331-3.609-2.66-3.849-2.97
	c-0.354-0.48-1.689-2.921-2.931-5.239c-3.369-0.157-3.682-0.25-3.912-0.321c-0.344-0.117-0.73-0.24-2.92-2.068
	c-0.72-0.623-1.085-1.453-0.97-2.274c0.094-0.678,0.521-1.272,1.137-1.585c0.052-0.021,0.083-0.044,0.146-0.07
	c0.281-0.378,0.751-0.764,1.543-0.928l0.219-0.055h0.266c0.538,0,0.996,0.188,1.382,0.427c0.031-0.261,0.094-0.524,0.229-0.764
	c0.407-0.79,1.236-1.27,2.222-1.27c0.542,0,1.126,0.144,1.794,0.438l0.094,0.052l0.104,0.065c0.219,0.133,0.25,0.133,0.25,0.133
	c0.412,0.086,1.388,0.383,1.711,0.511c0.563,0.242,0.97,0.553,2.029,2.378l1.674,1.687c0.767-1.784,1.69-2.584,2.029-2.879
	c0.48-0.415,1.069-0.592,1.685-0.779c0.12-0.042,0.292-0.097,0.428-0.133c0.24-0.219,0.532-0.422,0.845-0.597
	c0.016-0.091,0.052-0.188,0.083-0.263c-0.25-0.352-0.553-0.811-0.798-1.197c-0.688-1.147-0.6-2.177-0.548-2.819l0.011-0.208
	c0.099-1.773,2.331-3.283,2.352-3.293c0.25-0.167,0.526-0.3,0.767-0.396c0.448-0.524,1.23-1.398,1.783-1.891
	c0.449-0.428,1.054-0.714,1.627-0.923c0.479-0.994,1.492-1.474,3.045-1.474c0.49,0,2.107,0.118,2.639,0.196
	c1.147,0.188,1.924,0.91,2.321,1.784c0.996,0.336,1.627,1.233,1.747,2.44l0.349,0.381c0.256,0.25,0.803,0.907,0.986,1.896
	c0.615,1.168,0.511,2.569,0.438,3.192c-0.031,1.898-0.521,3.015-1.048,3.648c-0.067,0.229-0.12,0.412-0.198,0.566
	c1.82,1.126,2.383,3.648,2.55,4.642c0.156,0.582,0.866,3.056,1.23,4.663c0.511,2.297-0.282,4.464-0.365,4.704l-0.104,0.25
	l-0.157,0.219c-0.146,0.198-0.928,1.218-1.251,1.619c-0.615,0.728-1.278,1.051-1.846,1.176c0.193,0.772,0.391,1.606,0.521,2.381
	c1.46,1.82,2.253,4.336,2.253,5.233c0,0.582-0.183,1.212-0.365,1.666h0.01c0.156,0.449,0.177,1.015,0.156,2.232
	c0.626,0.688,1.158,1.661,1.721,2.756c0.063,0.133,0.104,0.229,0.136,0.271c2.764,6.042-4.183,6.511-4.61,6.362
	C190.694,188.368,187.743,188.475,187.257,188.475"/>
<path fill="#C9CACC" d="M186.804,137.397c-0.412-0.076-1.909-0.188-2.336-0.188c-2.06,0-0.986,1.043-0.986,1.043
	s-1.643,0.219-2.321,0.842c-0.688,0.631-1.94,2.089-1.94,2.089s-0.553,0.198-0.887,0.417c-0.333,0.208-1.288,0.938-1.429,1.739
	c-0.104,0.534-0.177,1.191,0.25,1.901c0.417,0.712,1.137,1.656,1.137,1.656s0.177,0.336,0,0.732
	c-0.172,0.407-0.459,1.421-0.459,1.421s-0.996,0.485-1.288,0.821c-0.297,0.342-1.685,0.545-2.039,0.834
	c-0.334,0.292-1.231,1.082-1.846,3.192c-0.72,0.625-1.095,1.426-1.095,1.426l-3.687-3.71c0,0-0.485-1.492-1.163-1.742
	c-0.24-0.086-1.867-0.625-2.253-0.79c-1.367-0.514-1.606-0.117-1.335,0.266c0.282,0.38,1.116,0.774,1.335,0.887
	c0.198,0.117,0.292,1.577-3.161,1.024c-0.156-0.042-1.095-0.597-1.669-0.842c-1.491-0.479-1.23,0.944-0.928,1.208
	c0.323,0.25,1.82,1.794,2.169,1.906c0.329,0.107,4.538,0.284,4.538,0.284s2.894,5.455,3.296,5.984
	c0.417,0.545,2.023,2.078,2.67,2.211c0.657,0.148,2.597-0.561,3.546-2.324l0.386,7.124c0,0-6.613,1.481-7.828,2.485
	c-2.488,1.969,1.914,9.479,3.395,11.471c0.469,0.657,0.141,0.801,0.141,0.801s-4.636,2.547-4.688,2.756
	c-0.438-0.123-0.803,0.144-0.803,0.144s-0.219,0.315-0.073,0.469c0.156,0.149,0.928,0.733,1.533,0.678
	c0.574-0.068,3.849-0.25,4.621-0.219c0.772,0.034,1.731,0.162,2.232,0.219c0.49,0.055,1.533,0.459,2.388,0
	c0.834-0.47,0.699-1.27,0.61-2.06c-0.099-0.795-0.313-3.883-0.313-3.883s-0.078-3.578-0.156-4.016
	c0.902,0.117,2.373,0.459,2.644,0.292c0.464-0.261,0.939,0.529,0.939,0.529s1.507,1.192,2.201,1.069
	c0.673-0.128,0.803-0.183,1.142-1.192c0.255-0.362,0.475-0.271,0.475,0.667c0,0.962-0.475,9.651,3.661,9.479
	c2.545-0.102,4.37-1.325,4.37-1.325s0.709,0.983,1.7,0.636c2.618-0.944,1.189-3.307,0.959-3.669
	c-0.198-0.363-1.397-2.976-2.148-3.027c0.037-1.106-0.146-2.762-0.339-3.21c0.135-0.24,0.574-1.213,0.574-1.672
	s-0.746-2.905-2.144-4.378c-0.313-2.297-1.46-5.758-1.46-5.758s1.523,0.545,1.982,0.603c0.469,0.065,0.845-0.154,1.147-0.516
	c0.318-0.371,1.184-1.534,1.184-1.534s0.683-1.778,0.276-3.562c-0.396-1.763-1.241-4.678-1.241-4.678s-0.391-2.832-1.794-3.476
	c-1.397-0.636-1.679-0.584-1.679-0.584s-0.449-0.597-0.115-0.73c0.339-0.112,0.866-0.514,1.012-0.699
	c0.162-0.177,0.401-1.171,0.401-1.171s0.83-0.396,0.83-2.761c0,0,0.266-1.64-0.36-2.42c0-0.699-0.496-1.158-0.496-1.158
	l-0.897-0.962c0,0,0.12-1.218-0.428-1.356c-0.563-0.133-0.97-0.276-0.97-0.276S187.774,137.541,186.804,137.397"/>
<path d="M179.351,141.736c0.449-0.021,0.777,0.72,0.798,0.887c0.021,0.144-0.083,0.144-0.313,0.097
	c-0.219-0.034-0.417-0.514-0.881-0.472c-0.459,0.023-0.47,0.354-0.631,0.321C178.146,142.547,178.892,141.757,179.351,141.736"/>
<path d="M182.845,140.526c0.49,0.167,0.636,0.657,0.636,0.657s-0.459-0.386-0.86-0.459c-0.407-0.086-0.584,0.01-0.584,0.01
	S182.173,140.276,182.845,140.526"/>
<path d="M187.523,144.302c-0.063-0.154-0.136-0.24-0.25-0.24l-0.083,0.01l-0.052,0.042c-0.188,0.25-0.396,0.354-0.657,0.354
	c-0.303,0-0.553-0.188-0.553-0.188s-0.052,0.668,0.678,0.668c0.553,0,0.887-0.493,0.897-0.514l0.052-0.057L187.523,144.302z"/>
<path d="M189.714,166.676l-0.433-1.951l-0.203-0.699l-3.546-6.634l-0.13-0.25c-0.125-0.112-0.224-0.25-0.506-0.524
	c-0.083-0.068-0.031-0.175,0.078-0.165c1.236,0.154,3.395-0.438,3.906-0.636c0.146,0.177,3.578,4.214,3.838,4.047
	c0.266-0.175-3.463-5.098-3.494-5.111c0-0.031,0.354-2.034,0.271-2.273c-0.167-0.48-1.168-1.218-1.575-1.218l-0.063,0.016
	c-0.073-0.144-0.146-0.256-0.162-0.287l-0.057-0.096c-0.271-0.48-0.48-0.801-0.626-1.033c0.688,0.232,1.377,0.451,1.429,0.472
	l0.375,0.021l0.407-0.555l-2.9-0.973c-0.255-0.081-0.542-0.634-0.553-1.095c-0.021-0.321,2.003-2.311,1.617-2.428
	c-0.782-0.274-2.634,1.729-2.681,2.315c-0.042,0.386,0.178,1.241,0.511,1.575c-0.115,0.167-0.203,0.344-0.203,0.553
	c-3.599,0.24-4.887,1.531-5.043,2.198c0,0,2.879-1.132,3.896-1.301c-0.667,0.634,0.391,1.846,0.391,1.846
	c-0.13-0.042-0.469-0.271-0.829-0.01c-0.673,0.534,0.021,1.64,0.151,1.89c-0.271,0.005-0.469,0.06-0.563,0.165
	c-0.354,0.407,0.323,1.262,0.803,1.796c0.229,0.25-0.819,0.185-3.849-2.078c0.094,2.201,3.729,3.515,4.892,3.525
	C184.895,157.831,189.557,166.386,189.714,166.676 M183.669,154.931c0.208-0.229,0.777,0.315,0.949,0.177
	c0.162-0.146-1.205-1.711-0.772-2.037c0.511-0.342,1.101,0.876,1.372,0.667c0.287-0.229,0.183-0.342,0.104-0.54
	c-0.037-0.094-0.626-1.158-0.636-1.168c-0.031-0.052-0.668-1.03-0.25-1.239c0.428-0.148,0.876,0.571,0.965,0.694
	c0.031,0.031,0.839,1.463,1.173,1.309c0.323-0.198-0.605-2.339-0.605-2.339c-0.057-0.198-0.448-0.753-0.255-0.907
	c0.198-0.156,0.401-0.112,0.954,0.623c0.052,0.065,1.533,2.756,1.721,2.66c0,0,0.031-0.54-0.198-0.955
	c0.292,0.229,0.866,0.404,0.834,0.8c-0.01,0.138-0.052,1.293-0.271,1.575c-0.647,0.79-3.698,1.815-4.647,1.661
	C184.019,155.817,183.419,155.226,183.669,154.931"/>
<path d="M175.205,166.363l-0.5,0.305l-0.762,0.469c0.13,0.31,3.119,7.562,6.154,9.844l0.083-0.279
	C176.123,171.213,175.205,166.363,175.205,166.363"/>
<path d="M186.397,170.086c-1.82,0.261-3.103,6.269-3.103,6.269c0.438-0.566,0.459,0.417,0.459,0.417s1.465-5.111,2.728-5.635
	c1.288-0.527,3.197-0.297,3.197-0.297S188.233,169.802,186.397,170.086"/>
<path d="M172.389,160.605c0.209-0.133-0.5-5.831-0.5-5.831l-0.261,0.282l-0.449-0.282
	C170.939,155.265,172.18,160.738,172.389,160.605"/>
<path d="M173.724,156.026l0.438,4.652l0.803-0.449l-0.219-3.424c0,0,0.407,0.183,0.548,0.065c0.141-0.125-0.642-0.824-0.684-1.679
	c-0.031-0.624,0.678-1.439,0.553-1.51c-0.125-0.075-0.365,0.165-0.365,0.165c0.042-0.566,0.083-1.189,0.125-1.585
	c0.052-0.556,0.793-1.682,0.793-1.682c-1.659,0.587-1.961,2.472-1.961,2.472l-0.104,1.473c0,0.023-0.146,0.472-0.146,0.783
	c0,0.323,0.208,0.719,0.208,0.719H173.724z"/>
<path d="M192.368,178.524c0,0-0.042,5.656-1.246,7.083h0.667c0.24-0.219,0.72-2.037,0.887-2.725
	c0.182-0.759,0.151-3.856,0.151-3.856L192.368,178.524z"/>
<path d="M171.742,170.764c-0.214,1.192,4.688,5.747,4.688,5.747l1.346-0.625C177.776,175.886,173.129,172.485,171.742,170.764"/>
<path d="M185.15,139.462c0.068,0.076,0.042,0.48-0.021,0.774c0,0.016-0.141,0.582,0.62,0.968c0.501,0.24,0.793,0.657,0.986,0.949
	c0.047,0.065,0.089,0.135,0.109,0.177c0.136,0.154,0.178,0.292,0.073,0.657c-0.042,0.154-0.115,0.25-0.183,0.336
	c-0.068,0.067-0.151,0.174-0.099,0.31l0.011,0.042c0.042,0.165,0.177,0.566,0.542,0.72c0.073,0.055,0.261,0.311,0.052,0.931
	l-0.063,0.175c-0.229,0.667-0.031,2.266,0.354,2.159c0.396-0.102,0.324-1.492,0.428-1.656c0.229-0.305,0.386-1.15,0.303-1.609
	c-0.021-0.164-0.083-0.281-0.188-0.336c-0.354-0.229-0.469-0.415-0.469-0.469c0-0.016,0.052-0.091,0.094-0.144
	c0.083-0.091,0.167-0.219,0.24-0.375c0.125-0.302,0.042-0.74-0.083-1.024c-0.115-0.25-0.814-1.137-1.221-1.28
	c-0.354-0.102-0.563-0.305-0.563-0.503c-0.005-0.091,0.01-0.229,0.021-0.362c0.052-0.316,0.073-0.603-0.057-0.78
	c-1.184-1.64-2.92-1.442-2.92-1.442l-0.756,0.821C182.36,138.5,183.706,137.822,185.15,139.462"/>
<path d="M175.763,150.175c0.219,0.143,1.377,0.305,3.458,1.629c0.313-0.524-1.877-1.742-2.899-2.078
	c-0.605,0-0.647,0.133-0.667,0.188C175.633,149.977,175.633,150.068,175.763,150.175"/>
<path d="M169.484,182.3c-1.825-2.503-5.799-2.605-7.124-1.335c-0.078-0.076-0.13-0.123-0.198-0.177
	c-0.558-0.436-2.164-1.398-2.941-1.836c-1.215-1.283-1.727-1.596-1.987-1.731c-1.001-0.603-2.915-1.28-4.548-1.671
	c-0.313-3.471-0.579-4.282-0.767-4.639c0.016-0.112,0.392-3.184,0.329-5.111c1.033,0.188,2.399,0.404,3.505,0.404
	c0.615,0,1.105-0.068,1.512-0.216c1.064-0.279,2.821-0.887,3.541-2.052l0.167-0.25l0.073-0.294c0.068-0.25,0.537-2.527-0.819-4.673
	c-0.928-1.458-3.525-4.193-4.98-5.581c0.068-0.8,0.109-1.606,0.109-1.619c0.058-0.654-0.12-1.335-0.887-2.125
	c-0.229-0.24-1.971-2.222-2.472-2.524c-0.47-0.279-1.241-0.493-1.867-0.493c-0.229,0-0.433,0.034-0.647,0.096
	c-1.7,0.373-1.538,2.986-1.47,3.205c-0.219-0.128-0.449-0.24-0.688-0.347c-0.589-0.646-1.445-1.02-2.295-1.197
	c-0.438-0.315-1.082-0.642-1.911-0.642c-0.058,0-0.123,0-0.188,0.011c-1.098,0.065-1.126,0.183-1.661,0.61
	c-0.821,0.175-1.564,0.657-2.13,1.356c-0.469,0.266-1.051,0.749-1.504,1.544c-0.503,0.404-1.043,1.072-1.481,2.243l-0.164,0.427
	c-0.391,1.02-0.827,2.167-0.514,3.359c0.018,0.016,0.023,0.07,0.034,0.102c-0.952,0.261-2.292,0.811-3.035,2.264
	c-0.326,0.657-0.678,1.522-0.959,2.287c-0.412,0.026-5.192,0.613-5.09,2.869c0.031,0.709,0.373,1.413,1.02,1.862
	c-0.449,0.764-0.48,1.567-0.081,2.245c0.344,0.597,0.819,1.024,1.354,1.233c0.18,0.571,0.448,1.163,0.853,1.676
	c0.472,0.603,0.983,1.046,1.416,1.356c-0.892,0.292-1.844,0.719-2.751,1.376c-1.325,0.897-3.293,2.869-1.585,5.925
	c0.271,0.469,1.111,1.397,5.304,5.515c-0.146,0.172-3.445,6.234,1.948,6.485c1.229,2.07,5.432-0.905,5.575-0.986
	c0.315,0.07,5.961,0.091,4.459-4.255c0.391-0.063,2.339-0.603,2.441-0.613c0.631,0.276,2.018,0.842,2.842,0.923
	c0.37,0.031,0.975,0.055,1.424,0.055c0.574,0,1.971-0.023,2.644-0.156c0.177-0.031,0.375-0.086,0.594-0.123
	c0.589,0.947,1.507,2.125,2.696,2.793c1.419,0.813,4.668,2.263,5.752,2.748c0.214,0.219,2.498,2.112,4,2.112
	c4.788,0,3.307-4.357,3.385-4.6C170.11,189.007,170.819,184.105,169.484,182.3"/>
<path fill="#C9CACC" d="M152.733,159.28c-0.193-0.24-2.05-0.72-2.811-0.8c-0.261-0.264-1.116-0.524-1.116-0.524
	s1.168-0.876,1.137-1.479c-0.808-4.144-2.211-4.464-2.211-4.464s-0.438-0.941-1.62-1.085c-0.203-0.887-1.935-1.035-1.935-1.035
	s-0.433-0.574-1.126-0.54c-0.501,0.037-0.663,0.24-0.918,0.55c0,0-1.038-0.167-1.731,1.025c0,0-0.821,0.175-1.325,1.372
	c0,0-0.607,0.151-1.158,1.588c-0.373,0.98-0.816,1.948-0.631,2.681c0.203,0.73,0.8,1.489,0.8,1.489s-0.561,0.459-1.179,0.652
	c-0.625,0.185-2.136,0.3-2.756,1.533c-0.625,1.228-1.397,3.588-1.397,3.588s-0.375-0.219-0.829-0.263
	c-0.402-0.042-2.227,0.034-2.634,0.333c-0.224,0.149-1.02,0.25-0.999,0.553c0.049,0.886,1.452,0.573,1.452,0.573l-0.318,1.878
	c0,0-0.589,0.573-0.433,0.845c0.159,0.274,0.433,0.375,0.618,0.315c0.24-0.042,0.621-0.493,0.621-0.493s0,1.833,0.816,2.868
	c0.811,1.033,1.752,1.4,1.752,1.4s0.613,0.245,1.147,0c0.545-0.208,1.554-1.015,1.64-1.325c0.076-0.305,0.342-1.346,0.342-1.346
	s0.433-1.65,0.631-1.692c0.185-0.034,0.383,0.229,0.383,0.229v3.348c0,0-1.325,2.493-1.325,3.14c-0.699,0.086-3.716-0.24-6.323,1.64
	c-2.136,1.458-1.387,2.803-1.004,3.492c0.38,0.699,6.905,6.98,7.098,7.21c-0.086,0.219,0.112,0.498-0.193,0.498h-0.704
	c0,0-0.994-0.386-1.163,0c-0.417,0.949,0.634,0.863,0.678,1.025c0.026,0.175-0.85-0.128-0.978,0.373
	c-0.177,0.615,0.016,1.191,0.433,1.697c0.261,0.347,0.938,0.183,1.131,0.253c0.209,0.083,0.274,0.404,0.79,0.511
	c1.143,0.449,3.669-1.606,4-1.554c1.228,0.616,2.66-0.511,2.746-1.202c0.097-0.699-0.01-1.041-0.263-1.575
	c-0.25-0.517-1.041-1.361-1.041-1.361s0.978-0.305,1.187-0.401c0,0,0.138-0.102,0.469,0.055c0.321,0.164,1.768,0.428,2.196,0.407
	c0.433-0.013,2.044-0.793,2.294-0.657c0.255,0.138,1.852,0.806,2.446,0.853c0.589,0.065,2.869,0.055,3.505-0.068
	c0.626-0.117,1.909-0.503,1.909-0.503s1.059,2.472,2.67,3.393c1.617,0.907,5.94,2.803,5.94,2.803s1.737,1.794,2.884,1.794
	c1.137,0,1.429-0.976,1.429-1.205c-0.01-0.24-0.042-1.476,0.188-2.112c0.229-0.667,0.438-2.628,0.49-3.546
	c0.068-0.918,0.386-3.476-2.076-3.849c-0.386-0.065-1.23-0.208-1.382-0.208c-0.36,0.031-0.183,0.876-0.297,0.556
	c-0.141-0.391-0.553-0.482-0.72-0.422c-0.448,0.203-0.646,0.586-0.636,0.795c0.031,0.375,0.198,1.39,0.198,1.39
	s-2.002-1.599-2.55-2.047c-0.547-0.449-2.926-1.815-2.926-1.815s-1.288-1.356-1.679-1.523c-0.219-0.261-3.599-1.805-5.424-1.773
	c-0.031-1.388-0.104-4.629-0.897-6.207c0.01-0.435,0.5-4.985,0.208-6.183c-0.125-0.524,0.678-0.928,1.085-0.928
	s4.297,0.887,5.351,0.436c0,0,2.065-0.521,2.524-1.275c0,0,0.417-1.698-0.574-3.242c-0.991-1.554-4.454-5.1-5.351-5.831
	c0.115-0.897,0.198-2.511,0.198-2.511s0-0.347-0.229-0.566c-0.25-0.25-1.825-2.058-2.044-2.243
	c-0.178-0.167-0.897-0.407-1.189-0.321c-0.292,0.091-0.198,0.714-0.031,0.876c0.177,0.186,0.657,0.582,0.657,0.582l0.25,0.699
	c0,0-0.324,0.167-0.386,0.321c-0.052,0.138-0.052,0.941,0.063,1.126c0.115,0.162,0.501,0.24,0.501,0.24s-0.354,0.785-0.699,0.808
	c-0.303-0.427-0.798-1.716-1.226-1.293c-0.204,0.208-0.308,0.561-0.193,0.913c0.094,0.336,0.668,1.981,0.96,2.287
	c0.302,0.292,0.521,0.459,0.521,0.459S152.623,158.655,152.733,159.28"/>
<path d="M131.861,175.708c3.124-0.326,8.822,9.335,9.009,9.543c0.198,0.209,0.55-0.24,0.55-0.24
	C141.181,184.595,136.203,174.332,131.861,175.708"/>
<path d="M131.449,165.476c0.556-0.086,1.463-1.147,1.314-1.202c-0.138-0.057-0.605,0.642-1.442,0.642
	c-0.269,0-0.592-0.065-0.941-0.128l-0.083-0.021c-0.102,0.186-0.829,0.303-0.829,0.303l0.091,0.448l0.714-0.174
	C130.391,165.39,130.894,165.562,131.449,165.476"/>
<path d="M136.164,159.646c-0.657,0.076,0.096,8.949,0.096,8.949l0.684-0.887c-0.091-0.5-0.178-3.095-0.167-3.465
	c0.232,0.151,3.254-0.485,3.927-1.622c0,0-2.115,0.383-2.649,0.266c-0.952-0.154-1.202-0.561-1.249-0.853
	C136.811,161.943,136.448,159.625,136.164,159.646"/>
<path d="M135.757,173.633l-0.597,0.428c4.302,2.273,6.915,10.67,6.936,10.753l0.021,0.091l1.39,0.482
	C143.507,185.388,140.222,175.635,135.757,173.633"/>
<path d="M145.922,184.908c0.188,0.295,1.17-0.229,1.17-0.229v-0.097c0-0.037-0.107-4.076,3.143-7.173
	C150.235,177.409,146.686,178.125,145.922,184.908"/>
<path d="M163.518,184.178l-0.808-0.555c0,0,0.381,1.815,0.36,2.61c-0.016,0.136-0.052,0.167-0.109,0.219
	c-0.031,0.034-0.042,0.055-0.073,0.07c-0.297,0.326-0.089,1.596-0.089,1.596s0.35-0.725,0.72-1.137
	c0.032-0.037,0.058-0.07,0.099-0.102c0.172-0.165,0.209-0.292,0.115-1.015C163.716,185.62,163.518,184.178,163.518,184.178"/>
<path d="M150.683,159.562c-0.156,0.021-0.448,2.146-0.438,2.43c0,0.042-0.083,1.432-1.638,1.189c-1.551-0.25-2.19-0.542-2.19-0.542
	c0.55,1.092,3.129,1.627,3.766,2.524c0.135,0.188,0.24,1.181,0.261,1.304h0.511v-1.773l0.511-0.154
	C151.236,160.832,150.84,159.531,150.683,159.562"/>
<path d="M140.169,157.935c-0.928,0-2.303,0.143-2.35,0.156l-1.56,0.334l0.454,0.344c0.031-0.011,2.06-0.417,3.408-0.417
	c0.224,0,0.404,0.01,0.547,0.052c1.166,0.253,2.566,0.753,2.587,0.55c0.005-0.185-1.656-0.832-2.446-0.978
	C140.66,157.956,140.446,157.935,140.169,157.935"/>
<path d="M150.255,158.519l0.104-0.065l0.042-0.047l0.042-0.086l-0.052-0.117l-0.626-0.363c-0.063,0-3.051-0.01-3.051-0.01
	c-0.735,0.021-3.048,0.949-2.899,1.126c0.148,0.165,1.828-0.545,2.985-0.688C148.013,158.112,150.151,158.519,150.255,158.519"/>
<path d="M147.856,152.792c0.595-0.625-0.553-1.335-0.574-1.421c0,0,0.798,1.048,0.151,0.753c-0.55-0.876-2.717-1.512-2.793-1.596
	c-0.112-0.136,0.274-0.503,1.468,0.394c0.076-0.154-0.649-0.863-1.687-0.79c-0.021-0.143-0.117-0.302-0.214-0.362
	c-0.016-0.01-0.031-0.01-0.031-0.01c-0.042,0-0.107,0-0.086,0.021c0.091,0.102,0.245,0.352,0.075,0.373
	c-0.203,0.021-0.326-0.336-0.368-0.394c-0.106-0.198-0.604,0.081-0.315,0.3c0.073,0.073,0.209,0.115,0.332,0.206
	c0.148,0.086,0.083,0.141-0.044,0.086c-0.169-0.052-0.347-0.086-0.576-0.086c-0.235,0-0.449,0.055-0.652,0.141
	c-0.091,0.021-0.174-0.023-0.067-0.107c0.088-0.081,0.224-0.112,0.308-0.167c0.417-0.292-0.276-0.774-0.394-0.086
	c-0.081,0.128-0.162,0.219-0.224,0.243c-0.315,0.021,0.021-0.472,0.005-0.472c0,0-0.037,0.044-0.055,0.055
	c-0.099,0.063-0.229,0.188-0.256,0.326c-0.081-0.011-1.286,0.068-1.458,0.725c0.892-0.657,1.361-0.613,1.304-0.362
	c-0.016,0.107-1.084,0.72-1.518,1.126c-0.336,0.25-0.842,0.866-0.938,0.887c-0.172,0.031-0.198-0.315,0.031-0.774
	c-0.561,0.555-0.454,0.993-0.305,1.223c-0.282,0.678-0.224,1.533,0.146,2.211c0.318,0.561,2.279,2.222,2.446,2.109
	c0.165-0.117-2.031-2.044-2.195-2.874c-0.347-1.981,2.323-3.721,3.186-3.823c0.044,0,0.157,0.25,0.647,0.219
	c0.61-0.023,0.678-0.219,0.678-0.219c0.691-0.086,3.948,1.147,3.609,3.557c-0.12,0.759-0.419,1.666-0.287,1.763
	c0.13,0.078,0.266-0.326,0.595-0.983C148.159,154.294,148.169,153.439,147.856,152.792"/>
<path d="M156.368,163.578c-0.417-0.459-3.891-4.642-3.911-4.652c-0.032-0.063-0.115-0.198-0.24-0.198
	c-0.068,0-0.506,0.023-0.521,0.125c0.73,1.221,2.389,3.161,3.562,4.11C155.784,163.434,156.222,163.711,156.368,163.578"/>
<path d="M134.871,186.306c0.177,0.229,0.48,0.678,0.48,0.678s0.427-1.051,1.171-1.468c0.73-0.412,2.008-0.983,2.558-1.004
	C136.98,183.977,134.957,185.526,134.871,186.306"/>
<path d="M133.822,169.262c0.394,0.011,0.514-0.375,0.519-0.79l0.078-0.076c0.01-0.01,0.386-0.347,0.626-1.105
	c0.183,1.009,0.688,3.022,0.315,3.546l-0.576,0.605l0.602-0.344c0.235-0.083,0.616-0.511,0.496-1.223
	c-0.063-0.383-0.654-3.588-0.654-3.588l-0.029-0.133c-0.031-0.417-0.154-0.811-0.389-1.116c-0.391-0.535-1.014-0.811-1.426-0.845
	c0,0,1.656,1.105,1.442,2.276c-0.198,1.116-0.407,1.207-0.407,1.218l-0.229-0.264l-0.021,0.657
	c-0.036,0.326-0.143,0.459-0.357,0.449c-0.636-0.011-1.106,0.855-1.784,0.657c-0.636-0.185-0.973-0.714-1.374-1.02
	c-0.363-0.282,0.193-0.845,0.193-0.845s-0.021-0.219-0.185-0.334c-0.172-0.115-0.457,0.597-0.457,0.597s-0.383,0.978,0.157,1.325
	c0.949,0.624,0.641,0.613,1.666,0.923C133.058,170.149,132.978,169.242,133.822,169.262"/>
<path d="M178.772,138.607c-0.699,0-1.591-0.438-1.81-1.667c-0.078-0.24-0.693-1.671-1.215-2.91c-3.004-7.022-2.764-4.454-2.482-5.57
	c0.5-2.013,3.259-2.255,5.304-2.255c0.475,0,0.834,0.023,0.965,0.034c0.991,0.011,1.856,0.373,2.535,1.03
	c1.116,1.105,1.397,2.735,1.397,3.494c0,0.083-1.502,4.618-2.263,5.984l-0.031,0.055c-1.106,1.784-2.065,1.805-2.389,1.805H178.772z
	"/>
<path fill="#C9CACC" d="M179.477,127.76c0,0-4.376-0.282-4.725,1.053c-0.329,1.346,2.78,6.446,3.729,7.865
	c0.678,1.009,1.376-0.667,1.376-0.667c0.47-0.832,2.055-4.684,2.065-5.254C181.922,130.046,181.453,127.749,179.477,127.76"/>
<path d="M55.135,84.275c0,0,12.204,0.764,14.344,14.542c0.688-2.537-2.078-10.879-5.58-12.913c-0.396-0.229-1.906-0.973-0.79-3.434
	C59.007,81.876,55.135,84.275,55.135,84.275"/>
<path d="M113.374,89.845c0,0,7.455-2.814,9.223,9.158c0.806-4.378-0.204-9.585-3.221-11.161
	C116.354,86.268,113.374,89.845,113.374,89.845"/>
<path d="M78.27,102.654c0,0,0.743,2.516,1.533,3.012c0.8,0.479,2.868-2.616,2.868-2.616s-1.442,3.731-2.72,4.684
	C78.927,106.954,78.525,106.002,78.27,102.654"/>
<path d="M81.295,105.47c0,0,1.197,2.493,1.987,2.986c0.8,0.475,2.644-2.475,2.644-2.475s-1.64,3.82-2.49,4.545
	C82.671,109.837,81.172,108.94,81.295,105.47"/>
<path d="M74.337,109.726c0,0,1.458,2.681,2.334,3.033c1.489,0.6,1.596-3.328,1.596-3.328s0.631,4.352-1.014,5.779
	C75.876,114.419,75.154,113.885,74.337,109.726"/>
<path d="M78.045,108.14c0,0,0.791,2.365,1.539,2.931c0.741,0.561,2.295-3.664,2.295-3.664s-0.506,4.177-1.687,6.261
	C79.428,112.792,78.147,111.478,78.045,108.14"/>
<path d="M81.07,110.049c0.011,0.112,1.432,2.222,2.308,2.628c0.897,0.383,1.473-3.241,1.473-3.241s0.255,4.138-0.816,5.34
	C83.415,114.338,81.37,113.29,81.07,110.049"/>
<path d="M81.879,100.036c0,0,1.395,3.173,2.323,3.664c0.928,0.475,2.318-2.931,2.318-2.931s-0.712,3.711-2.373,4.869
	C83.016,104.656,82.669,103.999,81.879,100.036"/>
<path d="M79.532,97.313c0,0,0.876,2.365,1.667,2.783c0.79,0.422,2.167-2.783,2.167-2.783s-0.816,4.092-2.081,5.341
	C80.429,101.965,80.033,100.828,79.532,97.313"/>
<path d="M84.356,96.479c0,0,0.73,2.044,1.416,2.482c0.673,0.438,1.729-1.356,1.729-1.356s-0.422,2.837-1.677,3.22
	C85.305,100.361,84.739,99.441,84.356,96.479"/>
<path d="M88.08,94.08c0,0,0.407,1.927,0.988,2.334c0.55,0.412,1.585-1.351,1.585-1.351s-0.133,2.146-1.646,3.098
	C88.453,97.493,87.785,96.674,88.08,94.08"/>
<path d="M91.553,91.274c0,0,0.407,1.917,0.973,2.329c0.565,0.404,1.596-1.356,1.596-1.356s-0.193,2.616-1.601,2.91
	C92.695,95.402,91.287,93.603,91.553,91.274"/>
<path d="M75.115,105.084c0,0,1.27,2.253,1.864,2.318c0.587,0.058,1.719-2.318,1.719-2.318s-0.535,3.194-1.719,3.841
	C76.45,108.278,75.404,107.253,75.115,105.084"/>
<path d="M82.677,94.361c0,0,0.535,1.896,1.121,2.264c0.587,0.386,1.507-1.453,1.507-1.453s-0.3,2.714-1.325,3.479
	C83.329,98.062,82.544,97.086,82.677,94.361"/>
<path fill="#C9CACC" d="M137.4,124.078c-2.06-0.709-4.592-4.999-5.361-6.829c-0.769-1.849-2.159-7.265-1.319-9.244
	c0.443,1.958,1.63,6.146,2.527,8.031C134.592,118.86,136.289,122.544,137.4,124.078"/>
<path d="M181.912,179.338c-0.375-0.775-2.347-1.554-3.212-1.677c-0.792-0.118-0.965-0.138-1.038,0.667
	c-0.068,0.657-0.099,1.351,0.031,2.039c0.214,1.202,0.308,0.85,1.382,0.91c0.813,0.063,1.544,0.185,2.336,0.127
	c0.762-0.044,0.923-0.065,0.923-0.774c-0.011-0.514,0.193-1.15-0.423-1.335"/>
<text transform="matrix(1 0 0 1 157.7598 361.2612)" font-family="'HelveticaNeue-MediumCond'" font-size="10.0191">TM</text>
</svg>
