<?xml version="1.0" encoding="UTF-8" standalone="no"?>
<svg
   xmlns:dc="http://purl.org/dc/elements/1.1/"
   xmlns:cc="http://creativecommons.org/ns#"
   xmlns:rdf="http://www.w3.org/1999/02/22-rdf-syntax-ns#"
   xmlns:svg="http://www.w3.org/2000/svg"
   xmlns="http://www.w3.org/2000/svg"
   xmlns:xlink="http://www.w3.org/1999/xlink"
   xmlns:sodipodi="http://sodipodi.sourceforge.net/DTD/sodipodi-0.dtd"
   xmlns:inkscape="http://www.inkscape.org/namespaces/inkscape"
   version="1.1"
   id="Capa_1"
   x="0px"
   y="0px"
   width="53"
   height="66"
   viewBox="0 0 53.000001 66"
   enable-background="new 0 0 595 842"
   xml:space="preserve"
   inkscape:version="0.48.2 r9819"
   sodipodi:docname="Villarreal CF.svg"><metadata
   id="metadata93"><rdf:RDF><cc:Work
       rdf:about=""><dc:format>image/svg+xml</dc:format><dc:type
         rdf:resource="http://purl.org/dc/dcmitype/StillImage" /></cc:Work></rdf:RDF></metadata><defs
   id="defs91" /><sodipodi:namedview
   pagecolor="#ffffff"
   bordercolor="#666666"
   borderopacity="1"
   objecttolerance="10"
   gridtolerance="10"
   guidetolerance="10"
   inkscape:pageopacity="0"
   inkscape:pageshadow="2"
   inkscape:window-width="1280"
   inkscape:window-height="968"
   id="namedview89"
   showgrid="false"
   fit-margin-top="0"
   fit-margin-left="0"
   fit-margin-right="0"
   fit-margin-bottom="0"
   inkscape:zoom="11.378788"
   inkscape:cx="26.5"
   inkscape:cy="33"
   inkscape:window-x="-4"
   inkscape:window-y="-4"
   inkscape:window-maximized="1"
   inkscape:current-layer="Capa_1" />
<path
   clip-rule="evenodd"
   d="m 26.438837,0.60910028 c 0.881,0 1.611,0.72999992 1.611,1.63099992 0,0.266 -0.064,0.517 -0.177,0.739 l 0.1,-0.003 c 0.9,0 1.63,0.73 1.63,1.63 0,0.901 -0.73,1.631 -1.63,1.631 -0.334,0 -0.628,-0.107 -0.897,-0.278 0.011,1.857 1.495,3.352 3.339,3.352 1.574,0 2.894,-1.089 3.246,-2.555 -0.246,0.076 -0.587,0.107 -0.869,0.042 -0.877,-0.203 -1.424,-1.078 -1.221,-1.955 0.202,-0.878 1.077,-1.425 1.955,-1.222 l 0.055,0.013 c -0.06,-0.241 -0.066,-0.499 -0.006,-0.758 0.203,-0.877 1.078,-1.424 1.956,-1.221 0.877,0.202 1.424,1.078 1.221,1.955 -0.059,0.259 -0.178,0.49 -0.338,0.681 l 0.097,0.019 c 0.878,0.203 1.425,1.078 1.222,1.955 -0.202,0.878 -1.078,1.425 -1.955,1.222 -0.282,-0.065 -0.529,-0.199 -0.729,-0.38 l -0.016,0.053 c -0.415,1.796 0.7,3.6099998 2.502,4.0039998 1.565,0.342 2.565,-0.105 3.09,-0.631 -0.262,-0.047 -0.538,-0.162 -0.768,-0.355 -0.69,-0.5789995 -0.78,-1.6079998 -0.201,-2.2969998 0.579,-0.69 1.608,-0.78 2.297,-0.201 l 0.419,0.387 c 0.571,-1 0.654,-1.166 0.945,-1.608 0.494,-0.753 1.249,-0.539 2.051,-0.028 l 1.249,0.862 -2.347,2.4410003 c 0.068,0.1509994 0.084,0.3129995 0.084,0.4819995 0,0.794 -0.643,1.437 -1.437,1.437 -0.23,0 -0.444,-0.011 -0.637,-0.108 -1.355,1.138 -3.234,1.646 -5.102,1.215 -1.551,-0.358 -2.816,-1.297 -3.62,-2.533 l 0.054,-0.069 c -1.248,0.723 -2.77,0.992 -4.287,0.642 -1.15,-0.265 -2.143,-0.8510001 -2.886,-1.6399998 -0.744,0.7889997 -1.737,1.3749998 -2.887,1.6399998 -1.517,0.35 -3.017,0.16 -4.265,-0.563 l -0.02,0.04 c -0.803,1.237 -2.017,2.125 -3.568,2.483 -1.868,0.431 -3.747,-0.077 -5.102,-1.215 -0.193,0.097 -0.406001,0.108 -0.6370014,0.108 -0.7930002,0 -1.4360002,-0.643 -1.4360002,-1.437 0,-0.169 0.015,-0.3310001 0.083,-0.4819995 l -2.346,-2.4410003 1.249,-0.862 c 0.801,-0.511 1.556,-0.725 2.051,0.028 0.29,0.442 0.373,0.608 0.9440016,1.608 l 0.419,-0.387 c 0.69,-0.579 1.718,-0.489 2.297,0.201 0.579,0.689 0.489,1.7180003 -0.201,2.2969998 -0.23,0.193 -0.505,0.308 -0.768,0.355 0.526,0.526 1.526,0.973 3.091,0.631 1.801,-0.394 2.916,-2.2079998 2.501,-4.0039998 l -0.016,-0.053 c -0.199,0.181 -0.447,0.315 -0.729,0.38 -0.877,0.203 -1.752,-0.344 -1.955,-1.222 -0.202,-0.877 0.345,-1.752 1.222,-1.955 l 0.097,-0.019 c -0.16,-0.191 -0.278,-0.422 -0.338,-0.681 -0.203,-0.877 0.344,-1.753 1.222,-1.955 0.877,-0.203 1.753,0.344 1.955,1.221 0.06,0.259 0.054,0.517 -0.005,0.758 l 0.054,-0.013 c 0.878,-0.203 1.753,0.344 1.956,1.222 0.203,0.877 -0.345,1.752 -1.222,1.955 -0.282,0.065 -0.623,0.034 -0.869,-0.042 0.353,1.466 1.672,2.555 3.247,2.555 1.843,0 3.327,-1.495 3.338,-3.352 -0.269,0.171 -0.563,0.278 -0.896,0.278 -0.901,0 -1.631,-0.73 -1.631,-1.631 0,-0.9 0.73,-1.63 1.631,-1.63 l 0.099,0.003 c -0.113,-0.222 -0.177,-0.473 -0.177,-0.739 0,-0.901 0.73,-1.63099992 1.612,-1.63099992 z"
   id="path3"
   inkscape:connector-curvature="0"
   style="fill:#ffe667;fill-rule:evenodd" />
<path
   stroke-miterlimit="3.864"
   d="m 26.438837,0.60910028 c 0.881,0 1.611,0.72999992 1.611,1.63099992 0,0.266 -0.064,0.517 -0.177,0.739 l 0.1,-0.003 c 0.9,0 1.63,0.73 1.63,1.63 0,0.901 -0.73,1.631 -1.63,1.631 -0.334,0 -0.628,-0.107 -0.897,-0.278 0.011,1.857 1.495,3.352 3.339,3.352 1.574,0 2.894,-1.089 3.246,-2.555 -0.246,0.076 -0.587,0.107 -0.869,0.042 -0.877,-0.203 -1.424,-1.078 -1.221,-1.955 0.202,-0.878 1.077,-1.425 1.955,-1.222 l 0.055,0.013 c -0.06,-0.241 -0.066,-0.499 -0.006,-0.758 0.203,-0.877 1.078,-1.424 1.956,-1.221 0.877,0.202 1.424,1.078 1.221,1.955 -0.059,0.259 -0.178,0.49 -0.338,0.681 l 0.097,0.019 c 0.878,0.203 1.425,1.078 1.222,1.955 -0.202,0.878 -1.078,1.425 -1.955,1.222 -0.282,-0.065 -0.529,-0.199 -0.729,-0.38 l -0.016,0.053 c -0.415,1.796 0.7,3.6099998 2.502,4.0039998 1.565,0.342 2.565,-0.105 3.09,-0.631 -0.262,-0.047 -0.538,-0.162 -0.768,-0.355 -0.69,-0.5789995 -0.78,-1.6079998 -0.201,-2.2969998 0.579,-0.69 1.608,-0.78 2.297,-0.201 l 0.419,0.387 c 0.571,-1 0.654,-1.166 0.945,-1.608 0.494,-0.753 1.249,-0.539 2.051,-0.028 l 1.249,0.862 -2.347,2.4410003 c 0.068,0.1509994 0.084,0.3129995 0.084,0.4819995 0,0.794 -0.643,1.437 -1.437,1.437 -0.23,0 -0.444,-0.011 -0.637,-0.108 -1.355,1.138 -3.234,1.646 -5.102,1.215 -1.551,-0.358 -2.816,-1.297 -3.62,-2.533 l 0.054,-0.069 c -1.248,0.723 -2.77,0.992 -4.287,0.642 -1.15,-0.265 -2.143,-0.8510001 -2.886,-1.6399998 -0.744,0.7889997 -1.737,1.3749998 -2.887,1.6399998 -1.517,0.35 -3.017,0.16 -4.265,-0.563 l -0.02,0.04 c -0.803,1.237 -2.017,2.125 -3.568,2.483 -1.868,0.431 -3.747,-0.077 -5.102,-1.215 -0.193,0.097 -0.406001,0.108 -0.6370014,0.108 -0.7930002,0 -1.4360002,-0.643 -1.4360002,-1.437 0,-0.169 0.015,-0.3310001 0.083,-0.4819995 l -2.346,-2.4410003 1.249,-0.862 c 0.801,-0.511 1.556,-0.725 2.051,0.028 0.29,0.442 0.373,0.608 0.9440016,1.608 l 0.419,-0.387 c 0.69,-0.579 1.718,-0.489 2.297,0.201 0.579,0.689 0.489,1.7180003 -0.201,2.2969998 -0.23,0.193 -0.505,0.308 -0.768,0.355 0.526,0.526 1.526,0.973 3.091,0.631 1.801,-0.394 2.916,-2.2079998 2.501,-4.0039998 l -0.016,-0.053 c -0.199,0.181 -0.447,0.315 -0.729,0.38 -0.877,0.203 -1.752,-0.344 -1.955,-1.222 -0.202,-0.877 0.345,-1.752 1.222,-1.955 l 0.097,-0.019 c -0.16,-0.191 -0.278,-0.422 -0.338,-0.681 -0.203,-0.877 0.344,-1.753 1.222,-1.955 0.877,-0.203 1.753,0.344 1.955,1.221 0.06,0.259 0.054,0.517 -0.005,0.758 l 0.054,-0.013 c 0.878,-0.203 1.753,0.344 1.956,1.222 0.203,0.877 -0.345,1.752 -1.222,1.955 -0.282,0.065 -0.623,0.034 -0.869,-0.042 0.353,1.466 1.672,2.555 3.247,2.555 1.843,0 3.327,-1.495 3.338,-3.352 -0.269,0.171 -0.563,0.278 -0.896,0.278 -0.901,0 -1.631,-0.73 -1.631,-1.631 0,-0.9 0.73,-1.63 1.631,-1.63 l 0.099,0.003 c -0.113,-0.222 -0.177,-0.473 -0.177,-0.739 0,-0.901 0.73,-1.63099992 1.612,-1.63099992 z"
   id="path5"
   inkscape:connector-curvature="0"
   style="fill:none;stroke:#005187;stroke-width:0.153;stroke-miterlimit:3.86400008" />
<circle
   cx="66.734001"
   cy="191.759"
   r="26.094"
   id="circle7"
   sodipodi:cx="66.734001"
   sodipodi:cy="191.759"
   sodipodi:rx="26.094"
   sodipodi:ry="26.094"
   style="fill:#ffffff"
   transform="translate(-40.256163,-154.35391)" />
<circle
   stroke-miterlimit="3.864"
   cx="66.734001"
   cy="191.759"
   r="26.094"
   id="circle9"
   sodipodi:cx="66.734001"
   sodipodi:cy="191.759"
   sodipodi:rx="26.094"
   sodipodi:ry="26.094"
   style="fill:none;stroke:#005187;stroke-width:0.153;stroke-miterlimit:3.86400008"
   transform="translate(-40.256163,-154.35391)" />
<path
   d="m 1.3478354,37.5421 c 0,-13.84 11.2190016,-25.06 25.0600016,-25.06 13.841,0 25.061,11.22 25.061,25.06 0,13.841 -11.22,25.061 -25.061,25.061 -13.841,0 -25.0600016,-11.22 -25.0600016,-25.061"
   id="path11"
   inkscape:connector-curvature="0"
   style="fill:#005187" />
<path
   d="m 30.485837,14.1971 5.597,7.312 5.999,0.024 v 4.237 h -2.731 l 8.712,11.659 -18.822,25.48 -5.607,0.015 -18.8370016,-25.544 8.8580016,-11.655 h -3.027 v -4.249 l 6.196,-0.012 5.538,-7.297 c 0,0 2.165,-0.283 4.003,-0.283 1.529,0 4.121,0.313 4.121,0.313"
   id="path13"
   inkscape:connector-curvature="0"
   style="fill:#ffffff" />
<path
   d="m 18.965837,19.2941 c -2.534,-0.043 -4.755,-1.438 -5.922,-3.493 -0.105,-0.189 -0.142,-0.416 -0.142,-0.647 0,-0.513 0.285,-0.956 0.732,-1.172 3.888,-1.78 8.212,-2.772 12.767,-2.772 4.466,0 8.69,0.954 12.536,2.668 l -0.025,0.002 c 0.436,0.208 0.764,0.663 0.764,1.193 0,0.245 -0.105,0.552 -0.222,0.748 -1.221,2.078 -3.471,3.474 -6.046,3.474 -0.318,0 -0.863,0.01 -0.863,0.01 l -13.579,-0.011"
   id="path15"
   inkscape:connector-curvature="0"
   style="fill:#ffe667" />
<g
   id="g17"
   transform="translate(-40.256163,-154.35391)">
	<defs
   id="defs19">
		<path
   id="SVGID_1_"
   d="m 59.222,173.648 c -2.534,-0.043 -4.755,-1.438 -5.922,-3.493 -0.105,-0.189 -0.142,-0.416 -0.142,-0.647 0,-0.513 0.285,-0.956 0.732,-1.172 3.888,-1.78 8.212,-2.772 12.767,-2.772 4.466,0 8.69,0.954 12.536,2.668 l -0.025,0.002 c 0.436,0.208 0.764,0.663 0.764,1.193 0,0.245 -0.105,0.552 -0.222,0.748 -1.221,2.078 -3.471,3.474 -6.046,3.474 -0.318,0 -0.863,0.01 -0.863,0.01 l -13.579,-0.011"
   inkscape:connector-curvature="0" />
	</defs>
	<clipPath
   id="SVGID_2_">
		<use
   xlink:href="#SVGID_1_"
   overflow="visible"
   id="use23"
   style="overflow:visible"
   x="0"
   y="0"
   width="595"
   height="842" />
	</clipPath>
	<circle
   clip-path="url(#SVGID_2_)"
   cx="66.511002"
   cy="194.39999"
   r="25.632999"
   id="circle25"
   sodipodi:cx="66.511002"
   sodipodi:cy="194.39999"
   sodipodi:rx="25.632999"
   sodipodi:ry="25.632999"
   d="m 92.144001,194.39999 c 0,14.15672 -11.476285,25.633 -25.632999,25.633 -14.156715,0 -25.633,-11.47628 -25.633,-25.633 0,-14.15671 11.476285,-25.633 25.633,-25.633 14.156714,0 25.632999,11.47629 25.632999,25.633 z" />
	
		<circle
   clip-path="url(#SVGID_2_)"
   stroke-miterlimit="3.864"
   cx="66.511002"
   cy="194.39999"
   r="25.632999"
   id="circle27"
   sodipodi:cx="66.511002"
   sodipodi:cy="194.39999"
   sodipodi:rx="25.632999"
   sodipodi:ry="25.632999"
   style="fill:none;stroke:#000000;stroke-width:0.296;stroke-miterlimit:3.86400008"
   d="m 92.144001,194.39999 c 0,14.15672 -11.476285,25.633 -25.632999,25.633 -14.156715,0 -25.633,-11.47628 -25.633,-25.633 0,-14.15671 11.476285,-25.633 25.633,-25.633 14.156714,0 25.632999,11.47629 25.632999,25.633 z" />
	<path
   clip-path="url(#SVGID_2_)"
   d="m 52.776,168.505 c 0.19,0.173 -1.178,1.628 0.302,2.774 2.153,1.667 2.183,-2.417 13.719,-2.417 7.907,0 11.016,2.619 11.016,2.619 l -1.324,0.334 -1.194,0.096 0.287,-0.86 -0.382,-0.525 -0.525,0.621 -0.335,0.048 -0.286,-0.895 -0.382,0.799 -0.909,0.435 1.428,2 c 2.863,-0.155 6.119,-2.824 6.119,-4.076 0,-2.181 -7.231,-4.174 -13.663,-4.174 -6.097,0 -14.061,3.047 -13.871,3.221 z"
   id="path29"
   inkscape:connector-curvature="0"
   style="fill:#ffe667" />
	<path
   clip-path="url(#SVGID_2_)"
   stroke-miterlimit="3.864"
   d="m 52.776,168.505 c 0.19,0.173 -1.178,1.628 0.302,2.774 2.153,1.667 2.183,-2.417 13.719,-2.417 7.907,0 11.016,2.619 11.016,2.619 l -1.324,0.334 -1.194,0.096 0.287,-0.86 -0.382,-0.525 -0.525,0.621 -0.335,0.048 -0.286,-0.895 -0.382,0.799 -0.909,0.435 1.428,2 c 2.863,-0.155 6.119,-2.824 6.119,-4.076 0,-2.181 -7.231,-4.174 -13.663,-4.174 -6.097,0 -14.061,3.047 -13.871,3.221 z"
   id="path31"
   inkscape:connector-curvature="0"
   style="fill:none;stroke:#000000;stroke-width:0.083;stroke-miterlimit:3.86400008" />
</g>
<path
   stroke-miterlimit="3.864"
   d="m 18.965837,19.2941 c -2.534,-0.043 -4.755,-1.438 -5.922,-3.493 -0.105,-0.189 -0.142,-0.416 -0.142,-0.647 0,-0.513 0.285,-0.956 0.732,-1.172 3.888,-1.78 8.212,-2.772 12.767,-2.772 4.466,0 8.69,0.954 12.536,2.668 l -0.025,0.002 c 0.436,0.208 0.764,0.663 0.764,1.193 0,0.245 -0.105,0.552 -0.222,0.748 -1.221,2.078 -3.471,3.474 -6.046,3.474 -0.318,0 -0.863,0.01 -0.863,0.01 l -13.579,-0.011 z"
   id="path33"
   inkscape:connector-curvature="0"
   style="fill:none;stroke:#000000;stroke-width:0.153;stroke-miterlimit:3.86400008" />
<path
   d="m 30.390837,14.9431 17,22.47 -20.923,28.326 L 5.5448354,37.3651 22.532837,14.9141 c 0,0 2.095,-0.274 3.872,-0.274 1.479,0 3.986,0.303 3.986,0.303"
   id="path35"
   inkscape:connector-curvature="0"
   style="fill:#ffe667" />
<g
   id="g37"
   transform="translate(-40.256163,-154.35391)">
	<defs
   id="defs39">
		<path
   id="SVGID_3_"
   d="m 70.647,169.297 17,22.47 -20.923,28.326 -20.923,-28.374 16.988,-22.451 c 0,0 2.095,-0.274 3.872,-0.274 1.479,0 3.986,0.303 3.986,0.303"
   inkscape:connector-curvature="0" />
	</defs>
	<clipPath
   id="SVGID_4_">
		<use
   xlink:href="#SVGID_3_"
   overflow="visible"
   id="use43"
   style="overflow:visible"
   x="0"
   y="0"
   width="595"
   height="842" />
	</clipPath>
	<polygon
   clip-path="url(#SVGID_4_)"
   points="54.892,181.628 54.892,202.001 50.186,196.135 50.186,187.604 "
   id="polygon45"
   style="fill:#e70005" />
	<polygon
   clip-path="url(#SVGID_4_)"
   stroke-miterlimit="3.864"
   points="54.892,181.628 54.892,202.001 50.186,196.135 50.186,187.604 "
   id="polygon47"
   style="fill:none;stroke:#e70005;stroke-width:0.296;stroke-miterlimit:3.86400008" />
	<polygon
   clip-path="url(#SVGID_4_)"
   points="59.419,175.709 59.419,208.819 64.129,214.837 64.127,169.474 "
   id="polygon49"
   style="fill:#e70005" />
	<polygon
   clip-path="url(#SVGID_4_)"
   stroke-miterlimit="3.864"
   points="59.419,175.709 59.419,208.819 64.129,214.837 64.127,169.474 "
   id="polygon51"
   style="fill:none;stroke:#e70005;stroke-width:0.296;stroke-miterlimit:3.86400008" />
	<polygon
   clip-path="url(#SVGID_4_)"
   points="78.532,181.694 78.532,201.842 83.158,196.075 83.158,187.641 "
   id="polygon53"
   style="fill:#e70005" />
	<polygon
   clip-path="url(#SVGID_4_)"
   stroke-miterlimit="3.864"
   points="78.532,181.694 78.532,201.842 83.158,196.075 83.158,187.641 "
   id="polygon55"
   style="fill:none;stroke:#e70005;stroke-width:0.296;stroke-miterlimit:3.86400008" />
	<polygon
   clip-path="url(#SVGID_4_)"
   points="74.028,175.737 74.028,208.714 69.354,214.886 69.27,169.34 "
   id="polygon57"
   style="fill:#e70005" />
	<polygon
   clip-path="url(#SVGID_4_)"
   stroke-miterlimit="3.864"
   points="74.028,175.737 74.028,208.714 69.354,214.886 69.27,169.34 "
   id="polygon59"
   style="fill:none;stroke:#e70005;stroke-width:0.296;stroke-miterlimit:3.86400008" />
</g>
<path
   stroke-miterlimit="3.864"
   d="m 30.390837,14.9431 17,22.47 -20.923,28.326 L 5.5448354,37.3651 22.532837,14.9141 c 0,0 2.095,-0.274 3.872,-0.274 1.479,0 3.986,0.303 3.986,0.303 z"
   id="path61"
   inkscape:connector-curvature="0"
   style="fill:none;stroke:#005187;stroke-width:0.153;stroke-miterlimit:3.86400008" />
<path
   d="m 25.462837,4.3341002 c 0,-0.558 0.452,-1.01 1.01,-1.01 0.557,0 1.009,0.452 1.009,1.01 0,0.557 -0.452,1.01 -1.009,1.01 -0.558,0 -1.01,-0.453 -1.01,-1.01"
   id="path63"
   inkscape:connector-curvature="0"
   style="fill:#e70005" />
<path
   d="m 17.214837,5.3791002 c 0,-0.557 0.452,-1.009 1.01,-1.009 0.557,0 1.01,0.452 1.01,1.009 0,0.558 -0.453,1.01 -1.01,1.01 -0.558,0 -1.01,-0.452 -1.01,-1.01"
   id="path65"
   inkscape:connector-curvature="0"
   style="fill:#e70005" />
<path
   d="m 33.784837,5.3791002 c 0,-0.557 0.452,-1.009 1.009,-1.009 0.558,0 1.01,0.452 1.01,1.009 0,0.558 -0.452,1.01 -1.01,1.01 -0.557,0 -1.009,-0.452 -1.009,-1.01"
   id="path67"
   inkscape:connector-curvature="0"
   style="fill:#e70005" />
<path
   d="m 42.204837,10.5831 c 0,-0.557 0.452,-1.0089995 1.009,-1.0089995 0.558,0 1.01,0.4519995 1.01,1.0089995 0,0.558 -0.452,1.01 -1.01,1.01 -0.557,0 -1.009,-0.452 -1.009,-1.01"
   id="path69"
   inkscape:connector-curvature="0"
   style="fill:#e70005" />
<path
   d="m 8.6238354,10.5831 c 0,-0.557 0.452,-1.0089995 1.009,-1.0089995 0.5580006,0 1.0100016,0.4519995 1.0100016,1.0089995 0,0.558 -0.452001,1.01 -1.0100016,1.01 -0.557,0 -1.009,-0.452 -1.009,-1.01"
   id="path71"
   inkscape:connector-curvature="0"
   style="fill:#e70005" />
<polyline
   points="66.656,166.176 64.274,167.096 66.66,168.182 69.055,167.121 66.656,166.176 "
   id="polyline73"
   style="fill:#e70005"
   transform="translate(-40.256163,-154.35391)" />
<polyline
   points="56.025,168.234 54.13,169.947 56.746,170.106 58.603,168.257 56.025,168.234 "
   id="polyline75"
   style="fill:#005187"
   transform="translate(-40.256163,-154.35391)" />
<polyline
   points="77.236,168.234 79.131,169.947 76.514,170.106 74.658,168.257 77.236,168.234 "
   id="polyline77"
   style="fill:#005187"
   transform="translate(-40.256163,-154.35391)" />
<path
   d="m 18.737837,31.5821 c -0.797,-0.496 -1.46,-0.689 -2.345,-0.689 -3.253,0 -5.62,2.837 -5.62,6.722 0,3.663 2.411,6.556 5.465,6.556 0.907,0 1.593,-0.193 2.5,-0.689 v -3.746 c -0.575,0.551 -1.151,0.826 -1.792,0.826 -1.483,0 -2.478,-1.239 -2.478,-3.058 0,-1.708 1.04,-2.975 2.433,-2.975 0.642,0 1.151,0.221 1.837,0.799 v -3.746"
   id="path79"
   inkscape:connector-curvature="0" />
<polyline
   points="82.419,188.206 82.419,185.413 74.948,185.413 74.948,198.493 78.332,198.493 78.332,193.107 82.047,193.107   82.047,190.314 78.332,190.314 78.332,188.206 82.419,188.206 "
   id="polyline81"
   transform="translate(-40.256163,-154.35391)" />
<polyline
   points="51.246,176.192 51.245,179.736 58.275,179.727 66.61,208.628 74.661,179.727 81.953,179.727 81.953,176.192   72.037,176.192 66.697,195.701 61.318,176.192 51.246,176.192 "
   id="polyline83"
   transform="translate(-40.256163,-154.35391)" />
<polygon
   points="57.782,170.773 58.499,171.899 58.448,172.872 59.216,172.821 61.316,169.762 "
   id="polygon85"
   style="fill:#ffe667"
   transform="translate(-40.256163,-154.35391)" />
<polygon
   stroke-miterlimit="3.864"
   points="57.782,170.773 58.499,171.899 58.448,172.872 59.216,172.821 61.316,169.762 "
   id="polygon87"
   style="fill:none;stroke:#000000;stroke-width:0.141;stroke-miterlimit:3.86400008"
   transform="translate(-40.256163,-154.35391)" />
</svg>